<?xml version="1.0" encoding="UTF-8" standalone="no"?>
<svg
   xmlns:dc="http://purl.org/dc/elements/1.1/"
   xmlns:cc="http://creativecommons.org/ns#"
   xmlns:rdf="http://www.w3.org/1999/02/22-rdf-syntax-ns#"
   xmlns:svg="http://www.w3.org/2000/svg"
   xmlns="http://www.w3.org/2000/svg"
   viewBox="0 0 266.66666 133.33333"
   height="133.33333"
   width="266.66666"
   xml:space="preserve"
   id="svg2"
   version="1.1"><metadata
     id="metadata8"><rdf:RDF><cc:Work
         rdf:about=""><dc:format>image/svg+xml</dc:format><dc:type
           rdf:resource="http://purl.org/dc/dcmitype/StillImage" /></cc:Work></rdf:RDF></metadata><defs
     id="defs6" /><g
     transform="matrix(1.3333333,0,0,-1.3333333,0,133.33333)"
     id="g10"><g
       transform="scale(0.1)"
       id="g12"><path
         id="path14"
         style="fill:#86d8f0;fill-opacity:1;fill-rule:nonzero;stroke:none"
         d="M 2000,0 H 0 C 0,552.285 447.715,1000 1000,1000 1552.29,1000 2000,552.285 2000,0" /><path
         id="path16"
         style="fill:#5cbded;fill-opacity:1;fill-rule:nonzero;stroke:none"
         d="M 1825,0 H 175 c 0,455.637 369.363,825 825,825 455.63,0 825,-369.363 825,-825" /><path
         id="path18"
         style="fill:#679caa;fill-opacity:1;fill-rule:nonzero;stroke:none"
         d="m 220,269.438 v 356.285 c 9.727,12.113 19.73,23.988 30,35.629 v -317.18 c -11.16,-24.281 -21.195,-49.25 -30,-74.734 m 1560,0 c -8.8,25.484 -18.84,50.453 -30,74.734 v 317.18 c 10.27,-11.641 20.27,-23.516 30,-35.629 V 269.438" /><path
         id="path20"
         style="fill:#4d8caa;fill-opacity:1;fill-rule:nonzero;stroke:none"
         d="m 1780,0 h -30 v 344.172 c 11.16,-24.281 21.2,-49.25 30,-74.734 V 0 M 250,0 h -30 v 269.438 c 8.805,25.484 18.84,50.453 30,74.734 V 10 0" /><path
         id="path22"
         style="fill:#ffffff;fill-opacity:1;fill-rule:nonzero;stroke:none"
         d="m 255,5 v 801.852 l 375,-120.102 370,118.5 370,-118.5 375,120.102 V 5 H 255" /><path
         id="path24"
         style="fill:#211d1d;fill-opacity:1;fill-rule:nonzero;stroke:none"
         d="M 1750,813.699 1736.95,809.523 1370,692.004 1003.05,809.523 1000,810.5 996.949,809.523 630,692.004 263.051,809.523 250,813.699 V 800 10 0 h 10 1480 10 v 10 790 13.699 M 1740,800 V 10 H 260 V 800 L 630,681.5 1000,800 1370,681.5 1740,800" /><path
         id="path26"
         style="fill:#ffffff;fill-opacity:1;fill-rule:nonzero;stroke:none"
         d="M 260,0 H 1740 V 20 H 260 Z" /><path
         id="path28"
         style="fill:#52b8e8;fill-opacity:1;fill-rule:nonzero;stroke:none"
         d="m 300,0 h 1400 v 744.977 l -330,-107.028 -370,120 -370,-120 -330,107.028 V 0" /><path
         id="path30"
         style="fill:#ffffff;fill-opacity:1;fill-rule:nonzero;stroke:none"
         d="m 300,39.7227 -1.543,0.5039 1.543,4.7539 v -5.2578 m 1400,0 v 5.2578 l 1.54,-4.7539 -1.54,-0.5039 M 300,139.723 l -1.543,0.504 1.543,4.753 v -5.257 m 1400,0 v 5.257 l 1.54,-4.753 -1.54,-0.504 m -1400,100 -1.543,0.5 1.543,4.757 v -5.257 m 1400,0 v 5.257 l 1.54,-4.757 -1.54,-0.5 m -1400,100 -1.543,0.504 1.543,4.753 v -5.257 m 1400,0 v 5.257 l 1.54,-4.753 -1.54,-0.504 m -1400,100 -1.543,0.504 1.543,4.753 v -5.257 m 1400,0 v 5.257 l 1.54,-4.753 -1.54,-0.504 m -1400,100 -1.543,0.504 1.543,4.753 v -5.257 m 1400,0 v 5.257 l 1.54,-4.753 -1.54,-0.504 m -1400,100 -1.543,0.5 1.543,4.757 v -5.257 m 1400,0 v 5.257 l 1.54,-4.757 -1.54,-0.5 m -1165,29.039 -10,3.242 v 4.859 h 10 v -8.101 m 940,3.242 v 4.859 h 10 v -1.617 l -10,-3.242 m -1060,35.676 -10,3.242 v 3.453 h 10 v -6.695 m 1180,3.242 v 3.453 h 10 v -0.211 l -10,-3.242" /><path
         id="path32"
         style="fill:#64beea;fill-opacity:1;fill-rule:nonzero;stroke:none"
         d="M 340.23,26.6758 300,39.7227 v 5.2578 l 1.543,4.7578 39.348,-12.7617 c -0.246,-3.4258 -0.465,-6.8672 -0.661,-10.3008 m 1319.54,0.0039 c -0.19,3.4375 -0.41,6.875 -0.66,10.2969 l 39.35,12.7617 1.54,-4.7578 v -5.2578 l -40.23,-13.043 M 352.691,122.633 300,139.723 v 5.257 l 1.543,4.754 53.246,-17.265 c -0.723,-3.27 -1.422,-6.551 -2.098,-9.836 m 1294.619,0.004 c -0.67,3.285 -1.37,6.562 -2.09,9.832 l 53.24,17.265 1.54,-4.754 v -5.257 l -52.69,-17.086 M 378.539,214.246 300,239.723 v 5.257 l 1.543,4.754 80.48,-26.101 c -1.191,-3.133 -2.339,-6.231 -3.484,-9.387 m 1242.921,0.008 c -1.14,3.137 -2.3,6.266 -3.48,9.379 l 80.48,26.101 1.54,-4.754 v -5.257 l -78.54,-25.469 M 1605,255.313 c -3.21,7.281 -6.54,14.484 -10,21.628 v 28.723 l -12.59,-4.082 c -1.61,2.996 -3.23,5.965 -4.89,8.934 l 17.48,5.664 v 89.484 l -65.42,-21.215 c -2.12,2.836 -4.25,5.637 -6.41,8.438 l 71.83,23.297 v 89.48 l -110,-35.676 v -32 c -2.33,2.52 -4.67,5 -7.04,7.485 1.35,14.664 2.04,29.511 2.04,44.527 0,23.625 -1.7,46.828 -5,69.539 v 7.211 l -1.05,-0.344 c -0.53,3.332 -1.1,6.66 -1.7,9.965 l 2.75,0.895 v 94.738 l 10,3.242 v -94.738 l 110,35.676 v 94.738 l 10,3.242 v -94.738 l 93.46,30.308 1.54,-4.754 v -5.257 l -95,-30.805 v -89.492 l 93.46,30.308 1.54,-4.754 v -5.257 l -95,-30.805 v -89.492 l 93.46,30.308 1.54,-4.754 v -5.257 l -95,-30.805 v -89.492 l 93.46,30.308 1.54,-4.754 v -5.257 l -95,-30.805 v -53.605 m -10,350.351 -110,-35.676 v -89.48 l 110,35.676 v 89.48 M 405,276.93 v 28.734 l -105,34.059 v 5.257 l 1.543,4.754 L 405,316.18 v 89.484 l -105,34.059 v 5.257 l 1.543,4.754 L 405,416.184 v 89.48 l -105,34.059 v 5.257 l 1.543,4.754 L 405,516.184 v 89.48 l -105,34.059 v 5.257 l 1.543,4.754 L 405,616.184 v 94.738 l 10,-3.242 v -94.742 l 110,-35.672 v 94.738 l 10,-3.242 v -59.235 c -4.184,-16.332 -7.539,-33.035 -10,-49.988 v 7.211 l -110,35.672 v -89.484 l 105.129,-34.09 c 0.078,-3.559 0.199,-7.098 0.355,-10.637 L 415,502.422 v -89.481 l 61.836,-20.054 c -2.164,-2.801 -4.293,-5.602 -6.414,-8.438 L 415,402.422 v -89.481 l 7.48,-2.425 c -1.656,-2.969 -3.281,-5.938 -4.89,-8.934 l -2.59,0.84 v -5.707 c -3.441,-6.531 -6.773,-13.125 -10,-19.785" /><path
         id="path34"
         style="fill:#52b8e8;fill-opacity:1;fill-rule:nonzero;stroke:none"
         d="M 1599.75,0 C 1594.38,326.738 1328.02,590 1000,590 671.98,590 405.613,326.738 400.254,0 H 1599.75" /><path
         id="path36"
         style="fill:#4689a7;fill-opacity:1;fill-rule:nonzero;stroke:none"
         d="m 1660.74,0 h -50.99 c -0.06,3.46484 -0.15,6.92578 -0.26,10.3711 l 50.28,16.3086 c 0.5,-8.8516 0.83,-17.73829 0.97,-26.6797 m -51.68,20.7422 c -0.78,15.5391 -2.14,30.9531 -4.06,46.168 v 42.0078 l 42.31,13.719 c 5.74,-27.9456 9.71,-56.5472 11.8,-85.6604 L 1609.06,20.7422 M 1605,119.426 v 89.492 l 16.46,5.336 c 9.61,-26.524 17.56,-53.805 23.76,-81.785 L 1605,119.426 m -10,4.57 c -0.28,1.238 -0.56,2.484 -0.85,3.719 -0.08,0.433 -0.17,0.875 -0.25,1.316 -5.52,23.668 -12.46,46.891 -20.73,69.555 l 21.83,7.078 v -81.668 m -25.34,83.969 c -10.28,26.773 -22.43,52.742 -36.32,77.703 l 49.07,15.914 c 4.37,-8.113 8.56,-16.328 12.59,-24.641 v -60.757 l -25.34,-8.219 m 35.34,11.461 v 35.887 c 4.59,-10.415 8.92,-20.993 12.98,-31.68 L 1605,219.426 m -76.69,75.125 c -13.05,22.562 -27.51,44.254 -43.31,64.969 v 10.468 l 44.58,14.461 c 17.54,-23.476 33.59,-48.195 47.94,-73.933 l -49.21,-15.965 m -56.51,81.676 c -1.39,1.687 -2.77,3.359 -4.17,5.035 2.98,12.863 5.45,25.965 7.37,39.199 v -43.195 l -3.2,-1.039 m 13.2,4.281 v 57.48 c 13.37,-14.449 26.12,-29.504 38.17,-45.101 L 1485,380.508" /><path
         id="path38"
         style="fill:#518ca8;fill-opacity:1;fill-rule:nonzero;stroke:none"
         d="m 1609.49,10.3711 c -0.11,3.4687 -0.26,6.9141 -0.43,10.3711 l 50.05,16.2344 c 0.25,-3.4219 0.47,-6.8594 0.66,-10.2969 L 1609.49,10.3711 M 1605,66.9102 c -1.37,10.8554 -3.03,21.625 -4.97,32.2929 l -0.06,0.5157 -0.71,4.0902 c -0.4,2.336 -0.8,4.668 -1.42,7.617 -0.24,0.91 -0.49,1.851 -0.73,2.82 -0.68,3.262 -1.38,6.512 -2.11,9.75 v 81.668 l -21.83,-7.078 c -1.15,3.137 -2.32,6.262 -3.51,9.379 l 25.34,8.219 v 60.757 c 3.46,-7.144 6.79,-14.347 10,-21.628 v -35.887 l 12.98,4.207 c 1.18,-3.113 2.34,-6.242 3.48,-9.379 L 1605,208.918 v -89.492 l 40.22,13.043 c 0.72,-3.27 1.42,-6.547 2.09,-9.832 L 1605,108.918 V 66.9102 m -71.66,218.7578 c -1.65,2.977 -3.33,5.937 -5.03,8.883 l 49.21,15.965 c 1.66,-2.969 3.28,-5.938 4.89,-8.934 l -49.07,-15.914 M 1485,359.52 c -4.3,5.636 -8.71,11.218 -13.2,16.707 l 3.2,1.039 v 43.195 c 1.2,8.277 2.19,16.605 2.96,25.012 2.37,-2.485 4.71,-4.965 7.04,-7.485 v -57.48 l 38.17,12.379 c 2.16,-2.801 4.29,-5.602 6.41,-8.438 L 1485,369.988 V 359.52" /><path
         id="path40"
         style="fill:#4689a7;fill-opacity:1;fill-rule:nonzero;stroke:none"
         d="m 390.254,0 h -50.992 c 0.148,8.94141 0.472,17.8203 0.968,26.6758 L 390.508,10.3633 C 390.395,6.91406 390.309,3.46484 390.254,0 m 0.684,20.7422 -50.047,16.2344 c 2.089,29.1093 6.062,57.707 11.8,85.6564 l 48.707,-15.801 c -5.46,-28.0586 -8.996,-56.8125 -10.46,-86.0898 m 12.468,95.9568 -48.617,15.77 c 6.188,27.957 14.152,55.273 23.75,81.777 L 405,205.664 v -81.668 c -0.551,-2.437 -1.074,-4.848 -1.594,-7.297 M 415,162.496 v 39.926 l 11.891,-3.856 C 422.566,186.711 418.598,174.68 415,162.496 m 15.398,45.449 -15.398,4.993 v 83.777 c 0.855,1.625 1.723,3.25 2.59,4.867 l 49.113,-15.93 c -13.844,-24.886 -25.996,-50.843 -36.305,-77.707 m -25.398,8.239 -22.977,7.449 c 6.895,18.16 14.571,35.945 22.977,53.297 v -60.746 m 66.742,78.355 -49.262,15.977 c 14.348,25.738 30.399,50.457 47.942,73.933 l 50.969,-16.531 c -15.844,-20.117 -30.371,-41.172 -43.516,-63.012 -2.07,-3.426 -4.125,-6.898 -6.133,-10.367 M 525,377.266 476.836,392.887 c 14.156,18.32 29.238,35.863 45.203,52.586 0.774,-8.41 1.762,-16.739 2.961,-25.012 v -43.195" /><path
         id="path42"
         style="fill:#518ca8;fill-opacity:1;fill-rule:nonzero;stroke:none"
         d="M 390.508,10.3633 340.23,26.6758 c 0.196,3.4336 0.415,6.875 0.661,10.3008 l 50.047,-16.2344 c -0.172,-3.4531 -0.313,-6.9102 -0.43,-10.3789 m 10.89,96.4687 -48.707,15.801 c 0.676,3.285 1.375,6.566 2.098,9.836 l 48.617,-15.77 c -0.695,-3.273 -1.367,-6.578 -2.008,-9.867 M 405,123.996 v 81.668 l -26.461,8.582 c 1.145,3.156 2.293,6.254 3.484,9.387 L 405,216.184 v 60.746 c 3.227,6.66 6.559,13.254 10,19.785 v -83.777 l 15.398,-4.993 c -1.195,-3.121 -2.363,-6.234 -3.507,-9.379 L 415,202.422 v -39.926 c -3.738,-12.668 -7.078,-25.508 -10,-38.5 m 61.703,161.656 -49.113,15.93 c 1.609,2.996 3.234,5.965 4.89,8.934 l 49.262,-15.977 c -1.703,-2.945 -3.383,-5.91 -5.039,-8.887 m 54.688,82.266 -50.969,16.531 c 2.121,2.836 4.25,5.637 6.414,8.438 L 525,377.266 v 43.195 c 1.914,-13.191 4.371,-26.231 7.336,-39.051 -3.715,-4.445 -7.367,-8.949 -10.945,-13.492" /><path
         id="path44"
         style="fill:#4689a7;fill-opacity:1;fill-rule:nonzero;stroke:none"
         d="m 1589.91,0 h -105.07 c -4.2,10.8398 -8.99,21.1211 -14.67,30.2813 -29.22,46.9921 -58.77,69.8477 -90.34,69.8477 -15.95,0 -29.01,-5.7032 -39.5,-10.2852 -4.82,-2.1055 -9.78,-4.3204 -12.95,-4.3204 -0.3,0 -0.58,0.0235 -0.85,0.0625 -3.9,5.9571 -1.05,19.2111 7.59,36.1721 9.62,-3.145 17.48,-4.629 24.34,-4.629 9.99,0 16.58,3.066 22.97,6.023 6.7,3.118 13.64,6.328 27.88,6.868 13.66,0 44.91,-14.524 72.48,-27.336 35.93,-16.6879 69.88,-32.4692 91.86,-32.4692 3.98,0 7.55,0.5196 10.7,1.5508 3.27,-23.5039 5.16,-47.4687 5.56,-71.7656 M 1176.13,0 H 636.734 c -1.035,5.61328 -2.054,11.3008 -3.148,16.6328 -6.945,33.8867 -10.109,53.7695 5.738,68.5547 C 658.445,103.031 680.438,109.473 704,112.105 785.547,48.1445 888.324,10 1000,10 c 88.15,0 170.76,23.7656 241.75,65.2344 -3.2,-13.75 -15.77,-25.293 -31.21,-39.4805 C 1199.57,25.6836 1187.31,14.2383 1176.13,0" /><path
         id="path46"
         style="fill:#211d1d;fill-opacity:1;fill-rule:nonzero;stroke:none"
         d="m 1110.78,181.121 c 8.2,-19.519 19.97,-32.918 35.98,-40.965 9.14,-4.601 19.52,-7.351 31.7,-8.418 24.98,-7.957 65.36,-24.922 64.05,-51.1325 C 1241.7,64.3867 1227.95,51.7461 1210.54,35.7539 1199.57,25.6836 1187.31,14.2383 1176.13,0 h 26.19 c 7.11,7.58984 14.51,14.375 21.74,21.0273 19.13,17.5665 37.21,34.168 38.43,58.5821 1.49,30.0856 -25.86,54.8316 -79.09,71.5426 l -2.23,0.43 c -10.04,0.781 -18.36,2.891 -25.43,6.445 -11.57,5.813 -20.24,15.911 -26.52,30.852 -13.1,31.172 -35.44,56.004 -57.05,80.027 -37.96,42.18 -67.94,75.496 -40.04,128.965 42.11,80.715 238.53,99.434 265.25,101.613 139.56,-81.64 240.45,-218.144 276.96,-374.601 1.32,-6.961 2.73,-13.242 4.04,-18.02 0.43,-2.136 0.8,-4.285 1.16,-6.441 l 0.66,-3.6759 c 0.15,-3.0742 -0.36,-4.7813 -0.85,-5.3203 -0.52,-0.5586 -2.33,-1.211 -5.7,-1.211 -17.56,0 -52.56,16.2692 -83.44,30.6132 -33.71,15.664 -62.82,29.192 -80.9,29.192 l -1.36,-0.032 c -17.66,-0.672 -27.24,-5.117 -34.94,-8.687 -5.4,-2.512 -8.98,-4.172 -14.55,-4.172 -6.13,0 -14.47,2.051 -25.49,6.262 -4.6,1.726 -9.8,-0.11 -12.25,-4.387 -16.65,-29.121 -20.22,-50.1759 -10.92,-64.3751 4.06,-6.1992 9.99,-9.4844 17.13,-9.4726 6.85,0 13.6,2.9414 21.41,6.3593 9.24,4.0313 19.72,8.6133 31.49,8.6133 24.09,0 48.08,-19.7695 73.34,-60.4023 3.79,-6.1055 7.25,-12.70316 10.33,-19.7266 h 21.34 c -4.2,10.8398 -8.99,21.1211 -14.67,30.2813 -29.22,46.9921 -58.77,69.8477 -90.34,69.8477 -15.95,0 -29.01,-5.7032 -39.5,-10.2852 -5.27,-2.3047 -10.72,-4.7344 -13.8,-4.2579 -3.9,5.9571 -1.05,19.2111 7.59,36.1721 9.62,-3.145 17.48,-4.629 24.34,-4.629 9.99,0 16.58,3.066 22.97,6.023 6.7,3.118 13.64,6.328 27.88,6.868 13.66,0 44.91,-14.524 72.48,-27.336 35.93,-16.6879 69.88,-32.4692 91.86,-32.4692 8.81,0 15.65,2.5508 20.33,7.5782 4.69,5.039 6.75,12.0429 6.13,20.8281 l -0.14,1.0977 -0.71,4.0902 c -0.4,2.336 -0.8,4.668 -1.42,7.617 -1.33,4.929 -2.63,10.722 -3.94,17.605 -38.07,163.203 -143.47,305.102 -289.18,389.321 -1.71,0.984 -3.66,1.367 -5.66,1.316 -9.55,-0.625 -234.54,-16.473 -284.67,-112.539 -34.312,-65.781 4.95,-109.414 42.91,-151.602 20.49,-22.785 41.69,-46.339 53.48,-74.406" /><path
         id="path48"
         style="fill:#211d1d;fill-opacity:1;fill-rule:nonzero;stroke:none"
         d="m 410.09,0 c 2.723,158.906 70.301,311.406 186.492,420.391 20.059,-0.887 25.801,-8.758 34.981,-21.309 10.148,-13.887 22.785,-31.172 57.539,-40.422 12.597,-3.347 28.195,-4.969 47.675,-4.969 15.696,0 31.844,1.043 46.094,1.965 11.652,0.75 22.656,1.461 31.301,1.461 9.558,0 13.328,-0.906 14.723,-1.441 38.683,-14.934 31.359,-93.227 28.957,-118.957 l -0.313,-3.313 c -2.07,-22.781 -54.785,-96.148 -95.594,-98.426 -7.297,-0.402 -14.59,-0.617 -21.855,-0.828 C 700.691,132.996 659.949,131.809 625.676,99.8125 600.859,76.6523 607.234,45.5469 613.992,12.6172 614.836,8.49609 615.691,4.28516 616.523,0 h 20.211 c -1.035,5.61328 -2.054,11.3008 -3.148,16.6328 -6.945,33.8867 -10.109,53.7695 5.738,68.5547 28.762,26.8435 64.028,27.8785 101.352,28.9725 7.437,0.215 14.91,0.442 22.379,0.86 53.593,2.976 111.664,86.406 114.406,116.574 l 0.305,3.269 c 3.047,32.571 11.14,119.09 -41.661,139.461 -5.003,1.938 -11.757,2.793 -21.933,2.793 -9.289,0 -20.609,-0.73 -32.59,-1.504 -13.945,-0.906 -29.758,-1.922 -44.805,-1.922 -17.722,0 -31.64,1.407 -42.539,4.305 -27.922,7.426 -37.383,20.363 -46.535,32.895 -10.613,14.519 -21.59,29.539 -54.961,29.589 h -0.008 c -2.519,0 -4.941,-0.949 -6.789,-2.66 C 463.871,324.895 393.02,165.801 390.266,0 h 19.824" /><path
         id="path50"
         style="fill:#32af40;fill-opacity:1;fill-rule:nonzero;stroke:none"
         d="m 1151.25,149.094 c 8.87,-4.465 18.7,-6.672 29.15,-7.485 30.49,-9.566 73.72,-28.933 72.1,-61.5035 C 1250.99,49.8164 1217.21,32.8984 1188.96,0 h 285.11 c -3.58,8.73047 -7.56,17.1953 -12.4,25 -49.27,79.246 -87.29,68.4414 -112.8,57.6367 -14.18,-6.0078 -24.49,-12.0195 -30.71,-2.5312 -8.32,12.707 0.17,34.5625 11.24,53.9375 46.9,-17.891 39.29,4.434 78.93,5.957 16.18,0.621 48.36,-14.629 81.21,-29.883 50.72,-23.5506 103.06,-47.1014 100.6,-12.1951 -0.67,3.6331 -1.23,7.2931 -1.96,10.9061 -1.44,5.383 -2.78,11.414 -4.02,17.93 -38.13,163.476 -143.02,301.191 -284.44,382.93 C 1293.77,509.297 1070.88,493.77 1023.26,402.5 975,310 1085,268.328 1120,185 c 7.74,-18.426 18.51,-29.504 31.25,-35.906" /><path
         id="path52"
         style="fill:#32af40;fill-opacity:1;fill-rule:nonzero;stroke:none"
         d="m 626.691,0 c -7.218,38.293 -18,70.2734 5.809,92.5 37.5,35 83.68,29.922 130,32.5 46.316,2.578 102.5,80 105,107.5 2.5,27.5 12.5,114.172 -35,132.5 -9.062,3.496 -29.715,1.949 -53.832,0.402 -28.637,-1.836 -62.164,-3.672 -87.004,2.926 -63.867,16.985 -43.379,62.07 -98.926,62.149 C 476.531,322.98 403.063,170.117 400.262,0 h 226.429" /><path
         id="path54"
         style="fill:#6ac9a4;fill-opacity:1;fill-rule:nonzero;stroke:none"
         d="m 1542.28,222.457 c -28.3,34.645 -59.83,66.516 -94.16,95.176 4.99,12.965 9.43,26.191 13.3,39.672 32.62,-40.887 59.92,-86.188 80.86,-134.848" /><path
         id="path56"
         style="fill:#6ac9a4;fill-opacity:1;fill-rule:nonzero;stroke:none"
         d="m 457.723,222.457 c 20.937,48.656 48.238,93.961 80.855,134.848 3.867,-13.481 8.309,-26.707 13.301,-39.672 -34.328,-28.66 -65.859,-60.535 -94.156,-95.176" /><path
         id="path58"
         style="fill:#211d1d;fill-opacity:1;fill-rule:nonzero;stroke:none"
         d="m 410.09,0 c 5.34,320.742 267.918,580 589.91,580 321.99,0 584.57,-259.258 589.91,-580 h 19.84 C 1604.37,331.746 1333.01,600 1000,600 666.996,600 395.637,331.746 390.254,0 h 19.836" /><path
         id="path60"
         style="fill:#3c687b;fill-opacity:1;fill-rule:nonzero;stroke:none"
         d="m 1000,10 c -111.676,0 -214.453,38.1445 -296,102.105 11.883,1.329 24.16,1.688 36.676,2.055 7.437,0.215 14.91,0.442 22.379,0.86 1.965,0.109 3.937,0.328 5.91,0.644 C 836.148,74.0508 915.328,50 1000,50 c 81.46,0 157.82,22.25 223.32,60.992 11.53,-8.176 19.79,-18.3006 19.19,-30.3865 -0.09,-1.8321 -0.35,-3.6211 -0.76,-5.3711 C 1170.76,33.7656 1088.15,10 1000,10" /><path
         id="path62"
         style="fill:#1e1a1a;fill-opacity:1;fill-rule:nonzero;stroke:none"
         d="m 1241.75,75.2344 c 0.41,1.75 0.67,3.539 0.76,5.3711 0.6,12.0859 -7.66,22.2105 -19.19,30.3865 3.07,1.817 6.11,3.664 9.14,5.555 11.86,-9.293 20.14,-20.8048 20.08,-34.8165 -3.57,-2.2188 -7.15,-4.3711 -10.79,-6.4961" /><path
         id="path64"
         style="fill:#1e1a1a;fill-opacity:1;fill-rule:nonzero;stroke:none"
         d="m 704,112.105 c -3.617,2.836 -7.187,5.723 -10.719,8.661 19.938,3.207 40.797,3.019 61.778,3.879 4.578,-3.082 9.203,-6.071 13.906,-8.981 -1.973,-0.316 -3.945,-0.535 -5.91,-0.644 -7.469,-0.418 -14.942,-0.645 -22.379,-0.86 -12.516,-0.367 -24.793,-0.726 -36.676,-2.055" /><path
         id="path66"
         style="fill:#31863c;fill-opacity:1;fill-rule:nonzero;stroke:none"
         d="m 1252.54,81.7305 c 0.06,14.0117 -8.22,25.5235 -20.08,34.8165 83.93,52.441 149.02,132.383 182.52,227.109 11.31,-8.347 22.37,-17.027 33.14,-26.023 -37.85,-98.34 -107.16,-181.09 -195.58,-235.9025" /><path
         id="path68"
         style="fill:#31863c;fill-opacity:1;fill-rule:nonzero;stroke:none"
         d="m 693.281,120.766 c -62.554,52.015 -111.672,119.629 -141.402,196.867 10.773,8.996 21.828,17.676 33.141,26.023 31.824,-89.976 92.132,-166.613 170.039,-219.011 -20.981,-0.86 -41.84,-0.672 -61.778,-3.879" /><path
         id="path70"
         style="fill:#56937c;fill-opacity:1;fill-rule:nonzero;stroke:none"
         d="m 1448.12,317.633 c -10.77,8.996 -21.83,17.676 -33.14,26.023 5.8,16.403 10.66,33.262 14.5,50.485 11.14,-11.828 21.8,-24.121 31.94,-36.836 -3.87,-13.481 -8.31,-26.707 -13.3,-39.672" /><path
         id="path72"
         style="fill:#56937c;fill-opacity:1;fill-rule:nonzero;stroke:none"
         d="m 551.879,317.633 c -4.992,12.965 -9.434,26.191 -13.301,39.672 10.141,12.715 20.801,25.008 31.938,36.836 3.843,-17.223 8.703,-34.082 14.504,-50.485 -11.313,-8.347 -22.368,-17.027 -33.141,-26.023" /><path
         id="path74"
         style="fill:#679caa;fill-opacity:1;fill-rule:nonzero;stroke:none"
         d="m 1422.43,708.793 c -20.19,12.055 -40.95,23.289 -62.21,33.621 C 1280.55,855.777 1148.78,930 1000,930 851.223,930 719.453,855.777 639.781,742.414 618.523,732.078 597.758,720.852 577.57,708.793 l -4.222,1.352 C 653.148,864.5 814.25,970 1000,970 c 185.75,0 346.85,-105.5 426.65,-259.855 l -4.22,-1.352" /><path
         id="path76"
         style="fill:#4d8caa;fill-opacity:1;fill-rule:nonzero;stroke:none"
         d="m 1387.82,697.707 c -8.33,15.484 -17.55,30.398 -27.6,44.707 21.26,-10.332 42.02,-21.566 62.21,-33.621 l -34.61,-11.086 m -775.636,0 -34.614,11.086 c 20.188,12.059 40.953,23.285 62.211,33.621 -10.054,-14.309 -19.273,-29.223 -27.597,-44.707" /><path
         id="path78"
         style="fill:#b6b1af;fill-opacity:1;fill-rule:nonzero;stroke:none"
         d="m 1409.58,650.789 c -5.09,12.941 -10.8,25.609 -17.06,37.922 l 38.69,12.391 c 6.05,-12.344 11.6,-25.004 16.6,-37.918 l -38.23,-12.395 m -819.166,0 -38.223,12.395 c 4.997,12.914 10.547,25.574 16.602,37.918 l 38.687,-12.391 c -6.261,-12.313 -11.964,-24.981 -17.066,-37.922" /><path
         id="path80"
         style="fill:#1e1a1a;fill-opacity:1;fill-rule:nonzero;stroke:none"
         d="m 1392.52,688.711 c -1.53,3.019 -3.1,6.016 -4.7,8.996 l 34.61,11.086 4.22,1.352 c 1.55,-2.997 3.07,-6.008 4.56,-9.043 l -38.69,-12.391 m -785.04,0 -38.687,12.391 c 1.488,3.035 3.004,6.046 4.555,9.043 l 4.222,-1.352 34.614,-11.086 c -1.602,-2.98 -3.168,-5.977 -4.704,-8.996" /><path
         id="path82"
         style="fill:#4689a7;fill-opacity:1;fill-rule:nonzero;stroke:none"
         d="m 522.039,445.473 c -0.695,7.535 -1.215,15.105 -1.555,22.738 L 525,466.746 v -18.191 c -0.98,-1.016 -1.988,-2.063 -2.961,-3.082 M 1475,448.555 c -4.49,4.644 -9.07,9.242 -13.69,13.754 l 13.69,4.437 v -18.191 m -940,10.121 v 4.832 l 3.695,-1.199 c -1.242,-1.215 -2.461,-2.411 -3.695,-3.633 M 546.883,470.16 535,474.016 v 89.492 l 29.629,-9.61 C 561.578,533.035 560,511.695 560,490 c 0,-2.59 0.023,-5.164 0.066,-7.746 -4.453,-3.977 -8.839,-8 -13.183,-12.094 m 906.227,0.004 c -4.34,4.094 -8.72,8.117 -13.18,12.094 0.05,2.582 0.07,5.152 0.07,7.742 0,21.695 -1.58,43.035 -4.63,63.895 l 38.58,12.511 c 0.37,-2.273 0.72,-4.582 1.05,-6.867 v -82.273 l -21.89,-7.102 m -928.11,7.102 -4.871,1.582 C 520.043,482.547 520,486.277 520,490 c 0,23.625 1.703,46.828 5,69.539 V 477.266 M 566.207,563.895 535,574.016 v 35.511 c 4.699,18.34 10.449,36.235 17.191,53.657 l 38.223,-12.395 C 579.5,623.078 571.316,594 566.207,563.895 m 867.583,0.003 c -5.11,30.11 -13.29,59.176 -24.21,86.891 l 38.23,12.395 c 10.75,-27.786 18.99,-56.797 24.44,-86.813 l -38.46,-12.473" /><path
         id="path84"
         style="fill:#518ca8;fill-opacity:1;fill-rule:nonzero;stroke:none"
         d="m 1477.96,445.473 c -0.99,1.035 -1.97,2.054 -2.96,3.082 v 18.191 l -13.69,-4.437 c -2.71,2.64 -5.45,5.261 -8.2,7.855 l 21.89,7.102 v 82.273 c 3.3,-22.711 5,-45.914 5,-69.539 0,-15.016 -0.69,-29.863 -2.04,-44.527 M 525,448.555 v 18.191 l -4.516,1.465 c -0.156,3.539 -0.277,7.078 -0.355,10.637 L 525,477.266 v 82.273 c 2.461,16.953 5.816,33.656 10,49.988 v -35.511 l 31.207,-10.121 c -0.566,-3.325 -1.09,-6.653 -1.578,-9.997 L 535,563.508 v -89.492 l 11.883,-3.856 c -2.75,-2.594 -5.481,-5.211 -8.188,-7.851 L 535,463.508 v -4.832 c -3.367,-3.34 -6.703,-6.715 -10,-10.121 m 910.37,105.34 c -0.49,3.347 -1.01,6.679 -1.58,10.003 l 38.46,12.473 c 0.6,-3.305 1.17,-6.633 1.7,-9.965 l -38.58,-12.511" /><path
         id="path86"
         style="fill:#3c687b;fill-opacity:1;fill-rule:nonzero;stroke:none"
         d="m 1467.63,381.262 c -10.65,12.73 -21.83,25.035 -33.49,36.883 1.99,12.105 3.49,24.39 4.48,36.804 l 22.69,7.36 c 4.62,-4.512 9.2,-9.11 13.69,-13.754 v -28.094 c -1.92,-13.234 -4.39,-26.336 -7.37,-39.199 m -28.29,84.433 c 0.3,5.496 0.5,11.016 0.59,16.563 4.46,-3.977 8.84,-8 13.18,-12.094 l -13.77,-4.469" /><path
         id="path88"
         style="fill:#436a7b;fill-opacity:1;fill-rule:nonzero;stroke:none"
         d="m 1475,420.461 v 28.094 c 0.99,-1.028 1.97,-2.047 2.96,-3.082 -0.77,-8.407 -1.76,-16.735 -2.96,-25.012 m -36.38,34.488 c 0.28,3.571 0.52,7.153 0.72,10.746 l 13.77,4.469 c 2.75,-2.594 5.49,-5.215 8.2,-7.855 l -22.69,-7.36" /><path
         id="path90"
         style="fill:#3c687b;fill-opacity:1;fill-rule:nonzero;stroke:none"
         d="m 535,384.578 v 74.098 c 1.234,1.222 2.453,2.418 3.695,3.633 l 22.688,-7.36 c 0.976,-12.355 2.469,-24.566 4.453,-36.617 C 555.113,407.449 544.82,396.18 535,384.578 m -10,35.883 c -1.199,8.273 -2.187,16.602 -2.961,25.012 0.973,1.019 1.981,2.066 2.961,3.082 v -28.094 m 35.664,45.23 -13.781,4.469 c 4.344,4.094 8.73,8.117 13.183,12.094 0.098,-5.543 0.297,-11.07 0.598,-16.563" /><path
         id="path92"
         style="fill:#436a7b;fill-opacity:1;fill-rule:nonzero;stroke:none"
         d="m 532.336,381.41 c -2.965,12.82 -5.422,25.86 -7.336,39.051 v 28.094 c 3.297,3.406 6.633,6.781 10,10.121 v -74.098 c -0.898,-1.058 -1.777,-2.101 -2.664,-3.168 m 29.047,73.539 -22.688,7.36 c 2.707,2.64 5.438,5.257 8.188,7.851 l 13.781,-4.469 c 0.195,-3.593 0.438,-7.171 0.719,-10.742" /><path
         id="path94"
         style="fill:#1e1a1a;fill-opacity:1;fill-rule:nonzero;stroke:none"
         d="m 1467.61,381.164 c -10.67,12.746 -21.84,25.027 -33.49,36.859 0,0.043 0.01,0.079 0.02,0.122 11.66,-11.848 22.84,-24.153 33.49,-36.883 -0.01,-0.047 -0.01,-0.051 -0.02,-0.098" /><path
         id="path96"
         style="fill:#1e1a1a;fill-opacity:1;fill-rule:nonzero;stroke:none"
         d="m 532.391,381.164 c -0.02,0.09 -0.036,0.156 -0.055,0.246 0.887,1.067 1.766,2.11 2.664,3.168 9.82,11.602 20.113,22.871 30.836,33.754 0.016,-0.098 0.031,-0.211 0.051,-0.309 -11.66,-11.832 -22.824,-24.117 -33.496,-36.859" /><path
         id="path98"
         style="fill:#1e1a1a;fill-opacity:1;fill-rule:nonzero;stroke:none"
         d="m 1461.42,357.305 c -10.14,12.715 -20.8,25.008 -31.94,36.836 1.76,7.886 3.31,15.843 4.64,23.882 11.65,-11.832 22.82,-24.113 33.49,-36.859 -1.86,-8.023 -3.93,-15.996 -6.19,-23.859 m -922.842,0 c -2.258,7.863 -4.324,15.832 -6.187,23.859 10.672,12.742 21.836,25.027 33.496,36.859 1.328,-8.043 2.871,-15.996 4.629,-23.882 -11.137,-11.828 -21.797,-24.121 -31.938,-36.836" /><path
         id="path100"
         style="fill:#ecb038;fill-opacity:1;fill-rule:nonzero;stroke:none"
         d="m 1000,55 c -239.859,0 -435,195.137 -435,435 0,239.859 195.141,435 435,435 239.86,0 435,-195.141 435,-435 0,-239.863 -195.14,-435 -435,-435" /><path
         id="path102"
         style="fill:#211d1d;fill-opacity:1;fill-rule:nonzero;stroke:none"
         d="M 1000,930 C 757.383,930 560,732.617 560,490 560,247.383 757.383,50 1000,50 c 242.62,0 440,197.383 440,440 0,242.617 -197.38,440 -440,440 m 0,-10 c 237.48,0 430,-192.52 430,-430 0,-237.48 -192.52,-430 -430,-430 -237.48,0 -430,192.52 -430,430 0,237.48 192.52,430 430,430" /><path
         id="path104"
         style="fill:#e5f6fa;fill-opacity:1;fill-rule:nonzero;stroke:none"
         d="m 1000,105 c -212.289,0 -385,172.715 -385,385 0,212.289 172.711,385 385,385 212.29,0 385,-172.711 385,-385 0,-212.285 -172.71,-385 -385,-385" /><path
         id="path106"
         style="fill:#d48f1a;fill-opacity:1;fill-rule:nonzero;stroke:none"
         d="M 1000,880 C 784.949,880 610,705.051 610,490 c 0,-215.051 174.949,-390 390,-390 215.05,0 390,174.949 390,390 0,215.051 -174.95,390 -390,390 m 0,-10 c 209.86,0 380,-170.133 380,-380 0,-209.863 -170.14,-380 -380,-380 -209.867,0 -380,170.137 -380,380 0,209.867 170.133,380 380,380" /><path
         id="path108"
         style="fill:#ffffff;fill-opacity:1;fill-rule:nonzero;stroke:none"
         d="M 1236.96,786.965 C 1288.89,721.977 1320,639.645 1320,550 1320,340.137 1149.86,170 940,170 850.355,170 768.023,201.113 703.035,253.035 772.672,165.891 879.773,110 1000,110 c 209.86,0 380,170.137 380,380 0,120.227 -55.89,227.328 -143.04,296.965" /><path
         id="path110"
         style="fill:#c3ced0;fill-opacity:1;fill-rule:nonzero;stroke:none"
         d="m 733.363,219.379 c -69.101,68.059 -112.297,162.332 -113.343,266.734 0,0.016 0,0.028 0,0.039 0,0.106 -0.004,0.196 -0.004,0.301 0,0.012 0,0.043 0,0.055 0,0.094 0,0.191 -0.004,0.289 0,0.012 0,0.043 0,0.055 0,0.113 0,0.214 0,0.324 0,0.012 0,0 0,0.012 -0.004,0.234 -0.004,0.457 -0.004,0.691 0,0.012 0,0.043 -0.004,0.055 0,0.093 0,0.183 0,0.277 0,0.039 0,0.059 0,0.098 0,0.078 0,0.156 0,0.238 0,0.039 0,0.07 0,0.109 0,0.074 0,0.145 0,0.219 0,0.039 -0.004,0.086 -0.004,0.121 0,0.082 0,0.145 0,0.223 0,0.039 0,0.074 0,0.113 0,0.074 0,0.164 0,0.238 0,0.024 0,0.071 0,0.098 0,0.109 0,0.223 0,0.332 v 0 c 0,209.867 170.133,380 380,380 0.11,0 0.22,0 0.33,0 0.03,0 0.07,0 0.1,0 0.07,0 0.16,0 0.24,0 0.04,0 0.07,0 0.11,0 0.08,0 0.14,0 0.22,0 0.04,0 0.09,0 0.12,0 0.08,-0.004 0.15,-0.004 0.22,-0.004 0.04,0 0.08,0 0.11,0 0.08,0 0.16,0 0.24,0 0.04,0 0.06,0 0.1,0 0.09,0 0.18,0 0.28,0 0.01,0 0.04,-0.004 0.05,-0.004 0.24,0 0.46,0 0.69,-0.004 0.02,0 0,0 0.02,0 0.11,0 0.21,0 0.32,0 0.01,0 0.04,0 0.05,0 0.1,-0.004 0.2,-0.004 0.29,-0.004 0.01,0 0.05,0 0.06,0 0.1,0 0.19,-0.004 0.3,-0.004 0.01,0 0.02,0 0.04,0 104.25,-1.046 198.4,-44.121 266.43,-113.042 -10.51,10.644 -21.66,20.675 -33.36,30.027 8.95,-11.195 17.27,-22.906 24.93,-35.074 C 1203.4,788.68 1134.21,810 1060,810 c -2.79,0 -5.57,-0.031 -8.35,-0.09 -0.74,0.75 -1.71,1.278 -2.83,1.445 -6.56,0.989 -13.18,1.782 -19.86,2.372 -0.15,0.015 -0.3,0.019 -0.45,0.019 -2.56,0 -4.74,-1.957 -4.97,-4.558 -0.03,-0.309 -0.03,-0.618 0,-0.915 -0.19,-0.019 -0.38,-0.035 -0.57,-0.054 v 23.734 l 6.09,1.172 V 840 h -6.09 -17.46 v -6.875 l 6.09,-1.172 v -25.008 c -1.04,-0.129 -2.09,-0.269 -3.12,-0.41 L 988.398,840 h -11.406 -6.054 v -6.875 l 6.054,-1.172 v -17.754 c -2.664,-0.187 -5.316,-0.406 -7.965,-0.656 -2.746,-0.262 -4.765,-2.699 -4.504,-5.449 0.243,-2.586 2.422,-4.528 4.969,-4.528 0.16,0 0.317,0.004 0.477,0.024 2.336,0.219 4.676,0.414 7.023,0.582 v -3.266 C 836.168,769.527 724.801,660.012 690.77,520.203 h -7.606 l -1.715,-6.269 c -0.195,0.035 -0.398,0.058 -0.601,0.07 -0.098,0.008 -0.2,0.008 -0.297,0.008 -2.629,0 -4.832,-2.047 -4.988,-4.707 -0.368,-6.27 -0.555,-12.586 -0.563,-18.946 l -2.5,-9.136 -0.234,0.039 -6.524,31.172 5.196,0.894 v 6.875 H 650 v -6.875 l 4.648,-0.586 11.602,-49.414 h 10.586 l 6.098,21.949 c 0.492,0.356 0.918,0.801 1.25,1.309 -1.563,-10.477 -2.7,-21.106 -3.391,-31.848 -2.16,-0.765 -3.578,-2.957 -3.281,-5.328 0.691,-5.566 1.527,-11.09 2.5,-16.566 C 680.004,431.898 680,430.949 680,430 c 0,-74.207 21.32,-143.398 58.109,-201.891 -12.168,7.657 -23.879,15.985 -35.074,24.926 9.442,-11.812 19.57,-23.051 30.328,-33.656 m -43.953,352.98 c -2.242,0 -4.285,-1.519 -4.847,-3.793 -1.602,-6.445 -3.008,-12.968 -4.219,-19.558 -0.496,-2.715 1.301,-5.32 4.015,-5.82 0.305,-0.055 0.61,-0.083 0.911,-0.083 2.367,0 4.468,1.688 4.91,4.098 1.172,6.387 2.535,12.707 4.086,18.953 0.668,2.68 -0.969,5.391 -3.649,6.059 -0.402,0.098 -0.808,0.144 -1.207,0.144 m 19.512,55.762 c -1.899,0 -3.711,-1.082 -4.551,-2.918 -2.773,-6.058 -5.367,-12.215 -7.777,-18.469 -0.992,-2.574 0.293,-5.468 2.871,-6.461 0.59,-0.226 1.199,-0.335 1.797,-0.335 2.008,0 3.902,1.218 4.668,3.207 2.332,6.054 4.843,12.023 7.535,17.894 1.148,2.512 0.047,5.477 -2.465,6.629 -0.676,0.309 -1.383,0.453 -2.078,0.453 m 29.453,51.18 c -1.57,0 -3.117,-0.738 -4.094,-2.117 -3.84,-5.446 -7.523,-11.016 -11.031,-16.704 -1.453,-2.351 -0.723,-5.429 1.629,-6.882 0.816,-0.504 1.723,-0.746 2.621,-0.746 1.676,0 3.313,0.843 4.258,2.375 3.402,5.511 6.969,10.91 10.695,16.191 1.594,2.258 1.055,5.375 -1.199,6.969 -0.879,0.617 -1.887,0.914 -2.879,0.914 m 38.313,44.902 c -1.258,0 -2.516,-0.473 -3.489,-1.422 -4.777,-4.652 -9.41,-9.453 -13.894,-14.394 -1.856,-2.043 -1.703,-5.207 0.34,-7.063 0.96,-0.867 2.164,-1.297 3.363,-1.297 1.359,0 2.715,0.551 3.703,1.641 4.344,4.785 8.836,9.441 13.469,13.953 1.976,1.926 2.019,5.094 0.09,7.07 -0.977,1.004 -2.282,1.512 -3.582,1.512 m 45.855,37.133 c -0.953,0 -1.918,-0.273 -2.77,-0.844 -5.55,-3.707 -10.98,-7.574 -16.281,-11.605 -2.199,-1.672 -2.625,-4.809 -0.957,-7.008 0.985,-1.293 2.477,-1.973 3.985,-1.973 1.054,0 2.121,0.332 3.023,1.02 5.141,3.906 10.402,7.66 15.781,11.25 2.297,1.531 2.914,4.637 1.383,6.933 -0.965,1.446 -2.547,2.227 -4.164,2.227 m 51.863,28.082 c -0.656,0 -1.32,-0.133 -1.961,-0.406 -6.14,-2.621 -12.183,-5.426 -18.125,-8.41 -2.465,-1.239 -3.461,-4.247 -2.222,-6.711 0.879,-1.75 2.64,-2.758 4.472,-2.758 0.754,0 1.52,0.172 2.239,0.531 5.757,2.891 11.613,5.609 17.562,8.152 2.539,1.086 3.719,4.024 2.637,6.563 -0.813,1.898 -2.66,3.039 -4.602,3.039 m 56.199,18.039 c -0.355,0 -0.718,-0.039 -1.082,-0.121 -6.543,-1.445 -13.007,-3.09 -19.39,-4.922 -2.656,-0.762 -4.192,-3.531 -3.43,-6.187 0.633,-2.192 2.633,-3.622 4.805,-3.622 0.457,0 0.922,0.067 1.383,0.196 6.187,1.777 12.453,3.371 18.789,4.769 2.699,0.598 4.398,3.27 3.804,5.965 -0.515,2.332 -2.586,3.922 -4.879,3.922 M 685.004,491.832 c 0.004,0.309 0.004,0.617 0.008,0.926 l 0.371,1.328 c -0.129,-0.746 -0.254,-1.508 -0.379,-2.254 m 303.394,311.434 v 1.523 c 0.309,0.012 0.614,0.024 0.922,0.031 2.762,0.094 4.922,2.407 4.832,5.164 -0.089,2.704 -2.308,4.836 -4.996,4.836 -0.054,0 -0.109,0 -0.168,-0.004 -0.195,-0.007 -0.394,-0.011 -0.59,-0.019 v 6.57 l 0.235,0.039 9.82,-16.363 c -3.367,-0.551 -6.719,-1.145 -10.055,-1.777" /><path
         id="path112"
         style="fill:#b77d20;fill-opacity:1;fill-rule:nonzero;stroke:none"
         d="m 620.02,486.113 c 0,0.016 0,0.028 0,0.039 0,-0.011 0,-0.023 0,-0.039 m -0.004,0.34 c 0,0.012 0,0.039 0,0.055 0,-0.012 0,-0.043 0,-0.055 m -0.004,0.344 c 0,0.019 0,0.035 0,0.055 0,-0.012 0,-0.043 0,-0.055 m 0,0.379 v 0.012 c 0,-0.012 0,0 0,-0.012 m -0.004,0.703 c 0,0.016 0,0.039 -0.004,0.055 0.004,-0.012 0.004,-0.043 0.004,-0.055 m -0.004,0.332 c 0,0.027 0,0.066 0,0.098 0,-0.039 0,-0.059 0,-0.098 m 0,0.336 c 0,0.035 0,0.074 0,0.109 0,-0.039 0,-0.07 0,-0.109 m 0,0.328 c 0,0.035 -0.004,0.086 -0.004,0.121 0,-0.035 0.004,-0.082 0.004,-0.121 M 620,489.219 c 0,0.039 0,0.078 0,0.113 0,-0.039 0,-0.074 0,-0.113 m 0,0.351 c 0,0.035 0,0.059 0,0.098 0,-0.027 0,-0.074 0,-0.098 m 0,0.43 v 0 0 0 m 383.89,379.98 c -0.02,0 -0.03,0 -0.04,0 0.01,0 0.02,0 0.04,0 m -0.34,0.004 c -0.01,0 -0.05,0 -0.06,0 0.02,0 0.04,0 0.06,0 m -0.35,0.004 c -0.01,0 -0.04,0 -0.05,0 0.02,0 0.03,0 0.05,0 m -0.37,0 c -0.02,0 0,0 -0.02,0 h 0.02 m -0.71,0.004 c -0.01,0 -0.04,0.004 -0.05,0.004 0.01,0 0.04,-0.004 0.05,-0.004 m -0.33,0.004 c -0.04,0 -0.06,0 -0.1,0 0.03,0 0.07,0 0.1,0 m -0.34,0 c -0.03,0 -0.07,0 -0.11,0 0.04,0 0.08,0 0.11,0 m -0.33,0.004 c -0.03,0 -0.08,0 -0.12,0 0.04,0 0.09,0 0.12,0 m -0.34,0 c -0.04,0 -0.07,0 -0.11,0 0.03,0 0.07,0 0.11,0 m -0.35,0 c -0.03,0 -0.07,0 -0.1,0 0.04,0 0.06,0 0.1,0" /><path
         id="path114"
         style="fill:#d9d5d4;fill-opacity:1;fill-rule:nonzero;stroke:none"
         d="m 763.035,193.035 c -10.344,8.27 -20.25,17.063 -29.672,26.344 -10.758,10.605 -20.886,21.844 -30.328,33.656 11.195,-8.941 22.906,-17.269 35.074,-24.926 7.657,-12.168 15.985,-23.879 24.926,-35.074 m 533.925,533.93 c -11.19,8.941 -22.9,17.269 -35.07,24.926 -7.66,12.168 -15.98,23.879 -24.93,35.074 11.7,-9.352 22.85,-19.383 33.36,-30.027 9.4,-9.512 18.29,-19.516 26.64,-29.973" /><path
         id="path116"
         style="fill:#68c0d4;fill-opacity:1;fill-rule:nonzero;stroke:none"
         d="m 1000,740 -4.863,1.168 L 934.859,490 1000,218.574 1065.14,490 1000,761.426 995.137,741.168 1000,740 995.137,738.832 1054.86,490 1000,261.426 945.141,490 1004.86,738.832 1000,740 995.137,738.832 1000,740" /><path
         id="path118"
         style="fill:#68c0d4;fill-opacity:1;fill-rule:nonzero;stroke:none"
         d="m 1134.35,624.352 -2.31,4.433 -178.177,-92.652 -99.957,-192.219 192.234,99.957 99.95,192.219 -14.05,-7.305 2.31,-4.433 -4.44,2.304 -91.19,-175.371 -161.329,-83.89 83.89,161.324 175.369,91.195 -2.3,4.438 -4.44,2.304 4.44,-2.304" /><path
         id="path120"
         style="fill:#68c0d4;fill-opacity:1;fill-rule:nonzero;stroke:none"
         d="m 865.648,624.352 -4.433,-2.309 92.648,-178.184 192.227,-99.945 -99.96,192.219 -192.22,99.957 7.305,-14.047 4.433,2.309 -2.304,-4.438 175.366,-91.195 83.89,-161.324 -161.319,83.882 -91.195,175.379 -4.438,-2.304 -2.304,-4.438 2.304,4.438" /><path
         id="path122"
         style="fill:#68c0d4;fill-opacity:1;fill-rule:nonzero;stroke:none"
         d="M 750,490 748.832,485.137 1000,424.859 1271.43,490 1000,555.141 728.574,490 748.832,485.137 750,490 751.168,485.137 1000,544.859 1228.57,490 1000,435.141 751.168,494.863 750,490 751.168,485.137 750,490" /><path
         id="path124"
         style="fill:#ade4e7;fill-opacity:1;fill-rule:nonzero;stroke:none"
         d="m 1309.7,432.145 c -1.19,-6.383 -2.56,-12.7 -4.13,-18.946 -0.67,-2.676 0.96,-5.39 3.64,-6.062 2.68,-0.672 5.39,0.957 6.06,3.633 1.62,6.445 3.04,12.96 4.26,19.55 0.5,2.715 -1.29,5.325 -4,5.828 -2.72,0.504 -5.33,-1.289 -5.83,-4.003 m -15.87,-55.907 c -2.34,-6.05 -4.87,-12.011 -7.57,-17.879 -1.16,-2.507 -0.06,-5.476 2.45,-6.632 2.51,-1.157 5.48,-0.059 6.63,2.449 2.79,6.051 5.4,12.203 7.82,18.449 0.99,2.574 -0.28,5.473 -2.86,6.469 -2.57,1 -5.47,-0.281 -6.47,-2.856 v 0 m -25.94,-52.027 c -3.41,-5.508 -6.99,-10.898 -10.73,-16.168 -1.6,-2.254 -1.06,-5.375 1.19,-6.973 2.25,-1.597 5.37,-1.062 6.97,1.188 3.85,5.437 7.55,11.004 11.07,16.68 1.45,2.347 0.73,5.429 -1.61,6.886 -2.35,1.453 -5.43,0.735 -6.89,-1.613 m -35.05,-46.367 c -4.36,-4.778 -8.86,-9.422 -13.5,-13.926 -1.98,-1.922 -2.03,-5.09 -0.1,-7.07 1.92,-1.981 5.09,-2.028 7.07,-0.106 4.78,4.645 9.43,9.434 13.92,14.363 1.86,2.043 1.72,5.204 -0.32,7.067 -2.05,1.859 -5.21,1.715 -7.07,-0.328 v 0 m -42.91,-39.168 c -5.15,-3.895 -10.42,-7.637 -15.81,-11.215 -2.3,-1.531 -2.92,-4.633 -1.4,-6.934 1.53,-2.3 4.64,-2.925 6.94,-1.398 5.55,3.695 10.99,7.555 16.3,11.574 2.2,1.664 2.64,4.805 0.97,7.004 -1.67,2.203 -4.8,2.637 -7,0.969 m -49.34,-30.637 c -5.76,-2.879 -11.62,-5.586 -17.57,-8.113 -2.55,-1.078 -3.73,-4.016 -2.65,-6.559 1.08,-2.539 4.01,-3.726 6.55,-2.648 6.15,2.609 12.2,5.406 18.14,8.375 2.47,1.234 3.48,4.238 2.24,6.707 -1.23,2.472 -4.24,3.472 -6.71,2.238 m -54.12,-21.023 c -6.19,-1.762 -12.46,-3.34 -18.8,-4.731 -2.7,-0.59 -4.41,-3.258 -3.82,-5.953 0.6,-2.695 3.26,-4.406 5.96,-3.816 6.54,1.433 13.01,3.062 19.4,4.882 2.66,0.758 4.2,3.524 3.44,6.18 -0.76,2.656 -3.52,4.195 -6.18,3.438 m -57.1,-10.664 c -6.4,-0.59 -12.85,-0.993 -19.36,-1.196 -2.76,-0.086 -4.92,-2.394 -4.84,-5.152 0.09,-2.762 2.4,-4.93 5.16,-4.844 6.7,0.211 13.36,0.621 19.96,1.235 2.75,0.253 4.77,2.687 4.52,5.437 -0.26,2.75 -2.69,4.773 -5.44,4.52 m -58.108,-0.059 c -6.477,0.586 -12.895,1.367 -19.246,2.34 -2.731,0.414 -5.282,-1.461 -5.7,-4.188 -0.418,-2.73 1.457,-5.281 4.188,-5.699 6.559,-1.004 13.18,-1.808 19.855,-2.41 2.75,-0.25 5.184,1.777 5.434,4.527 0.246,2.75 -1.781,5.18 -4.531,5.43 m -57.125,10.551 c -6.242,1.761 -12.407,3.715 -18.485,5.847 -2.605,0.914 -5.461,-0.457 -6.375,-3.058 -0.914,-2.61 0.457,-5.461 3.063,-6.375 6.273,-2.203 12.637,-4.215 19.078,-6.039 2.656,-0.75 5.418,0.797 6.172,3.453 0.75,2.656 -0.797,5.422 -3.453,6.172 m -54.207,20.933 c -5.809,2.887 -11.512,5.95 -17.106,9.176 -2.39,1.379 -5.449,0.559 -6.832,-1.832 -1.379,-2.391 -0.558,-5.449 1.836,-6.828 5.774,-3.332 11.656,-6.488 17.649,-9.469 2.472,-1.23 5.472,-0.222 6.703,2.25 1.23,2.473 0.222,5.473 -2.25,6.703 m -49.438,30.582 c -5.168,3.899 -10.211,7.95 -15.121,12.153 -2.098,1.793 -5.254,1.547 -7.051,-0.551 -1.793,-2.102 -1.547,-5.254 0.551,-7.051 5.067,-4.336 10.27,-8.515 15.602,-12.535 2.203,-1.664 5.34,-1.223 7,0.98 1.664,2.204 1.222,5.34 -0.981,7.004 m -42.988,39.106 c -4.359,4.765 -8.578,9.668 -12.641,14.699 -1.734,2.149 -4.883,2.481 -7.031,0.746 -2.148,-1.734 -2.484,-4.883 -0.746,-7.031 4.191,-5.191 8.539,-10.246 13.039,-15.164 1.863,-2.039 5.027,-2.18 7.066,-0.317 2.036,1.864 2.176,5.028 0.313,7.067 m -35.106,46.277 c -3.41,5.477 -6.656,11.063 -9.726,16.754 -1.317,2.43 -4.348,3.332 -6.777,2.024 -2.43,-1.317 -3.336,-4.348 -2.024,-6.778 3.172,-5.875 6.52,-11.637 10.039,-17.285 1.457,-2.344 4.543,-3.062 6.887,-1.602 2.344,1.461 3.058,4.543 1.601,6.887 m -26,51.903 c -2.339,6.003 -4.5,12.097 -6.476,18.273 -0.844,2.629 -3.656,4.078 -6.285,3.238 -2.633,-0.84 -4.082,-3.656 -3.242,-6.285 2.043,-6.375 4.273,-12.66 6.687,-18.859 1.004,-2.571 3.902,-3.844 6.473,-2.84 2.574,1 3.847,3.898 2.843,6.473 m -15.976,55.847 c -1.188,6.321 -2.184,12.707 -2.988,19.156 -0.34,2.739 -2.84,4.684 -5.579,4.344 -2.742,-0.344 -4.687,-2.84 -4.343,-5.582 0.828,-6.652 1.859,-13.242 3.082,-19.762 0.511,-2.714 3.125,-4.503 5.836,-3.992 2.715,0.508 4.504,3.121 3.992,5.836 M 685,489.336 V 490 c 0,6.285 0.184,12.527 0.547,18.723 0.16,2.754 -1.942,5.121 -4.699,5.281 -2.758,0.164 -5.121,-1.941 -5.285,-4.699 C 675.191,502.918 675,496.48 675,490 v -0.684 c 0.008,-2.761 2.25,-4.996 5.012,-4.992 2.761,0.008 4.996,2.25 4.988,5.012 m 5.18,57.867 c 1.172,6.387 2.535,12.707 4.086,18.953 0.668,2.68 -0.969,5.391 -3.649,6.059 -2.679,0.664 -5.39,-0.969 -6.054,-3.649 -1.602,-6.445 -3.008,-12.968 -4.219,-19.558 -0.496,-2.715 1.301,-5.32 4.015,-5.82 2.715,-0.497 5.325,1.3 5.821,4.015 m 15.75,55.942 c 2.332,6.054 4.843,12.023 7.535,17.894 1.148,2.512 0.047,5.477 -2.465,6.629 -2.512,1.148 -5.48,0.047 -6.629,-2.465 -2.773,-6.058 -5.367,-12.215 -7.777,-18.469 -0.992,-2.574 0.293,-5.468 2.871,-6.461 2.578,-0.992 5.473,0.293 6.465,2.872 m 25.828,52.082 c 3.402,5.511 6.969,10.91 10.695,16.191 1.594,2.258 1.055,5.375 -1.199,6.969 -2.258,1.59 -5.379,1.054 -6.973,-1.203 -3.84,-5.446 -7.523,-11.016 -11.031,-16.704 -1.453,-2.351 -0.723,-5.429 1.629,-6.882 2.348,-1.45 5.43,-0.719 6.879,1.629 m 34.953,46.441 c 4.344,4.785 8.836,9.441 13.469,13.953 1.976,1.926 2.019,5.094 0.09,7.07 -1.926,1.977 -5.09,2.02 -7.071,0.09 -4.777,-4.652 -9.41,-9.453 -13.894,-14.394 -1.856,-2.043 -1.703,-5.207 0.34,-7.063 2.046,-1.855 5.207,-1.703 7.066,0.344 m 42.832,39.258 c 5.141,3.906 10.402,7.66 15.781,11.25 2.297,1.531 2.914,4.637 1.383,6.933 -1.531,2.297 -4.637,2.914 -6.934,1.383 -5.55,-3.707 -10.98,-7.574 -16.281,-11.605 -2.199,-1.672 -2.625,-4.809 -0.957,-7.008 1.672,-2.199 4.809,-2.625 7.008,-0.953 m 49.266,30.738 c 5.757,2.891 11.613,5.609 17.562,8.152 2.539,1.086 3.719,4.024 2.637,6.563 -1.086,2.539 -4.024,3.719 -6.563,2.633 -6.14,-2.621 -12.183,-5.426 -18.125,-8.41 -2.465,-1.239 -3.461,-4.247 -2.222,-6.711 1.238,-2.469 4.246,-3.465 6.711,-2.227 m 54.082,21.137 c 6.187,1.777 12.453,3.371 18.789,4.769 2.699,0.598 4.398,3.27 3.804,5.965 -0.597,2.695 -3.265,4.399 -5.961,3.801 -6.543,-1.445 -13.007,-3.09 -19.39,-4.922 -2.656,-0.762 -4.192,-3.531 -3.43,-6.187 0.766,-2.653 3.535,-4.188 6.188,-3.426 m 57.078,10.789 c 6.398,0.601 12.851,1.015 19.351,1.23 2.762,0.094 4.922,2.407 4.832,5.164 -0.093,2.762 -2.402,4.926 -5.164,4.832 -6.707,-0.222 -13.359,-0.648 -19.961,-1.273 -2.746,-0.262 -4.765,-2.699 -4.504,-5.449 0.258,-2.75 2.7,-4.766 5.446,-4.504 m 58.111,0.176 c 6.47,-0.571 12.89,-1.34 19.25,-2.297 2.73,-0.41 5.28,1.469 5.69,4.199 0.41,2.73 -1.47,5.277 -4.2,5.687 -6.56,0.989 -13.18,1.782 -19.86,2.372 -2.75,0.242 -5.18,-1.789 -5.42,-4.539 -0.25,-2.75 1.79,-5.18 4.54,-5.422 m 57.14,-10.43 c 6.25,-1.75 12.42,-3.688 18.5,-5.809 2.61,-0.91 5.46,0.465 6.37,3.075 0.91,2.609 -0.47,5.457 -3.08,6.367 -6.28,2.187 -12.64,4.187 -19.09,5.996 -2.66,0.746 -5.42,-0.805 -6.16,-3.465 -0.75,-2.656 0.8,-5.418 3.46,-6.164 v 0 m 54.26,-20.82 c 5.81,-2.871 11.52,-5.922 17.12,-9.137 2.4,-1.375 5.45,-0.551 6.83,1.848 1.37,2.394 0.54,5.449 -1.85,6.824 -5.78,3.316 -11.67,6.465 -17.67,9.429 -2.48,1.223 -5.47,0.211 -6.7,-2.265 -1.22,-2.473 -0.21,-5.473 2.27,-6.699 m 49.5,-30.473 c 5.17,-3.891 10.22,-7.93 15.14,-12.121 2.11,-1.789 5.26,-1.539 7.05,0.562 1.79,2.106 1.54,5.258 -0.56,7.051 -5.08,4.324 -10.29,8.492 -15.63,12.5 -2.21,1.66 -5.34,1.215 -7,-0.992 -1.66,-2.207 -1.21,-5.344 1,-7 m 43.07,-39.016 c 4.37,-4.757 8.59,-9.652 12.67,-14.675 1.74,-2.145 4.89,-2.469 7.03,-0.731 2.15,1.738 2.47,4.891 0.73,7.031 -4.2,5.184 -8.56,10.231 -13.07,15.141 -1.87,2.031 -5.03,2.168 -7.06,0.297 -2.04,-1.867 -2.17,-5.031 -0.3,-7.063 m 35.2,-46.207 c 3.42,-5.468 6.68,-11.047 9.76,-16.73 1.32,-2.43 4.36,-3.328 6.78,-2.012 2.43,1.32 3.33,4.356 2.01,6.781 -3.18,5.868 -6.54,11.625 -10.07,17.266 -1.47,2.34 -4.55,3.051 -6.89,1.586 -2.34,-1.465 -3.05,-4.551 -1.59,-6.891 m 26.11,-51.847 c 2.35,-5.996 4.53,-12.086 6.52,-18.258 0.84,-2.629 3.66,-4.074 6.29,-3.227 2.63,0.848 4.07,3.664 3.22,6.293 -2.05,6.371 -4.29,12.653 -6.72,18.844 -1.01,2.57 -3.91,3.836 -6.48,2.828 -2.57,-1.008 -3.84,-3.91 -2.83,-6.48 v 0 m 16.09,-55.813 c 1.2,-6.32 2.22,-12.703 3.03,-19.148 0.35,-2.742 2.85,-4.68 5.59,-4.332 2.74,0.347 4.68,2.847 4.33,5.586 -0.84,6.652 -1.88,13.242 -3.12,19.761 -0.52,2.711 -3.13,4.493 -5.85,3.977 -2.71,-0.516 -4.49,-3.133 -3.98,-5.844 M 1315,491.328 V 490 c 0,-6.512 -0.2,-12.973 -0.59,-19.383 -0.16,-2.758 1.93,-5.129 4.69,-5.293 2.76,-0.168 5.13,1.93 5.29,4.688 0.41,6.613 0.61,13.277 0.61,19.988 v 1.371 c -0.01,2.762 -2.26,4.988 -5.02,4.977 -2.77,-0.008 -4.99,-2.258 -4.98,-5.02" /><path
         id="path126"
         style="fill:#ade4e7;fill-opacity:1;fill-rule:nonzero;stroke:none"
         d="m 1227.68,431.586 c -1.63,-6.387 -3.53,-12.668 -5.67,-18.832 -0.91,-2.609 0.47,-5.457 3.08,-6.367 2.61,-0.907 5.46,0.472 6.37,3.082 2.23,6.426 4.21,12.976 5.91,19.636 0.69,2.676 -0.93,5.399 -3.6,6.083 -2.68,0.683 -5.4,-0.926 -6.09,-3.602 m -21.67,-54.746 c -3.17,-5.762 -6.58,-11.375 -10.2,-16.828 -1.53,-2.297 -0.91,-5.403 1.39,-6.934 2.3,-1.527 5.4,-0.902 6.93,1.395 3.78,5.683 7.33,11.539 10.64,17.543 1.33,2.418 0.45,5.461 -1.97,6.793 -2.42,1.332 -5.46,0.449 -6.79,-1.969 m -34.63,-47.637 c -4.49,-4.781 -9.18,-9.379 -14.05,-13.773 -2.05,-1.848 -2.22,-5.008 -0.37,-7.063 1.85,-2.051 5.01,-2.211 7.06,-0.363 5.08,4.582 9.97,9.371 14.65,14.355 1.89,2.016 1.79,5.18 -0.23,7.071 -2.01,1.886 -5.17,1.789 -7.06,-0.227 m -45.33,-37.574 c -5.52,-3.516 -11.2,-6.809 -17.02,-9.859 -2.44,-1.286 -3.39,-4.305 -2.1,-6.75 1.28,-2.446 4.3,-3.387 6.75,-2.106 6.06,3.184 11.98,6.613 17.74,10.277 2.33,1.485 3.01,4.575 1.53,6.903 -1.48,2.332 -4.57,3.015 -6.9,1.535 M 1072.82,266.5 c -6.21,-2.023 -12.53,-3.789 -18.94,-5.297 -2.69,-0.629 -4.36,-3.32 -3.73,-6.008 0.63,-2.687 3.32,-4.359 6.01,-3.726 6.69,1.57 13.28,3.414 19.75,5.519 2.63,0.856 4.06,3.676 3.21,6.305 -0.86,2.625 -3.68,4.059 -6.3,3.207 m -57.83,-11.027 C 1010.04,255.16 1005.04,255 1000,255 c -1.562,0 -3.125,0.016 -4.68,0.047 -2.761,0.055 -5.043,-2.141 -5.097,-4.902 -0.055,-2.762 2.14,-5.043 4.898,-5.098 1.625,-0.031 3.25,-0.047 4.879,-0.047 5.25,0 10.46,0.164 15.62,0.488 2.76,0.176 4.85,2.551 4.68,5.305 -0.18,2.758 -2.55,4.852 -5.31,4.68 m -58.771,3.597 c -6.485,1.223 -12.871,2.711 -19.156,4.453 -2.661,0.739 -5.418,-0.824 -6.157,-3.484 -0.734,-2.66 0.824,-5.414 3.485,-6.152 6.55,-1.821 13.214,-3.371 19.976,-4.645 2.715,-0.512 5.328,1.274 5.84,3.988 0.512,2.715 -1.273,5.329 -3.988,5.84 m -56.028,18.114 c -5.953,2.796 -11.773,5.839 -17.441,9.109 -2.391,1.379 -5.449,0.559 -6.828,-1.832 -1.383,-2.391 -0.563,-5.449 1.832,-6.828 5.91,-3.41 11.976,-6.582 18.187,-9.5 2.5,-1.172 5.477,-0.098 6.653,2.398 1.172,2.5 0.097,5.481 -2.403,6.653 m -49.738,31.535 c -5.062,4.179 -9.945,8.566 -14.637,13.148 -1.976,1.93 -5.14,1.895 -7.07,-0.082 -1.93,-1.976 -1.894,-5.14 0.082,-7.07 4.891,-4.777 9.981,-9.352 15.258,-13.707 2.129,-1.762 5.277,-1.461 7.035,0.672 1.762,2.129 1.461,5.277 -0.668,7.039 m -40.383,42.859 c -3.859,5.289 -7.504,10.746 -10.922,16.356 -1.437,2.359 -4.511,3.105 -6.871,1.671 -2.359,-1.437 -3.105,-4.515 -1.672,-6.871 3.567,-5.851 7.368,-11.539 11.391,-17.05 1.629,-2.231 4.758,-2.719 6.984,-1.09 2.235,1.625 2.719,4.754 1.09,6.984 m -28.472,51.504 c -2.418,6.066 -4.59,12.258 -6.504,18.563 -0.801,2.64 -3.594,4.132 -6.235,3.332 -2.644,-0.801 -4.136,-3.594 -3.332,-6.239 1.993,-6.57 4.258,-13.027 6.778,-19.355 1.023,-2.567 3.929,-3.817 6.496,-2.793 2.566,1.019 3.816,3.926 2.797,6.492 m -14.711,56.996 c -0.821,6.453 -1.379,12.988 -1.664,19.598 -0.121,2.758 -2.453,4.898 -5.211,4.781 -2.758,-0.121 -4.899,-2.453 -4.782,-5.215 0.297,-6.883 0.883,-13.695 1.735,-20.426 0.348,-2.738 2.851,-4.679 5.59,-4.328 2.742,0.348 4.679,2.848 4.332,5.59 m -0.121,58.887 c 0.804,6.555 1.882,13.023 3.214,19.402 0.567,2.703 -1.167,5.352 -3.871,5.918 -2.703,0.567 -5.351,-1.168 -5.918,-3.871 -1.39,-6.648 -2.511,-13.398 -3.351,-20.23 -0.336,-2.743 1.613,-5.235 4.355,-5.575 2.739,-0.336 5.235,1.614 5.571,4.356 m 14.484,57.074 c 2.41,6.129 5.07,12.129 7.973,17.992 1.222,2.477 0.207,5.477 -2.266,6.699 -2.477,1.223 -5.477,0.211 -6.699,-2.265 -3.024,-6.113 -5.801,-12.371 -8.317,-18.762 -1.007,-2.57 0.254,-5.473 2.825,-6.484 2.57,-1.012 5.472,0.254 6.484,2.82 m 28.293,51.652 c 3.852,5.321 7.922,10.473 12.195,15.442 1.801,2.094 1.563,5.254 -0.531,7.051 -2.094,1.8 -5.25,1.566 -7.051,-0.532 -4.457,-5.179 -8.695,-10.55 -12.715,-16.093 -1.617,-2.239 -1.117,-5.364 1.118,-6.985 2.238,-1.617 5.363,-1.121 6.984,1.117 m 40.219,43.02 c 5.035,4.191 10.25,8.176 15.629,11.941 2.261,1.586 2.812,4.703 1.23,6.965 -1.586,2.262 -4.703,2.813 -6.965,1.231 -5.605,-3.926 -11.043,-8.082 -16.293,-12.453 -2.121,-1.766 -2.41,-4.918 -0.644,-7.04 1.765,-2.125 4.918,-2.41 7.043,-0.644 m 49.593,31.707 c 5.899,2.801 11.938,5.363 18.094,7.676 2.586,0.969 3.899,3.851 2.926,6.437 -0.969,2.586 -3.852,3.895 -6.437,2.926 -6.422,-2.41 -12.719,-5.082 -18.872,-8.004 -2.496,-1.183 -3.558,-4.168 -2.375,-6.66 1.188,-2.496 4.168,-3.559 6.664,-2.375 m 55.922,18.332 c 6.395,1.23 12.883,2.203 19.453,2.906 2.743,0.293 4.731,2.758 4.438,5.504 -0.293,2.746 -2.758,4.735 -5.5,4.442 -6.852,-0.735 -13.613,-1.747 -20.281,-3.032 -2.711,-0.523 -4.489,-3.144 -3.965,-5.855 0.523,-2.711 3.144,-4.485 5.855,-3.965 m 58.753,3.84 c 6.6,-0.391 13.13,-1.051 19.57,-1.973 2.74,-0.39 5.27,1.508 5.66,4.242 0.39,2.731 -1.51,5.266 -4.24,5.657 -6.72,0.961 -13.52,1.652 -20.4,2.054 -2.76,0.164 -5.12,-1.941 -5.29,-4.695 -0.16,-2.758 1.94,-5.125 4.7,-5.285 m 57.87,-10.789 c 6.27,-2.016 12.44,-4.289 18.47,-6.801 2.55,-1.066 5.47,0.141 6.54,2.688 1.06,2.55 -0.14,5.476 -2.69,6.539 -6.29,2.625 -12.72,4.992 -19.26,7.093 -2.63,0.844 -5.45,-0.601 -6.29,-3.23 -0.85,-2.633 0.6,-5.449 3.23,-6.289 v 0 m 53.36,-24.93 c 5.56,-3.508 10.96,-7.242 16.19,-11.187 2.2,-1.664 5.34,-1.227 7,0.976 1.66,2.203 1.22,5.34 -0.98,7.004 -5.45,4.113 -11.08,8.008 -16.87,11.664 -2.34,1.473 -5.43,0.777 -6.9,-1.558 -1.47,-2.336 -0.78,-5.422 1.56,-6.899 m 45.49,-37.406 c 4.5,-4.762 8.81,-9.715 12.91,-14.844 1.72,-2.156 4.87,-2.508 7.03,-0.781 2.15,1.723 2.51,4.871 0.78,7.027 -4.27,5.344 -8.76,10.504 -13.46,15.473 -1.9,2.004 -5.06,2.09 -7.07,0.195 -2,-1.898 -2.09,-5.062 -0.19,-7.07 m 34.81,-47.481 c 3.17,-5.714 6.12,-11.574 8.82,-17.57 1.13,-2.519 4.09,-3.641 6.61,-2.508 2.52,1.137 3.64,4.098 2.5,6.614 -2.81,6.253 -5.88,12.363 -9.19,18.324 -1.34,2.414 -4.39,3.281 -6.8,1.941 -2.42,-1.344 -3.29,-4.387 -1.94,-6.801 m 21.88,-54.636 c 1.64,-6.309 3.03,-12.719 4.15,-19.223 0.47,-2.723 3.05,-4.551 5.77,-4.078 2.73,0.465 4.55,3.051 4.08,5.773 -1.16,6.782 -2.61,13.469 -4.32,20.047 -0.69,2.672 -3.43,4.274 -6.1,3.578 -2.67,-0.691 -4.27,-3.425 -3.58,-6.097 v 0 M 1235,490.961 V 490 c 0,-6.621 -0.27,-13.176 -0.81,-19.656 -0.23,-2.75 1.82,-5.168 4.57,-5.395 2.75,-0.23 5.17,1.817 5.4,4.571 0.55,6.753 0.84,13.585 0.84,20.48 v 1 c -0.01,2.762 -2.26,4.992 -5.02,4.98 -2.76,-0.011 -4.99,-2.257 -4.98,-5.019" /><path
         id="path128"
         style="fill:#b1e5ea;fill-opacity:1;fill-rule:nonzero;stroke:none"
         d="m 1033.24,580.074 h -0.21 L 1005,682.715 v 15.023 l 28.24,-117.664 m -66.271,0 h -0.207 L 995,697.742 V 682.715 L 966.969,580.074" /><path
         id="path130"
         style="fill:#74cad8;fill-opacity:1;fill-rule:nonzero;stroke:none"
         d="m 1038.36,580.074 h -5.12 L 1005,697.738 V 720 H 995 V 697.742 L 966.762,580.074 h -5.129 l -4.406,2.289 42.773,156.614 42.77,-156.61 -4.41,-2.293" /><path
         id="path132"
         style="fill:#74cad8;fill-opacity:1;fill-rule:nonzero;stroke:none"
         d="m 1038.37,580.074 h -0.01 l 4.41,2.293 v -0.004 l -4.4,-2.289" /><path
         id="path134"
         style="fill:#74cad8;fill-opacity:1;fill-rule:nonzero;stroke:none"
         d="m 1000,241.02 -1.086,3.984 C 999.273,245 999.637,245 1000,245 c 0.36,0 0.73,0 1.09,0.004 L 1000,241.02" /><path
         id="path136"
         style="fill:#b1e5ea;fill-opacity:1;fill-rule:nonzero;stroke:none"
         d="m 995,282.258 -21.621,90.082 0.957,0.609 L 995,297.285 v -15.027 m 10,0.004 v 15.031 l 28.03,102.641 h 0.21 L 1005,282.262" /><path
         id="path138"
         style="fill:#74cad8;fill-opacity:1;fill-rule:nonzero;stroke:none"
         d="m 1000,255 c -1.277,0 -2.555,0.012 -3.824,0.031 l -30.672,112.297 7.875,5.012 L 995,282.258 V 260 h 10 v 22.262 l 28.24,117.672 h 5.11 l 4.42,-2.297 -38.94,-142.606 C 1002.55,255.012 1001.28,255 1000,255" /><path
         id="path140"
         style="fill:#74cad8;fill-opacity:1;fill-rule:nonzero;stroke:none"
         d="m 1042.77,397.637 -4.42,2.297 h 0.01 l 4.41,-2.297 v 0" /><path
         id="path142"
         style="fill:#95dce2;fill-opacity:1;fill-rule:nonzero;stroke:none"
         d="m 1000,245 c -0.363,0 -0.727,0 -1.086,0.004 l -2.738,10.027 c 1.269,-0.019 2.547,-0.031 3.824,-0.031 1.28,0 2.55,0.012 3.83,0.031 l -2.74,-10.027 C 1000.73,245 1000.36,245 1000,245" /><path
         id="path144"
         style="fill:#b1e5ea;fill-opacity:1;fill-rule:nonzero;stroke:none"
         d="m 1047.94,573.781 v 0 l 59.93,31.168 v -0.004 l -59.93,-31.164 m 61.15,43.071 37,19.242 -14.05,-7.309 -22.95,-11.933" /><path
         id="path146"
         style="fill:#74cad8;fill-opacity:1;fill-rule:nonzero;stroke:none"
         d="m 1047.94,573.781 -6.29,6.293 h -3.28 l 4.4,2.289 66.32,34.489 22.95,11.933 14.05,7.305 -9.13,-17.539 -3.93,-2.586 4.85,4.851 -7.07,7.071 -22.94,-22.938 -59.93,-31.168" /><path
         id="path148"
         style="fill:#b1e5ea;fill-opacity:1;fill-rule:nonzero;stroke:none"
         d="m 876.125,355.465 3.07,1.598 v 0 l -3.07,-1.598 m -10.617,10.75 42.031,80.836 v -0.004 l -42.031,-80.832" /><path
         id="path150"
         style="fill:#74cad8;fill-opacity:1;fill-rule:nonzero;stroke:none"
         d="m 853.91,343.914 11.598,22.301 42.031,80.832 4.852,-1.164 3.824,-3.824 -31.164,-59.934 -22.938,-22.934 7.071,-7.074 18.879,18.879 -8.868,-13.933 -3.07,-1.598 -22.215,-11.551" /><path
         id="path152"
         style="fill:#74cad8;fill-opacity:1;fill-rule:nonzero;stroke:none"
         d="m 912.391,445.883 -4.852,1.164 v 0.004 l 0.094,0.179 4.695,-1.285 0.063,-0.062" /><path
         id="path154"
         style="fill:#b1e5ea;fill-opacity:1;fill-rule:nonzero;stroke:none"
         d="m 916.215,537.941 -31.164,59.938 v 0 l 31.168,-59.938 h -0.004 m 35.84,35.84 -5.098,2.653 5.098,-2.653 v 0 m 4.992,8.676 -103.137,53.633 7.305,-14.047 0.461,-0.887 -7.77,14.934 103.141,-53.633 v 0" /><path
         id="path156"
         style="fill:#74cad8;fill-opacity:1;fill-rule:nonzero;stroke:none"
         d="m 961.633,580.074 v 0 l -4.586,2.383 v 0 l 0.18,-0.094 4.406,-2.289" /><path
         id="path158"
         style="fill:#74cad8;fill-opacity:1;fill-rule:nonzero;stroke:none"
         d="m 907.543,532.953 -45.867,88.203 -0.461,0.887 -7.305,14.047 103.137,-53.633 4.586,-2.383 h -3.289 l -6.289,-6.293 -5.098,2.653 -54.836,28.515 -22.937,22.938 -3.536,-3.535 -3.535,-3.536 22.938,-22.937 31.164,-59.938 -3.824,-3.824 -4.848,-1.164" /><path
         id="path160"
         style="fill:#74cad8;fill-opacity:1;fill-rule:nonzero;stroke:none"
         d="m 907.637,532.773 -0.094,0.18 4.848,1.164 -0.059,-0.062 -4.695,-1.282" /><path
         id="path162"
         style="fill:#b1e5ea;fill-opacity:1;fill-rule:nonzero;stroke:none"
         d="m 1146.09,343.914 -53.63,103.133 v 0 l 53.63,-103.133 m -38.21,31.137 -59.94,31.168 v 0 l 59.93,-31.164 0.01,-0.004" /><path
         id="path164"
         style="fill:#74cad8;fill-opacity:1;fill-rule:nonzero;stroke:none"
         d="m 1146.09,343.914 v 0 l -103.32,53.723 -4.41,2.297 h 3.29 l 6.29,6.285 59.94,-31.168 22.93,-22.934 7.07,7.074 -22.93,22.934 -31.17,59.938 3.82,3.82 4.86,1.164 53.63,-103.133" /><path
         id="path166"
         style="fill:#74cad8;fill-opacity:1;fill-rule:nonzero;stroke:none"
         d="m 1087.6,445.883 0.06,0.058 4.7,1.286 0.1,-0.18 v 0 l -4.86,-1.164" /><path
         id="path168"
         style="fill:#b1e5ea;fill-opacity:1;fill-rule:nonzero;stroke:none"
         d="M 909.926,456.758 792.258,485 h 15.027 l 102.641,-28.031 v -0.211 M 807.285,495 h -15.027 l 117.668,28.242 v -0.211 L 807.285,495" /><path
         id="path170"
         style="fill:#74cad8;fill-opacity:1;fill-rule:nonzero;stroke:none"
         d="m 912.328,445.945 -4.695,1.285 -156.61,42.77 156.614,42.773 4.695,1.282 -2.406,-2.403 v -2.074 -6.336 L 792.258,495 H 770 v -10 h 22.258 l 117.668,-28.242 v -8.41 l 2.402,-2.403" /><path
         id="path172"
         style="fill:#b1e5ea;fill-opacity:1;fill-rule:nonzero;stroke:none"
         d="m 1090.07,456.758 v 0.207 L 1192.71,485 h 15.03 L 1090.07,456.758 M 1207.74,495 h -15.02 l -72.54,19.809 0.69,1.043 86.87,-20.852" /><path
         id="path174"
         style="fill:#74cad8;fill-opacity:1;fill-rule:nonzero;stroke:none"
         d="m 1087.66,445.941 2.41,2.407 v 8.41 L 1207.74,485 H 1230 v 10 h -22.26 l -86.87,20.852 5.09,7.746 109.79,-29.985 c -0.48,-0.769 -0.76,-1.679 -0.75,-2.652 V 490 c 0,-1.277 -0.01,-2.555 -0.03,-3.824 l -142.61,-38.949 -4.7,-1.286 M 1245,488.914 c 0,0.359 0,0.723 0,1.086 v 1 c 0,0.031 0,0.059 0,0.09 l 3.98,-1.09 -3.98,-1.086" /><path
         id="path176"
         style="fill:#95dce2;fill-opacity:1;fill-rule:nonzero;stroke:none"
         d="m 1234.97,486.176 c 0.02,1.269 0.03,2.547 0.03,3.824 v 0.961 c -0.01,0.973 0.27,1.883 0.75,2.652 l 9.25,-2.523 c 0,-0.031 0,-0.059 0,-0.09 v -1 c 0,-0.363 0,-0.727 0,-1.086 l -10.03,-2.738" /><path
         id="path178"
         style="fill:#b1e5ea;fill-opacity:1;fill-rule:nonzero;stroke:none"
         d="M 909.926,485 H 792.258 l -20.832,5 20.832,5 h 15.027 102.641 v -10" /><path
         id="path180"
         style="fill:#74cad8;fill-opacity:1;fill-rule:nonzero;stroke:none"
         d="M 792.258,485 H 770 v 10 h 22.258 l -20.832,-5 20.832,-5" /><path
         id="path182"
         style="fill:#b1e5ea;fill-opacity:1;fill-rule:nonzero;stroke:none"
         d="m 1207.74,485 h -107.15 l 6.57,10 h 100.58 l 20.83,-5 -20.83,-5" /><path
         id="path184"
         style="fill:#74cad8;fill-opacity:1;fill-rule:nonzero;stroke:none"
         d="m 1230,485 h -22.26 l 20.83,5 -20.83,5 H 1230 v -10" /><path
         id="path186"
         style="fill:#b1e5ea;fill-opacity:1;fill-rule:nonzero;stroke:none"
         d="m 1005,580.074 h -10 v 117.668 l 5,20.832 5,-20.836 V 682.715 580.074" /><path
         id="path188"
         style="fill:#74cad8;fill-opacity:1;fill-rule:nonzero;stroke:none"
         d="m 1005,697.738 -5,20.836 -5,-20.832 V 720 h 10 v -22.262" /><path
         id="path190"
         style="fill:#b1e5ea;fill-opacity:1;fill-rule:nonzero;stroke:none"
         d="m 1000,261.426 -5,20.832 v 103.84 l 10,6.367 v -95.172 -15.031 l -5,-20.836" /><path
         id="path192"
         style="fill:#74cad8;fill-opacity:1;fill-rule:nonzero;stroke:none"
         d="m 1005,260 h -10 v 22.258 l 5,-20.832 5,20.836 V 260" /><path
         id="path194"
         style="fill:#74cad8;fill-opacity:1;fill-rule:nonzero;stroke:none"
         d="m 931,441.418 -13.441,3.227 -5.168,1.238 -0.063,0.062 -2.402,2.403 v 8.41 l 2.367,-0.567 2.102,-0.503 -1.579,-0.735 4.219,-9.066 6.481,3.015 7.484,-7.484" /><path
         id="path196"
         style="fill:#74cad8;fill-opacity:1;fill-rule:nonzero;stroke:none"
         d="m 1083.78,442.059 -1.34,2.582 5.16,1.242 -3.82,-3.82 v -0.004" /><path
         id="path198"
         style="fill:#74cad8;fill-opacity:1;fill-rule:nonzero;stroke:none"
         d="m 1072.51,442.262 4.28,6.511 6.16,-2.867 4.22,9.067 -1.55,0.718 2.08,0.5 2.37,0.567 v -8.41 l -2.41,-2.407 -0.06,-0.058 -5.16,-1.242 -9.93,-2.379" /><path
         id="path200"
         style="fill:#74cad8;fill-opacity:1;fill-rule:nonzero;stroke:none"
         d="m 919.926,509.129 -7.633,14.68 2.086,0.5 5.547,-2.582 v -12.598 m 60.937,60.945 h -12.59 l -3.3,7.094 -9.067,-4.219 0.719,-1.543 -1.98,1.032 -2.59,1.343 6.289,6.293 h 3.289 l 4.558,-2.371 14.672,-7.629" /><path
         id="path202"
         style="fill:#b1e5ea;fill-opacity:1;fill-rule:nonzero;stroke:none"
         d="m 1033.24,399.934 h -16.5 l 9.72,6.183 7.35,-3.824 -0.57,-2.359 m -106.592,31.695 -10.433,10.43 1.344,2.586 13.441,-3.227 1.148,-1.148 -5.5,-8.641" /><path
         id="path204"
         style="fill:#74cad8;fill-opacity:1;fill-rule:nonzero;stroke:none"
         d="m 1038.35,399.934 h -5.11 l 0.57,2.359 4.54,-2.359" /><path
         id="path206"
         style="fill:#74cad8;fill-opacity:1;fill-rule:nonzero;stroke:none"
         d="m 916.215,442.059 v 0 l -3.824,3.824 5.168,-1.238 -1.344,-2.586" /><path
         id="path208"
         style="fill:#b1e5ea;fill-opacity:1;fill-rule:nonzero;stroke:none"
         d="m 1048.28,560.27 -2.92,12.168 2.58,1.343 v 0 l 8.29,-8.289 -7.95,-5.222 m -29.15,9.804 h -38.267 l -14.672,7.629 0.571,2.371 h 0.207 28.031 10 28.03 0.21 l 0.57,-2.367 -14.68,-7.633" /><path
         id="path210"
         style="fill:#74cad8;fill-opacity:1;fill-rule:nonzero;stroke:none"
         d="m 1047.69,559.887 -6.59,6.593 2.3,4.942 1.96,1.016 2.92,-12.168 -0.59,-0.383 m -81.499,17.816 -4.558,2.371 v 0 h 5.129 l -0.571,-2.371 m 67.619,0.004 -0.57,2.367 h 5.12 l -4.55,-2.367" /><path
         id="path212"
         style="fill:#74cad8;fill-opacity:1;fill-rule:nonzero;stroke:none"
         d="m 1031.74,570.074 h -12.61 l 14.68,7.633 4.55,2.367 h 0.01 3.28 l 6.29,-6.293 -2.58,-1.343 -1.96,-1.016 0.71,1.539 -9.06,4.215 -3.31,-7.102" /><path
         id="path214"
         style="fill:#b1e5ea;fill-opacity:1;fill-rule:nonzero;stroke:none"
         d="m 917.559,535.355 -1.344,2.586 h 0.004 l 14.383,14.387 3.5,-3.5 7.07,7.07 -3.5,3.5 14.383,14.383 v 0 l 2.59,-1.343 -3.227,-13.434 -20.422,-20.422 -13.437,-3.227" /><path
         id="path216"
         style="fill:#74cad8;fill-opacity:1;fill-rule:nonzero;stroke:none"
         d="m 951.418,559.004 3.227,13.434 1.98,-1.032 2.285,-4.91 -7.492,-7.492" /><path
         id="path218"
         style="fill:#74cad8;fill-opacity:1;fill-rule:nonzero;stroke:none"
         d="m 912.391,534.117 3.824,3.824 1.344,-2.586 -5.168,-1.238" /><path
         id="path220"
         style="fill:#b1e5ea;fill-opacity:1;fill-rule:nonzero;stroke:none"
         d="m 1047.94,406.219 -2.58,1.34 2.99,12.492 16.44,10.457 7.72,11.754 9.93,2.379 1.34,-2.582 -14.38,-14.383 -3.52,3.515 -7.07,-7.07 3.51,-3.516 -14.38,-14.386 v 0" /><path
         id="path222"
         style="fill:#74cad8;fill-opacity:1;fill-rule:nonzero;stroke:none"
         d="m 1045.36,407.559 -1.96,1.019 -2.3,4.945 5.26,5.258 1.99,1.27 -2.99,-12.492" /><path
         id="path224"
         style="fill:#74cad8;fill-opacity:1;fill-rule:nonzero;stroke:none"
         d="m 1041.65,399.934 h -3.3 l -4.54,2.359 -7.35,3.824 5.44,3.465 3.15,-6.758 9.06,4.219 -0.71,1.535 1.96,-1.019 2.58,-1.34 -6.29,-6.285" /><path
         id="path226"
         style="fill:#b1e5ea;fill-opacity:1;fill-rule:nonzero;stroke:none"
         d="m 912.293,456.191 -2.367,0.567 v 66.484 l 2.367,0.567 7.633,-14.68 v -38.262 l -7.633,-14.676" /><path
         id="path228"
         style="fill:#74cad8;fill-opacity:1;fill-rule:nonzero;stroke:none"
         d="m 914.395,455.688 -2.102,0.503 7.633,14.676 v -12.605 l -5.531,-2.574" /><path
         id="path230"
         style="fill:#74cad8;fill-opacity:1;fill-rule:nonzero;stroke:none"
         d="m 909.926,523.242 v 8.41 l 2.406,2.403 0.059,0.062 5.168,1.238 13.437,3.227 -7.488,-7.492 -6.457,3.004 -4.219,-9.067 1.547,-0.718 -2.086,-0.5 -2.367,-0.567" /><path
         id="path232"
         style="fill:#b1e5ea;fill-opacity:1;fill-rule:nonzero;stroke:none"
         d="m 1087.7,456.191 -2.67,5.129 5.04,7.664 v -12.226 l -2.37,-0.567" /><path
         id="path234"
         style="fill:#74cad8;fill-opacity:1;fill-rule:nonzero;stroke:none"
         d="m 1085.62,455.691 -3.28,1.528 2.69,4.101 2.67,-5.129 -2.08,-0.5" /><path
         id="path236"
         style="fill:#b1e5ea;fill-opacity:1;fill-rule:nonzero;stroke:none"
         d="m 1091.78,588.859 16.09,16.086 v 0.004 l 14.74,7.66 -2.77,-5.308 -28.06,-18.442" /><path
         id="path238"
         style="fill:#74cad8;fill-opacity:1;fill-rule:nonzero;stroke:none"
         d="m 1107.87,604.949 22.94,22.938 7.07,-7.071 -4.85,-4.851 -13.19,-8.664 2.77,5.308 -14.74,-7.66 m 26.48,19.403 v 0" /><path
         id="path240"
         style="fill:#b1e5ea;fill-opacity:1;fill-rule:nonzero;stroke:none"
         d="m 877.391,367.395 7.66,14.734 27.762,27.762 -22.895,-35.985 -12.527,-6.511" /><path
         id="path242"
         style="fill:#74cad8;fill-opacity:1;fill-rule:nonzero;stroke:none"
         d="m 869.184,352.117 -7.071,7.074 22.938,22.934 v 0.004 l -7.66,-14.734 12.527,6.511 -1.855,-2.91 -18.879,-18.879" /><path
         id="path244"
         style="fill:#b1e5ea;fill-opacity:1;fill-rule:nonzero;stroke:none"
         d="m 1122.6,367.395 -14.72,7.656 -0.01,0.004 -45.55,45.55 -3.51,3.516 7.07,7.07 3.52,-3.515 45.54,-45.547 7.66,-14.734" /><path
         id="path246"
         style="fill:#74cad8;fill-opacity:1;fill-rule:nonzero;stroke:none"
         d="m 1130.81,352.117 -22.93,22.934 14.72,-7.656 -7.66,14.734 0.01,-0.004 22.93,-22.934 -7.07,-7.074" /><path
         id="path248"
         style="fill:#74cad8;fill-opacity:1;fill-rule:nonzero;stroke:none"
         d="m 885.051,597.879 -22.938,22.937 3.535,3.536 -2.304,-4.438 2.304,4.438 3.536,3.535 22.937,-22.938 v 0 l -14.73,7.66 7.66,-14.73" /><path
         id="path250"
         style="fill:#b1e5ea;fill-opacity:1;fill-rule:nonzero;stroke:none"
         d="m 934.102,548.828 -3.5,3.5 -45.551,45.551 v 0 l -7.66,14.73 14.73,-7.66 45.551,-45.551 3.5,-3.5 -7.07,-7.07" /><path
         id="path252"
         style="fill:#b1e5ea;fill-opacity:1;fill-rule:nonzero;stroke:none"
         d="m 930.035,451.934 -7.719,1.851 3.829,7.367 14.066,6.547 2.383,-9.922 -12.559,-5.843" /><path
         id="path254"
         style="fill:#74cad8;fill-opacity:1;fill-rule:nonzero;stroke:none"
         d="m 942.594,457.777 -2.383,9.922 1.016,0.473 3.902,-7.504 -1.551,-2.434 -0.984,-0.457" /><path
         id="path256"
         style="fill:#74cad8;fill-opacity:1;fill-rule:nonzero;stroke:none"
         d="m 922.316,453.785 -7.921,1.903 5.531,2.574 6.219,2.89 -3.829,-7.367" /><path
         id="path258"
         style="fill:#b1e5ea;fill-opacity:1;fill-rule:nonzero;stroke:none"
         d="m 951.328,470.414 -1.027,1.977 3.25,1.511 -2.223,-3.488 m 18.027,28.324 -19.054,8.864 4.617,8.878 19.852,-9.23 -5.415,-8.512 m -29.144,13.555 -14.059,6.539 -3.836,7.383 7.704,1.848 12.57,-5.848 -2.379,-9.922" /><path
         id="path260"
         style="fill:#74cad8;fill-opacity:1;fill-rule:nonzero;stroke:none"
         d="m 941.223,511.824 -1.012,0.469 2.379,9.922 3.25,-1.512 -4.617,-8.879" /><path
         id="path262"
         style="fill:#74cad8;fill-opacity:1;fill-rule:nonzero;stroke:none"
         d="m 950.301,507.602 -9.078,4.222 4.617,8.879 9.078,-4.223 -4.617,-8.878" /><path
         id="path264"
         style="fill:#74cad8;fill-opacity:1;fill-rule:nonzero;stroke:none"
         d="m 945.129,460.668 -3.902,7.504 9.074,4.219 1.027,-1.977 -6.199,-9.746 m -18.977,58.164 -6.226,2.895 -5.547,2.582 7.937,1.906 3.836,-7.383" /><path
         id="path266"
         style="fill:#74cad8;fill-opacity:1;fill-rule:nonzero;stroke:none"
         d="m 917.035,445.887 -4.219,9.066 1.579,0.735 7.921,-1.903 7.719,-1.851 -6.519,-3.032 -6.481,-3.015 m -2.656,78.422 -1.547,0.718 4.219,9.067 6.457,-3.004 6.512,-3.027 -7.704,-1.848 -7.937,-1.906" /><path
         id="path268"
         style="fill:#74cad8;fill-opacity:1;fill-rule:nonzero;stroke:none"
         d="m 1080.53,454.469 1.81,2.75 3.28,-1.528 -5.09,-1.222" /><path
         id="path270"
         style="fill:#74cad8;fill-opacity:1;fill-rule:nonzero;stroke:none"
         d="m 1082.95,445.906 -6.16,2.867 3.74,5.696 5.09,1.222 1.55,-0.718 -4.22,-9.067" /><path
         id="path272"
         style="fill:#b1e5ea;fill-opacity:1;fill-rule:nonzero;stroke:none"
         d="m 1029.65,548.027 -7.35,1.762 6.55,14.066 7.36,3.829 1.86,-7.719 -4.29,-9.227 -4.13,-2.711" /><path
         id="path274"
         style="fill:#74cad8;fill-opacity:1;fill-rule:nonzero;stroke:none"
         d="m 1038.07,559.965 -1.86,7.719 7.19,3.738 -2.3,-4.942 -3.03,-6.515" /><path
         id="path276"
         style="fill:#74cad8;fill-opacity:1;fill-rule:nonzero;stroke:none"
         d="m 1028.85,563.855 2.89,6.219 3.31,7.102 9.06,-4.215 -0.71,-1.539 -7.19,-3.738 -7.36,-3.829" /><path
         id="path278"
         style="fill:#74cad8;fill-opacity:1;fill-rule:nonzero;stroke:none"
         d="m 1017.89,540.301 0.11,0.238 0.19,-0.047 -0.3,-0.191" /><path
         id="path280"
         style="fill:#74cad8;fill-opacity:1;fill-rule:nonzero;stroke:none"
         d="m 1018.19,540.492 -0.19,0.047 4.3,9.25 7.35,-1.762 -11.46,-7.535" /><path
         id="path282"
         style="fill:#b1e5ea;fill-opacity:1;fill-rule:nonzero;stroke:none"
         d="m 982.051,516.746 -8.531,18.34 8.882,4.617 8.094,-17.406 -8.445,-5.551" /><path
         id="path284"
         style="fill:#74cad8;fill-opacity:1;fill-rule:nonzero;stroke:none"
         d="m 973.52,535.086 -1.43,3.074 9.922,2.383 0.39,-0.84 -8.882,-4.617" /><path
         id="path286"
         style="fill:#b1e5ea;fill-opacity:1;fill-rule:nonzero;stroke:none"
         d="m 967.785,547.41 -5.847,12.574 1.847,7.7 7.387,-3.84 6.535,-14.051 -9.922,-2.383" /><path
         id="path288"
         style="fill:#74cad8;fill-opacity:1;fill-rule:nonzero;stroke:none"
         d="m 961.938,559.984 -3.028,6.512 -2.285,4.91 7.16,-3.722 -1.847,-7.7" /><path
         id="path290"
         style="fill:#74cad8;fill-opacity:1;fill-rule:nonzero;stroke:none"
         d="m 971.172,563.844 -7.387,3.84 -7.16,3.722 -0.719,1.543 9.067,4.219 3.3,-7.094 2.899,-6.23" /><path
         id="path292"
         style="fill:#74cad8;fill-opacity:1;fill-rule:nonzero;stroke:none"
         d="m 972.09,538.16 -4.305,9.25 9.922,2.383 4.305,-9.25 -9.922,-2.383" /><path
         id="path294"
         style="fill:#74cad8;fill-opacity:1;fill-rule:nonzero;stroke:none"
         d="m 1035.05,402.824 -3.15,6.758 4.3,2.738 0.01,-0.007 7.19,-3.735 0.71,-1.535 -9.06,-4.219" /><path
         id="path296"
         style="fill:#b1e5ea;fill-opacity:1;fill-rule:nonzero;stroke:none"
         d="m 1036.21,412.313 -0.01,0.007 0.02,0.008 -0.01,-0.015" /><path
         id="path298"
         style="fill:#74cad8;fill-opacity:1;fill-rule:nonzero;stroke:none"
         d="m 1043.4,408.578 -7.19,3.735 0.01,0.015 4.19,2.672 0.69,-1.477 2.3,-4.945" /><path
         id="path300"
         style="fill:#211d1d;fill-opacity:1;fill-rule:nonzero;stroke:none"
         d="m 724.727,513.328 -4.688,-0.586 -11.523,-49.414 H 697.93 l -10.43,37.539 h -0.234 l -10.43,-37.539 H 666.25 l -11.602,49.414 -4.648,0.586 v 6.875 h 20.938 v -6.875 l -5.196,-0.894 6.524,-31.172 0.234,-0.039 10.664,38.98 h 8.399 l 10.742,-38.98 0.234,0.039 6.484,31.172 -5.195,0.894 v 6.875 h 20.899 v -6.875 m 606.993,-25 h -19.26 v -16.25 h 18.36 l 0.51,6.801 h 8.67 v -15.551 h -45 v 6.84 l 6.05,1.172 v 40.816 l -6.05,1.172 v 6.875 h 6.05 38.87 v -15.586 h -8.75 l -0.51,6.801 h -18.2 v -14.301 h 19.26 v -8.789 M 1021.66,179.531 h -8.55 l -1.49,7.813 c -1,0.625 -2.44,1.172 -4.33,1.64 -1.92,0.469 -3.93,0.704 -6.06,0.704 -3.125,0 -5.546,-0.657 -7.246,-1.973 -1.718,-1.32 -2.558,-3.02 -2.558,-5.098 0,-1.926 0.879,-3.504 2.676,-4.746 1.777,-1.238 4.863,-2.551 9.238,-3.926 6.27,-1.75 11.03,-4.05 14.28,-6.914 3.24,-2.859 4.86,-6.629 4.86,-11.289 0,-4.875 -1.93,-8.711 -5.78,-11.523 -3.87,-2.813 -8.95,-4.219 -15.24,-4.219 -4.507,0 -8.569,0.715 -12.202,2.148 -3.633,1.438 -6.66,3.411 -9.082,5.938 v 11.875 h 8.828 l 1.211,-8.086 c 1.133,-0.937 2.695,-1.707 4.668,-2.324 1.953,-0.613 4.16,-0.918 6.577,-0.918 3.13,0 5.49,0.637 7.13,1.914 1.62,1.277 2.44,2.976 2.44,5.117 0,2.188 -0.78,3.945 -2.32,5.274 -1.56,1.328 -4.28,2.578 -8.14,3.75 -6.761,1.953 -11.859,4.265 -15.316,6.953 -3.477,2.683 -5.195,6.355 -5.195,11.015 0,4.61 1.953,8.379 5.859,11.309 3.906,2.93 8.809,4.433 14.722,4.512 4.38,0 8.36,-0.664 11.96,-1.993 3.59,-1.328 6.6,-3.093 9.06,-5.312 v -11.641 m 7.4,660.469 v -6.875 l -6.09,-1.172 v -48.828 h -11.37 l -22.967,38.281 -0.235,-0.039 v -30.234 l 6.094,-1.172 v -6.836 h -23.554 v 6.836 l 6.054,1.172 v 40.82 l -6.054,1.172 V 840 h 6.054 11.406 l 22.972,-38.281 0.23,0.039 v 30.195 l -6.09,1.172 V 840 h 17.46 6.09" /><path
         id="path302"
         style="fill:#898d8d;fill-opacity:1;fill-rule:nonzero;stroke:none"
         d="m 831.438,282.012 12.281,19.297 c 0.121,-0.098 0.242,-0.204 0.367,-0.301 0.93,-0.77 2.059,-1.145 3.18,-1.149 1.437,0 2.867,0.621 3.855,1.821 1.762,2.129 1.461,5.277 -0.668,7.039 -0.441,0.363 -0.883,0.73 -1.324,1.097 l 30.066,47.247 77.852,40.48 7.414,-30.879 -133.023,-84.652 m 142.898,90.937 -7.371,26.985 H 995 v -13.836 l -20.664,-13.149 m -82.215,2.106 45.551,45.55 14.383,-14.386 -59.934,-31.164 M 1005,392.465 v 7.469 h 11.74 L 1005,392.465 m -92.187,17.426 13.835,21.738 3.954,-3.953 -17.789,-17.785 m 106.307,0.043 h -38.249 l 19.121,9.941 19.128,-9.941 m 9.73,6.211 -18.02,9.367 6.95,3.613 4.53,1.086 6.54,-14.066 m -57.69,0.007 6.539,14.059 4.492,-1.078 6.965,-3.621 -17.996,-9.36 m -9.226,3.879 -3.555,14.817 9.398,-2.258 -5.843,-12.559 m 76.136,0.008 -5.84,12.555 9.39,2.254 -3.55,-14.809 m -86.652,0.961 -19.27,19.27 0.481,0.757 14.836,-3.562 3.953,-16.465 m 97.162,0.008 3.95,16.457 16.46,3.953 -20.41,-20.41 m -48.58,14.133 -14.281,3.429 -3.324,1.731 17.605,37.851 17.61,-37.843 -3.35,-1.746 -14.26,-3.422 m -26.488,9.777 -12.231,6.359 -6.363,12.235 34.773,16.176 -16.179,-34.77 m 52.978,0.008 -16.17,34.762 34.76,-16.172 -6.36,-12.231 -12.23,-6.359 m -81.642,3.453 -6.543,1.57 4.476,7.031 2.067,-8.601 m 110.302,0 2.26,9.406 12.57,-5.847 -14.83,-3.559 m 18.69,12.793 -14.05,6.535 1.08,4.492 3.62,6.957 9.35,-17.984 m 16.23,7.812 V 485 h 10.52 l -10.52,-16.016 m -10,1.883 -9.95,19.129 9.95,19.125 v -38.254 m -30.37,1.531 -37.85,17.602 h 0.01 l 37.83,17.605 1.75,-3.351 3.42,-14.254 -3.43,-14.273 -1.73,-3.329 m -96.149,1.504 15.804,24.836 18.79,-8.738 -34.594,-16.098 M 1107.16,495 h -17.09 v 28.035 l 30.11,-8.226 L 1107.16,495 m -117.461,5.305 -14.929,6.945 5.156,8.102 2.125,1.394 7.648,-16.441 m 20.621,0.008 16.17,34.765 12.22,-6.359 6.37,-12.231 -34.76,-16.175 m 54.17,0.519 -3.61,6.945 -1.09,4.528 14.06,6.543 -9.36,-18.016 m -64.48,1.027 -9.514,20.438 26.754,17.582 0.36,-0.184 -17.6,-37.836 m 57.4,20.368 -2.26,9.394 14.81,-3.555 -12.55,-5.839 m 69.29,2.507 -34.24,8.219 44.51,85.598 39.88,26.211 c 2.33,-2.66 4.6,-5.375 6.81,-8.141 0.99,-1.234 2.44,-1.875 3.91,-1.875 1.09,0 2.2,0.356 3.12,1.094 2.15,1.723 2.51,4.871 0.78,7.027 -2.01,2.52 -4.08,5 -6.19,7.438 l 42.13,27.683 -100.71,-153.254 m -42.92,13.207 -14.39,14.387 45.56,45.555 -31.17,-59.942 m -14.78,0.641 -16.47,3.953 -3.95,16.465 20.42,-20.418 m -27.38,6.57 -9.39,2.254 1.55,3.332 5.61,3.692 2.23,-9.278 m 20.7,14.246 -6.09,6.094 35.55,23.367 -29.46,-29.461" /><path
         id="path304"
         style="fill:#4b7780;fill-opacity:1;fill-rule:nonzero;stroke:none"
         d="m 964.461,366.664 -7.414,30.879 0.18,0.094 8.277,-30.309 -1.043,-0.664 m -5.559,46.852 -7.484,7.484 -3.953,16.465 10.914,-2.617 3.555,-14.817 -3.032,-6.515 m 81.508,1.484 -2.34,5.039 3.55,14.809 10.91,2.617 -3.95,-16.457 -2.22,-2.227 -5.95,-3.781 m -87.941,31.551 -7.621,1.828 -2.067,8.601 0.797,1.254 2.266,1.055 6.625,-12.738 m 95.061,0 6.63,12.746 3.25,-1.512 -2.26,-9.406 -7.62,-1.828 m 12.26,21.156 -1.01,0.469 2.09,4.023 -1.08,-4.492 m -8.36,8.02 3.43,14.273 -3.42,14.254 7.41,-14.258 -7.42,-14.269 m 9.45,32.05 -2.11,4.051 1.02,0.477 1.09,-4.528 m -6.73,12.934 -6.63,12.742 7.63,-1.832 2.26,-9.394 -3.26,-1.516 m -1.62,21.824 -10.91,2.617 -2.23,9.278 8.3,5.457 0.89,-0.887 3.95,-16.465" /><path
         id="path306"
         style="fill:#4b7780;fill-opacity:1;fill-rule:nonzero;stroke:none"
         d="m 892.121,375.055 v 0 l 59.934,31.164 h 0.004 l -59.938,-31.164 m 88.75,34.879 h -12.605 l 2.894,6.218 17.996,9.36 10.836,-5.637 -19.121,-9.941 m 29.959,15.578 -2.56,1.332 9.51,2.281 -6.95,-3.613 m 3.43,13.051 3.35,1.746 0.39,-0.848 -3.74,-0.898 m 13.66,3.281 -1.43,3.082 12.23,6.359 6.36,12.231 9.08,-4.219 -6.63,-12.746 -19.61,-4.707 m 30.86,26.332 -9.08,4.222 1.73,3.329 7.42,14.269 5.64,-10.84 -3.62,-6.957 -2.09,-4.023 m 11.34,21.82 -5.63,10.836 9.36,18.016 6.22,2.89 v -12.617 l -9.95,-19.125 m 22.34,42.957 v 0 l 44.5,85.598 h 0.01 l -44.51,-85.598" /><path
         id="path308"
         style="fill:#4b7780;fill-opacity:1;fill-rule:nonzero;stroke:none"
         d="m 1031.74,409.934 h -12.62 l -19.128,9.941 -10.836,5.637 -6.965,3.621 17.809,-4.274 8.27,1.985 2.56,-1.332 18.02,-9.367 2.89,-6.211 m -46.021,28.636 -3.715,0.891 0.391,0.84 3.324,-1.731 m -13.637,3.274 -19.613,4.707 -6.625,12.738 9.074,4.223 6.363,-12.235 12.231,-6.359 -1.43,-3.074 m 107.988,16.429 -6.23,2.899 -9.35,17.984 -5.64,10.84 -7.41,14.258 -1.75,3.351 9.08,4.223 2.11,-4.051 3.61,-6.945 5.63,-10.836 9.95,-19.129 v -12.594 m -34.99,58.215 -6.37,12.231 -12.22,6.359 1.43,3.078 19.6,-4.703 6.63,-12.742 -9.07,-4.223 m -27.47,23.207 -0.36,0.184 0.64,0.422 -0.28,-0.606" /><path
         id="path310"
         style="fill:#4b7780;fill-opacity:1;fill-rule:nonzero;stroke:none"
         d="m 1000,424.859 -17.809,4.274 -4.492,1.078 4.305,9.25 3.715,-0.891 14.281,-3.429 14.26,3.422 3.74,0.898 4.31,-9.25 -4.53,-1.086 -9.51,-2.281 -8.27,-1.985 m -32.223,7.731 -9.398,2.258 -10.914,2.617 -14.836,3.562 5.676,8.922 6.543,-1.57 7.621,-1.828 19.613,-4.707 -4.305,-9.254 m 64.453,0.004 -4.31,9.25 19.61,4.707 7.62,1.828 14.83,3.559 6.51,-3.028 -7.5,-7.492 -16.46,-3.953 -10.91,-2.617 -9.39,-2.254 m 93.73,91.004 -33.6,9.175 0.1,0.18 v 0 l 34.24,-8.219 -0.74,-1.136 m -56,4.468 -14.81,3.555 -7.63,1.832 -19.6,4.703 4.31,9.25 9.39,-2.254 10.91,-2.617 16.47,-3.953 7.48,-7.484 -6.52,-3.032" /><path
         id="path312"
         style="fill:#6d8686;fill-opacity:1;fill-rule:nonzero;stroke:none"
         d="m 847.266,299.859 c -1.121,0.004 -2.25,0.379 -3.18,1.149 -0.125,0.097 -0.246,0.203 -0.367,0.301 l 5.41,8.507 c 0.441,-0.367 0.883,-0.734 1.324,-1.097 2.129,-1.762 2.43,-4.91 0.668,-7.039 -0.988,-1.2 -2.418,-1.821 -3.855,-1.821 m 340.304,334.887 c -1.47,0 -2.92,0.641 -3.91,1.875 -2.21,2.766 -4.48,5.481 -6.81,8.141 l 8.43,5.543 c 2.11,-2.438 4.18,-4.918 6.19,-7.438 1.73,-2.156 1.37,-5.304 -0.78,-7.027 -0.92,-0.738 -2.03,-1.094 -3.12,-1.094" /><path
         id="path314"
         style="fill:#6f8788;fill-opacity:1;fill-rule:nonzero;stroke:none"
         d="m 973.379,372.34 -6.621,27.594 h 0.207 l 7.371,-26.985 -0.957,-0.609" /><path
         id="path316"
         style="fill:#507c82;fill-opacity:1;fill-rule:nonzero;stroke:none"
         d="m 965.504,367.328 -8.277,30.309 4.414,2.297 h 5.117 l 6.621,-27.594 -7.875,-5.012" /><path
         id="path318"
         style="fill:#6f8788;fill-opacity:1;fill-rule:nonzero;stroke:none"
         d="m 1083.78,537.941 v 0 l 31.17,59.942 v 0 l -31.17,-59.942" /><path
         id="path320"
         style="fill:#507c82;fill-opacity:1;fill-rule:nonzero;stroke:none"
         d="m 1092.46,532.953 -4.86,1.164 -3.82,3.824 31.17,59.942 18.08,18.082 3.93,2.586 -44.5,-85.598" /><path
         id="path322"
         style="fill:#507c82;fill-opacity:1;fill-rule:nonzero;stroke:none"
         d="m 1092.36,532.773 -4.7,1.286 -0.06,0.058 4.86,-1.164 -0.1,-0.18" /><path
         id="path324"
         style="fill:#6f8788;fill-opacity:1;fill-rule:nonzero;stroke:none"
         d="m 879.195,357.063 v 0 l 77.852,40.48 v 0 l -77.852,-40.48" /><path
         id="path326"
         style="fill:#507c82;fill-opacity:1;fill-rule:nonzero;stroke:none"
         d="m 957.047,397.543 v 0 l 4.594,2.391 v 0 l -4.414,-2.297 -0.18,-0.094" /><path
         id="path328"
         style="fill:#507c82;fill-opacity:1;fill-rule:nonzero;stroke:none"
         d="m 879.195,357.063 8.868,13.933 4.058,4.059 59.938,31.164 6.285,-6.285 h 3.297 l -4.594,-2.391 -77.852,-40.48" /><path
         id="path330"
         style="fill:#6f8788;fill-opacity:1;fill-rule:nonzero;stroke:none"
         d="m 1120.18,514.809 -30.11,8.226 v 0.207 l 30.8,-7.39 -0.69,-1.043" /><path
         id="path332"
         style="fill:#507c82;fill-opacity:1;fill-rule:nonzero;stroke:none"
         d="m 1120.87,515.852 -30.8,7.39 v 8.41 l -2.41,2.407 4.7,-1.286 33.6,-9.175 -5.09,-7.746" /><path
         id="path334"
         style="fill:#6f8788;fill-opacity:1;fill-rule:nonzero;stroke:none"
         d="m 1100.59,485 h -10.52 v 10 h 17.09 l -6.57,-10" /><path
         id="path336"
         style="fill:#6f8788;fill-opacity:1;fill-rule:nonzero;stroke:none"
         d="m 995,386.098 v 13.836 h 10 v -7.469 l -10,-6.367" /><path
         id="path338"
         style="fill:#507c82;fill-opacity:1;fill-rule:nonzero;stroke:none"
         d="m 1068.99,441.418 7.5,7.492 0.3,-0.137 -4.28,-6.511 -3.52,-0.844" /><path
         id="path340"
         style="fill:#6f8788;fill-opacity:1;fill-rule:nonzero;stroke:none"
         d="m 1016.74,399.934 h -49.982 l -0.567,2.363 14.68,7.637 h 38.249 l 7.34,-3.817 -9.72,-6.183 m -64.685,6.285 -14.383,14.386 3.535,3.536 -7.07,7.07 -3.535,-3.535 -3.954,3.953 5.5,8.641 19.27,-19.27 3.223,-13.434 -2.586,-1.347" /><path
         id="path342"
         style="fill:#507c82;fill-opacity:1;fill-rule:nonzero;stroke:none"
         d="m 966.758,399.934 h -5.117 v 0 l 4.55,2.363 0.567,-2.363 m -12.117,7.632 -3.223,13.434 7.484,-7.484 -2.293,-4.926 -1.968,-1.024" /><path
         id="path344"
         style="fill:#507c82;fill-opacity:1;fill-rule:nonzero;stroke:none"
         d="m 961.641,399.934 h -3.297 l -6.285,6.285 h -0.004 l 2.586,1.347 1.968,1.024 -0.722,-1.559 9.066,-4.218 3.313,7.121 h 12.605 l -14.68,-7.637 -4.55,-2.363" /><path
         id="path346"
         style="fill:#6f8788;fill-opacity:1;fill-rule:nonzero;stroke:none"
         d="m 1082.44,535.355 -13.44,3.227 -20.42,20.418 -0.3,1.27 7.95,5.222 6.09,-6.094 -3.53,-3.535 7.07,-7.07 3.53,3.535 14.39,-14.387 v 0 l -1.34,-2.586" /><path
         id="path348"
         style="fill:#507c82;fill-opacity:1;fill-rule:nonzero;stroke:none"
         d="m 1048.58,559 -0.89,0.887 0.59,0.383 0.3,-1.27" /><path
         id="path350"
         style="fill:#507c82;fill-opacity:1;fill-rule:nonzero;stroke:none"
         d="m 1087.6,534.117 -5.16,1.238 1.34,2.586 3.82,-3.824" /><path
         id="path352"
         style="fill:#6f8788;fill-opacity:1;fill-rule:nonzero;stroke:none"
         d="m 1048.35,420.051 0.23,0.957 20.41,20.41 3.52,0.844 -7.72,-11.754 -16.44,-10.457" /><path
         id="path354"
         style="fill:#507c82;fill-opacity:1;fill-rule:nonzero;stroke:none"
         d="m 1046.36,418.781 2.22,2.227 -0.23,-0.957 -1.99,-1.27" /><path
         id="path356"
         style="fill:#507c82;fill-opacity:1;fill-rule:nonzero;stroke:none"
         d="m 1026.46,406.117 -7.34,3.817 h 12.62 l 0.16,-0.352 -5.44,-3.465" /><path
         id="path358"
         style="fill:#6f8788;fill-opacity:1;fill-rule:nonzero;stroke:none"
         d="m 1085.03,461.32 -4.96,9.547 v 38.254 l 7.63,14.688 2.37,-0.567 V 523.035 495 485 468.984 l -5.04,-7.664" /><path
         id="path360"
         style="fill:#507c82;fill-opacity:1;fill-rule:nonzero;stroke:none"
         d="m 1080.07,509.121 v 12.617 l 5.53,2.575 2.1,-0.504 -7.63,-14.688" /><path
         id="path362"
         style="fill:#507c82;fill-opacity:1;fill-rule:nonzero;stroke:none"
         d="m 1082.34,457.219 -2.27,1.054 v 12.594 l 4.96,-9.547 -2.69,-4.101" /><path
         id="path364"
         style="fill:#507c82;fill-opacity:1;fill-rule:nonzero;stroke:none"
         d="m 1090.07,523.242 -2.37,0.567 -2.1,0.504 1.58,0.734 -4.22,9.066 -6.48,-3.015 -7.48,7.484 13.44,-3.227 5.16,-1.238 0.06,-0.058 2.41,-2.407 v -8.41" /><path
         id="path366"
         style="fill:#6f8788;fill-opacity:1;fill-rule:nonzero;stroke:none"
         d="m 1065.86,548.793 -7.07,7.07 3.53,3.535 29.46,29.461 28.06,18.442 -4.89,-9.418 v 0 l -45.56,-45.555 -3.53,-3.535" /><path
         id="path368"
         style="fill:#507c82;fill-opacity:1;fill-rule:nonzero;stroke:none"
         d="m 1114.95,597.883 4.89,9.418 13.19,8.664 -18.08,-18.082" /><path
         id="path370"
         style="fill:#6f8788;fill-opacity:1;fill-rule:nonzero;stroke:none"
         d="m 889.918,373.906 22.895,35.985 17.789,17.785 3.535,3.535 7.07,-7.07 -3.535,-3.536 -45.551,-45.55 -2.203,-1.149" /><path
         id="path372"
         style="fill:#507c82;fill-opacity:1;fill-rule:nonzero;stroke:none"
         d="m 888.063,370.996 1.855,2.91 2.203,1.149 v 0 l -4.058,-4.059" /><path
         id="path374"
         style="fill:#507c82;fill-opacity:1;fill-rule:nonzero;stroke:none"
         d="m 943.578,458.234 1.551,2.434 0.715,-1.379 -2.266,-1.055" /><path
         id="path376"
         style="fill:#6f8788;fill-opacity:1;fill-rule:nonzero;stroke:none"
         d="m 954.918,463.512 -3.59,6.902 2.223,3.488 34.594,16.098 -18.79,8.738 5.415,8.512 14.929,-6.945 3.664,-7.879 -5.218,-2.426 5.214,-2.426 -3.668,-7.886 -34.773,-16.176" /><path
         id="path378"
         style="fill:#507c82;fill-opacity:1;fill-rule:nonzero;stroke:none"
         d="m 945.844,459.289 -0.715,1.379 6.199,9.746 3.59,-6.902 -9.074,-4.223" /><path
         id="path380"
         style="fill:#6f8788;fill-opacity:1;fill-rule:nonzero;stroke:none"
         d="m 1069.98,451.938 -12.57,5.847 2.38,9.922 14.05,-6.535 3.84,-7.387 -7.7,-1.847 m -24.9,11.578 -34.76,16.172 -4.8,10.32 4.8,10.305 34.76,16.175 4.61,-8.883 -37.84,-17.605 37.85,-17.602 -4.62,-8.882" /><path
         id="path382"
         style="fill:#507c82;fill-opacity:1;fill-rule:nonzero;stroke:none"
         d="m 1057.41,457.785 -3.25,1.512 4.62,8.879 1.01,-0.469 -2.38,-9.922" /><path
         id="path384"
         style="fill:#507c82;fill-opacity:1;fill-rule:nonzero;stroke:none"
         d="m 1054.16,459.297 -9.08,4.219 4.62,8.882 9.08,-4.222 -4.62,-8.879" /><path
         id="path386"
         style="fill:#6f8788;fill-opacity:1;fill-rule:nonzero;stroke:none"
         d="m 1059.79,512.305 -2.38,9.922 12.55,5.839 7.72,-1.851 -3.83,-7.367 -14.06,-6.543" /><path
         id="path388"
         style="fill:#507c82;fill-opacity:1;fill-rule:nonzero;stroke:none"
         d="m 1058.77,511.828 -4.62,8.883 3.26,1.516 2.38,-9.922 -1.02,-0.477" /><path
         id="path390"
         style="fill:#507c82;fill-opacity:1;fill-rule:nonzero;stroke:none"
         d="m 1073.85,518.848 3.83,7.367 7.92,-1.902 -5.53,-2.575 -6.22,-2.89" /><path
         id="path392"
         style="fill:#507c82;fill-opacity:1;fill-rule:nonzero;stroke:none"
         d="m 1077.68,453.785 -3.84,7.387 6.23,-2.899 2.27,-1.054 -1.81,-2.75 -2.85,-0.684 m -27.99,53.82 -4.61,8.883 9.07,4.223 4.62,-8.883 -9.08,-4.223" /><path
         id="path394"
         style="fill:#507c82;fill-opacity:1;fill-rule:nonzero;stroke:none"
         d="m 1076.79,448.773 -0.3,0.137 -6.51,3.028 7.7,1.847 2.85,0.684 -3.74,-5.696 m 8.81,75.54 -7.92,1.902 -7.72,1.851 6.52,3.032 6.48,3.015 4.22,-9.066 -1.58,-0.734" /><path
         id="path396"
         style="fill:#6f8788;fill-opacity:1;fill-rule:nonzero;stroke:none"
         d="m 993.359,487.574 -5.214,2.426 5.218,2.426 1.125,-2.418 -1.129,-2.434" /><path
         id="path398"
         style="fill:#6f8788;fill-opacity:1;fill-rule:nonzero;stroke:none"
         d="m 982.395,440.301 -8.883,4.617 16.179,34.77 3.668,7.886 1.129,2.434 5.512,-11.856 -17.605,-37.851" /><path
         id="path400"
         style="fill:#507c82;fill-opacity:1;fill-rule:nonzero;stroke:none"
         d="m 982.004,439.461 -9.922,2.383 1.43,3.074 8.883,-4.617 -0.391,-0.84" /><path
         id="path402"
         style="fill:#507c82;fill-opacity:1;fill-rule:nonzero;stroke:none"
         d="m 977.699,430.211 -9.922,2.379 4.305,9.254 9.922,-2.383 -4.305,-9.25" /><path
         id="path404"
         style="fill:#6f8788;fill-opacity:1;fill-rule:nonzero;stroke:none"
         d="m 963.785,412.32 -1.851,7.711 5.843,12.559 9.922,-2.379 -6.539,-14.059 -7.375,-3.832" /><path
         id="path406"
         style="fill:#507c82;fill-opacity:1;fill-rule:nonzero;stroke:none"
         d="m 956.609,408.59 2.293,4.926 3.032,6.515 1.851,-7.711 -7.176,-3.73" /><path
         id="path408"
         style="fill:#507c82;fill-opacity:1;fill-rule:nonzero;stroke:none"
         d="m 964.953,402.813 -9.066,4.218 0.722,1.559 7.176,3.73 7.375,3.832 -2.894,-6.218 -3.313,-7.121" /><path
         id="path410"
         style="fill:#6f8788;fill-opacity:1;fill-rule:nonzero;stroke:none"
         d="m 1005.52,490.008 -5.51,11.851 17.6,37.836 8.88,-4.617 -16.17,-34.765 -4.8,-10.305 m 26.71,57.398 -2.58,0.621 4.13,2.711 -1.55,-3.332" /><path
         id="path412"
         style="fill:#507c82;fill-opacity:1;fill-rule:nonzero;stroke:none"
         d="m 1026.49,535.078 -8.88,4.617 0.28,0.606 0.3,0.191 9.73,-2.336 -1.43,-3.078" /><path
         id="path414"
         style="fill:#507c82;fill-opacity:1;fill-rule:nonzero;stroke:none"
         d="m 1027.92,538.156 -9.73,2.336 11.46,7.535 2.58,-0.621 -4.31,-9.25" /><path
         id="path416"
         style="fill:#6f8788;fill-opacity:1;fill-rule:nonzero;stroke:none"
         d="m 1017.61,440.309 -17.61,37.843 -5.512,11.856 -1.125,2.418 -3.664,7.879 -7.648,16.441 8.445,5.551 9.514,-20.438 5.51,-11.851 4.8,-10.32 16.17,-34.762 -8.88,-4.617" /><path
         id="path418"
         style="fill:#507c82;fill-opacity:1;fill-rule:nonzero;stroke:none"
         d="m 1018,439.461 -0.39,0.848 8.88,4.617 1.43,-3.082 -9.92,-2.383" /><path
         id="path420"
         style="fill:#507c82;fill-opacity:1;fill-rule:nonzero;stroke:none"
         d="m 1022.31,430.211 -4.31,9.25 9.92,2.383 4.31,-9.25 -9.92,-2.383" /><path
         id="path422"
         style="fill:#507c82;fill-opacity:1;fill-rule:nonzero;stroke:none"
         d="m 1031.9,409.582 -0.16,0.352 -2.89,6.211 7.35,-3.825 -4.3,-2.738" /><path
         id="path424"
         style="fill:#6f8788;fill-opacity:1;fill-rule:nonzero;stroke:none"
         d="m 1036.2,412.32 -7.35,3.825 -6.54,14.066 9.92,2.383 5.84,-12.555 -1.85,-7.711 -0.02,-0.008" /><path
         id="path426"
         style="fill:#507c82;fill-opacity:1;fill-rule:nonzero;stroke:none"
         d="m 1036.22,412.328 1.85,7.711 2.34,-5.039 -4.19,-2.672" /><path
         id="path428"
         style="fill:#ffffff;fill-opacity:1;fill-rule:nonzero;stroke:none"
         d="M 1207.41,697.988 959.926,535.355 811.438,302.012 l 233.352,148.496 162.62,247.48" /><path
         id="path430"
         style="fill:#ee2731;fill-opacity:1;fill-rule:nonzero;stroke:none"
         d="M 1207.41,697.988 811.438,302.012 1044.79,450.508 Z" /><path
         id="path432"
         style="fill:#211d1d;fill-opacity:1;fill-rule:nonzero;stroke:none"
         d="M 963.563,531.758 827.734,318.313 1041.19,454.148 1189.96,680.535 Z M 795.137,285.715 957.18,539.531 1224.86,715.438 1047.47,446.289 795.137,285.715" /><path
         id="path434"
         style="fill:#ffffff;fill-opacity:1;fill-rule:nonzero;stroke:none"
         d="m 1000,455 c -19.297,0 -35,15.703 -35,35 0,19.297 15.703,35 35,35 19.3,0 35,-15.703 35,-35 0,-19.297 -15.7,-35 -35,-35" /><path
         id="path436"
         style="fill:#d3d2d1;fill-opacity:1;fill-rule:nonzero;stroke:none"
         d="m 1000,530 c -22.055,0 -40,-17.937 -40,-40 0,-22.062 17.945,-40 40,-40 22.06,0 40,17.938 40,40 0,22.063 -17.94,40 -40,40 z m 0,-10 c 16.57,0 30,-13.43 30,-30 0,-16.57 -13.43,-30 -30,-30 -16.566,0 -30,13.43 -30,30 0,16.57 13.434,30 30,30" /></g></g></svg>