<?xml version="1.0" encoding="utf-8"?>
<!-- Generator: Adobe Illustrator 22.1.0, SVG Export Plug-In . SVG Version: 6.00 Build 0)  -->
<svg version="1.1" id="Layer_1" xmlns="http://www.w3.org/2000/svg" xmlns:xlink="http://www.w3.org/1999/xlink" x="0px" y="0px"
	 viewBox="0 0 379.4 107" style="enable-background:new 0 0 379.4 107;" xml:space="preserve">
<style type="text/css">
	.st0{fill:#EEB650;}
	.st1{fill:#231F20;}
	.st2{fill:#E2F3F8;}
	.st3{fill:#D7962B;}
	.st4{fill:#FFFFFF;}
	.st5{opacity:0.1;}
	.st6{fill:#010101;}
	.st7{fill:none;stroke:#5BBAD2;stroke-miterlimit:10;}
	.st8{fill:none;stroke:#A9DEE7;stroke-linecap:round;stroke-miterlimit:10;stroke-dasharray:1.9707,3.9414;}
	.st9{fill:none;stroke:#A9DEE7;stroke-linecap:round;stroke-miterlimit:10;stroke-dasharray:2.0101,4.0202;}
	.st10{opacity:0.5;}
	.st11{fill:none;stroke:#72CDDD;stroke-miterlimit:10;}
	.st12{opacity:0.3;fill:#010101;}
	.st13{fill:#EF3734;}
	.st14{fill:#D2D2D2;}
	.st15{fill:#232121;}
</style>
<g>
	<circle class="st0" cx="44" cy="49.3" r="43.5"/>
	<path class="st1" d="M44,6.3c23.7,0,43,19.3,43,43s-19.3,43-43,43S1,73,1,49.3S20.3,6.3,44,6.3 M44,5.3C19.7,5.3,0,25,0,49.3
		s19.7,44,44,44s44-19.7,44-44S68.3,5.3,44,5.3L44,5.3z"/>
</g>
<g>
	<circle class="st2" cx="44" cy="49.3" r="38.5"/>
	<path class="st3" d="M44,11.3c21,0,38,17,38,38s-17,38-38,38s-38-17-38-38S23,11.3,44,11.3 M44,10.3c-21.5,0-39,17.5-39,39
		s17.5,39,39,39s39-17.5,39-39S65.5,10.3,44,10.3L44,10.3z"/>
</g>
<g>
	<path class="st4" d="M67.7,19.6c5.2,6.5,8.3,14.7,8.3,23.7c0,21-17,38-38,38c-9,0-17.2-3.1-23.7-8.3c7,8.7,17.7,14.3,29.7,14.3
		c21,0,38-17,38-38C82,37.3,76.4,26.6,67.7,19.6z"/>
</g>
<g class="st5">
	<path class="st6" d="M12,55.3c0-21,17-38,38-38c9,0,17.2,3.1,23.7,8.3C66.7,16.9,56,11.3,44,11.3c-21,0-38,17-38,38
		C6,61.3,11.6,72,20.3,79C15.1,72.5,12,64.3,12,55.3z"/>
</g>
<g>
	<polygon class="st7" points="44,24.3 38,49.3 44,74.3 50,49.3 	"/>
	<polygon class="st7" points="57.4,35.9 39.8,45 30.6,62.7 48.2,53.5 	"/>
	<polygon class="st7" points="30.6,35.9 39.8,53.5 57.4,62.7 48.2,45 	"/>
	<polygon class="st7" points="19,49.3 44,55.3 69,49.3 44,43.3 	"/>
	<g>
		<g>
			<g>
				<circle class="st8" cx="44" cy="49.3" r="32"/>
			</g>
			<g>
				<circle class="st9" cx="44" cy="49.3" r="24"/>
			</g>
		</g>
		<g class="st10">
			<polyline class="st11" points="48,40.8 44,26.3 40,40.8 			"/>
			<polyline class="st11" points="40,57.8 44,72.3 48,57.8 			"/>
			<polyline class="st11" points="52.5,45.3 57.4,35.9 48,40.8 			"/>
			<polyline class="st11" points="35.5,53.2 30.6,62.7 40,57.8 			"/>
			<polyline class="st11" points="40,40.8 30.6,35.9 35.5,45.3 			"/>
			<polyline class="st11" points="48,57.8 57.4,62.7 52.5,53.2 			"/>
			<polyline class="st11" points="35.5,45.3 21,49.3 35.5,53.2 			"/>
			<polyline class="st11" points="52.5,53.2 67,49.3 52.5,45.3 			"/>
			<line class="st11" x1="21" y1="49.3" x2="35.5" y2="49.3"/>
			<line class="st11" x1="52.5" y1="49.3" x2="67" y2="49.3"/>
			<line class="st11" x1="44" y1="26.3" x2="44" y2="40.8"/>
			<line class="st11" x1="44" y1="57.8" x2="44" y2="72.3"/>
			<polygon class="st11" points="35.5,45.3 40,40.8 48,40.8 52.5,45.3 52.5,53.2 48,57.8 40,57.8 35.5,53.2 			"/>
			<line class="st11" x1="50.2" y1="43.1" x2="57.4" y2="35.9"/>
			<line class="st11" x1="30.6" y1="62.7" x2="37.8" y2="55.5"/>
			<line class="st11" x1="50.2" y1="55.5" x2="57.4" y2="62.7"/>
			<line class="st11" x1="30.6" y1="35.9" x2="37.8" y2="43.1"/>
			<polyline class="st11" points="35.5,53.2 44,49.3 35.5,45.3 			"/>
			<polyline class="st11" points="52.5,45.3 44,49.3 52.5,53.2 			"/>
			<line class="st11" x1="48" y1="40.8" x2="40" y2="57.8"/>
			<line class="st11" x1="48" y1="57.8" x2="40" y2="40.8"/>
		</g>
	</g>
	<path class="st1" d="M46.9,14.3V15l-0.6,0.1V20h-1.1l-2.3-3.8l0,0v3l0.6,0.1V20h-2.4v-0.7l0.6-0.1v-4.1L41.1,15v-0.7h0.6h1.1
		l2.3,3.8l0,0v-3L44.6,15v-0.7h1.7H46.9z M46.2,80.3h-0.9l-0.1-0.8c-0.1-0.1-0.2-0.1-0.4-0.2c-0.2,0-0.4-0.1-0.6-0.1
		c-0.3,0-0.6,0.1-0.7,0.2c-0.2,0.1-0.3,0.3-0.3,0.5c0,0.2,0.1,0.4,0.3,0.5c0.2,0.1,0.5,0.3,0.9,0.4c0.6,0.2,1.1,0.4,1.4,0.7
		c0.3,0.3,0.5,0.7,0.5,1.1c0,0.5-0.2,0.9-0.6,1.2c-0.4,0.3-0.9,0.4-1.5,0.4c-0.5,0-0.9-0.1-1.2-0.2c-0.4-0.1-0.7-0.3-0.9-0.6v-1.2
		h0.9l0.1,0.8c0.1,0.1,0.3,0.2,0.5,0.2c0.2,0.1,0.4,0.1,0.7,0.1c0.3,0,0.5-0.1,0.7-0.2c0.2-0.1,0.2-0.3,0.2-0.5
		c0-0.2-0.1-0.4-0.2-0.5c-0.2-0.1-0.4-0.3-0.8-0.4c-0.7-0.2-1.2-0.4-1.5-0.7C42.2,80.9,42,80.5,42,80c0-0.5,0.2-0.8,0.6-1.1
		s0.9-0.4,1.5-0.5c0.4,0,0.8,0.1,1.2,0.2s0.7,0.3,0.9,0.5V80.3z M77.2,49.5h-1.9v1.6h1.8l0.1-0.7H78V52h-4.5v-0.7l0.6-0.1v-4.1
		L73.5,47v-0.7h0.6H78v1.6h-0.9l-0.1-0.7h-1.8v1.4h1.9V49.5z M16.5,47L16,47L14.9,52h-1.1l-1-3.8h0l-1,3.8h-1.1L9.5,47L9,47v-0.7
		h2.1V47L10.6,47l0.7,3.1l0,0l1.1-3.9h0.8l1.1,3.9l0,0l0.6-3.1L14.4,47v-0.7h2.1V47z"/>
</g>
<g id="needle">
	<g>
		<polygon class="st12" points="66.7,30.5 42,46.8 27.1,70.1 50.5,55.2 		"/>
		<polygon class="st4" points="64.7,28.5 40,44.8 25.1,68.1 48.5,53.2 		"/>
		<polygon class="st13" points="64.7,28.5 25.1,68.1 48.5,53.2 		"/>
		<path class="st1" d="M23.5,69.7l16.2-25.4l26.8-17.6L48.7,53.7L23.5,69.7z M40.4,45.1L26.8,66.5l21.3-13.6L63,30.2L40.4,45.1z"/>
	</g>
	<g>
		<circle class="st4" cx="44" cy="49.3" r="3.5"/>
		<path class="st14" d="M44,46.3c1.7,0,3,1.3,3,3s-1.3,3-3,3s-3-1.3-3-3S42.3,46.3,44,46.3 M44,45.3c-2.2,0-4,1.8-4,4s1.8,4,4,4
			s4-1.8,4-4S46.2,45.3,44,45.3L44,45.3z"/>
	</g>
</g>
<g>
	<path class="st15" d="M110.9,82.6V16.4c0-1.1,0.5-1.6,1.6-1.6h7.9c0.9,0,1.6,0.4,2,1.1l27.7,45.3c0.1,0.3,0.3,0.4,0.4,0.3
		c0.2-0.1,0.2-0.2,0.2-0.5V16.4c0-1.1,0.5-1.6,1.6-1.6h8.3c1.1,0,1.6,0.5,1.6,1.6v66.1c0,1.1-0.5,1.6-1.6,1.6h-8.1
		c-0.9,0-1.6-0.4-2-1.1l-27.7-45.6c-0.1-0.3-0.3-0.4-0.4-0.3c-0.2,0.1-0.2,0.2-0.2,0.5l0.1,44.9c0,1.1-0.5,1.6-1.6,1.6h-8.2
		C111.4,84.1,110.9,83.6,110.9,82.6z"/>
	<path class="st15" d="M200.3,73.7c1.8-1,3.3-2.3,4.4-3.9c0.3-0.5,0.8-0.8,1.3-0.8c0.3,0,0.6,0.1,0.9,0.3l4.8,3.8
		c0.5,0.5,0.7,0.9,0.7,1.3c0,0.3-0.1,0.6-0.3,0.9c-1.9,3-4.5,5.4-7.8,7.1c-3.3,1.7-7.1,2.6-11.4,2.6c-5.2,0-9.6-1.2-13.1-3.7
		c-3.5-2.5-6.1-5.9-7.7-10.3c-1.3-3.6-2-7.7-2-12.3c0-4.6,0.4-8.1,1.1-10.5c1.3-4.7,3.7-8.4,7.4-11.2c3.7-2.8,8.2-4.2,13.5-4.2
		c12.3,0,19.6,6.8,21.7,20.3c0.3,2.2,0.6,4.9,0.7,8.1c0,1.1-0.5,1.6-1.6,1.6h-30.7c-0.4,0-0.6,0.2-0.6,0.6c0,1.8,0.2,3.2,0.6,4.4
		c0.7,2.4,2.1,4.2,4.2,5.5c2,1.3,4.6,2,7.6,2C196.4,75.2,198.5,74.7,200.3,73.7z M185.7,44.5c-1.6,1.2-2.7,2.9-3.3,5.1
		c-0.5,1.3-0.7,2.7-0.8,4.2c-0.1,0.4,0.1,0.6,0.5,0.6H202c0.4,0,0.6-0.2,0.6-0.6c-0.3-2-0.5-3.2-0.6-3.6c-0.6-2.3-1.8-4.1-3.5-5.5
		c-1.7-1.4-3.9-2-6.6-2C189.4,42.7,187.4,43.3,185.7,44.5z"/>
	<path class="st15" d="M220.7,82.6V16.4c0-1.1,0.5-1.6,1.6-1.6h8.3c1.1,0,1.6,0.5,1.6,1.6v66.1c0,1.1-0.5,1.6-1.6,1.6h-8.3
		C221.3,84.1,220.7,83.6,220.7,82.6z"/>
	<path class="st15" d="M248.4,82.9c-3.1-1.2-5.6-2.9-7.3-5c-1.7-2.1-2.6-4.5-2.6-7.2v-0.5c0-1.1,0.5-1.6,1.6-1.6h7.9
		c1.1,0,1.6,0.2,1.6,0.7V70c0,1.7,0.9,3.1,2.7,4.3c1.8,1.2,4.1,1.8,6.9,1.8c2.6,0,4.8-0.5,6.4-1.6c1.6-1.1,2.5-2.5,2.5-4.1
		c0-1.5-0.7-2.7-2-3.4c-1.4-0.8-3.5-1.6-6.6-2.4l-3.8-1.2c-3.4-1-6.2-2-8.5-3.2c-2.3-1.1-4.3-2.7-5.8-4.6c-1.6-1.9-2.4-4.4-2.4-7.5
		c0-4.6,1.8-8.3,5.4-11c3.6-2.7,8.4-4.1,14.3-4.1c4,0,7.6,0.6,10.6,1.9c3,1.3,5.4,3.1,7.1,5.3c1.7,2.3,2.5,4.9,2.5,7.8
		c0,0.3-0.1,0.6-0.4,0.8c-0.3,0.2-0.7,0.3-1.1,0.3h-7.6c-1.1,0-1.6-0.2-1.6-0.6V48c0-1.7-0.8-3.2-2.5-4.3c-1.7-1.2-4-1.7-6.9-1.7
		c-2.6,0-4.7,0.5-6.3,1.4c-1.6,1-2.4,2.3-2.4,4c0,1.6,0.8,2.8,2.3,3.6c1.5,0.8,4.1,1.7,7.6,2.7l2.3,0.6c3.6,1.1,6.5,2.1,8.9,3.2
		c2.4,1.1,4.4,2.6,6,4.6c1.6,2,2.5,4.5,2.5,7.6c0,4.7-1.8,8.4-5.5,11c-3.7,2.7-8.6,4-14.8,4C255.2,84.7,251.5,84.1,248.4,82.9z"/>
	<path class="st15" d="M293.2,81c-3.8-2.6-6.4-6.3-7.8-11c-1.1-3.2-1.7-7-1.7-11.3c0-4.2,0.5-8,1.6-11.3c1.5-4.6,4.2-8.2,7.9-10.8
		s8.3-3.9,13.6-3.9c5,0,9.4,1.3,13,3.9s6.3,6.1,7.8,10.7c1.2,3.2,1.8,6.9,1.8,11.3c0,4.2-0.6,7.9-1.7,11.3c-1.5,4.7-4.1,8.4-7.8,11
		c-3.7,2.7-8.1,4-13.2,4C301.5,84.9,297,83.6,293.2,81z M313,73c1.7-1.4,3-3.3,3.7-5.8c0.7-2.1,1.1-4.9,1.1-8.3c0-3.2-0.3-6-1-8.3
		c-0.7-2.5-2-4.4-3.8-5.8c-1.8-1.4-4-2-6.5-2c-2.5,0-4.7,0.7-6.4,2c-1.8,1.4-3,3.3-3.8,5.8c-0.7,2.3-1,5.1-1,8.3c0,3.2,0.3,6,1,8.3
		c0.7,2.5,2,4.5,3.8,5.8c1.8,1.4,4,2.1,6.6,2.1C309.1,75,311.2,74.3,313,73z"/>
	<path class="st15" d="M373.2,37.5c3.2,3.2,4.8,7.5,4.8,13v32.1c0,1.1-0.5,1.6-1.6,1.6h-8.3c-1.1,0-1.6-0.5-1.6-1.6V52.9
		c0-3-0.9-5.5-2.6-7.4c-1.8-1.9-4-2.8-6.9-2.8c-2.8,0-5.1,0.9-6.9,2.8c-1.7,1.8-2.6,4.3-2.6,7.3v29.8c0,1.1-0.5,1.6-1.6,1.6h-8.3
		c-1.1,0-1.6-0.5-1.6-1.6V35.1c0-1.1,0.5-1.6,1.6-1.6h8.3c1.1,0,1.6,0.5,1.6,1.6v2.7c0,0.3,0.1,0.4,0.2,0.5c0.1,0.1,0.3,0,0.4-0.2
		c2.8-3.6,6.8-5.3,12.2-5.3C365.6,32.8,370,34.4,373.2,37.5z"/>
</g>
</svg>
