<?xml version="1.0" encoding="UTF-8" standalone="no"?>
<svg
   xmlns:dc="http://purl.org/dc/elements/1.1/"
   xmlns:cc="http://creativecommons.org/ns#"
   xmlns:rdf="http://www.w3.org/1999/02/22-rdf-syntax-ns#"
   xmlns:svg="http://www.w3.org/2000/svg"
   xmlns="http://www.w3.org/2000/svg"
   viewBox="0 0 117.33333 117.33333"
   height="117.33333"
   width="117.33333"
   xml:space="preserve"
   id="svg2"
   version="1.1"><metadata
     id="metadata8"><rdf:RDF><cc:Work
         rdf:about=""><dc:format>image/svg+xml</dc:format><dc:type
           rdf:resource="http://purl.org/dc/dcmitype/StillImage" /></cc:Work></rdf:RDF></metadata><defs
     id="defs6" /><g
     transform="matrix(1.3333333,0,0,-1.3333333,0,117.33333)"
     id="g10"><g
       transform="scale(0.1)"
       id="g12"><path
         id="path14"
         style="fill:#ecb038;fill-opacity:1;fill-rule:nonzero;stroke:none"
         d="M 440,5 C 200.141,5 5,200.137 5,440 5,679.859 200.141,875 440,875 679.863,875 875,679.859 875,440 875,200.137 679.863,5 440,5" /><path
         id="path16"
         style="fill:#211d1d;fill-opacity:1;fill-rule:nonzero;stroke:none"
         d="M 440,880 C 197.383,880 0,682.617 0,440 0,197.383 197.383,0 440,0 682.617,0 880,197.383 880,440 880,682.617 682.617,880 440,880 m 0,-10 C 677.48,870 870,677.48 870,440 870,202.52 677.48,10 440,10 202.52,10 10,202.52 10,440 10,677.48 202.52,870 440,870" /><path
         id="path18"
         style="fill:#e5f6fa;fill-opacity:1;fill-rule:nonzero;stroke:none"
         d="M 440,55 C 227.711,55 55,227.715 55,440 55,652.289 227.711,825 440,825 652.285,825 825,652.289 825,440 825,227.715 652.285,55 440,55" /><path
         id="path20"
         style="fill:#d48f1a;fill-opacity:1;fill-rule:nonzero;stroke:none"
         d="M 440,830 C 224.949,830 50,655.051 50,440 50,224.949 224.949,50 440,50 655.051,50 830,224.949 830,440 830,655.051 655.051,830 440,830 m 0,-10 C 649.863,820 820,649.867 820,440 820,230.129 649.863,60 440,60 230.133,60 60,230.129 60,440 60,649.867 230.133,820 440,820" /><path
         id="path22"
         style="fill:#ffffff;fill-opacity:1;fill-rule:nonzero;stroke:none"
         d="M 676.965,736.965 C 728.887,671.977 760,589.645 760,500 760,290.129 589.863,120 380,120 290.355,120 208.023,151.113 143.035,203.035 212.672,115.891 319.773,60 440,60 c 209.863,0 380,170.129 380,380 0,120.227 -55.891,227.328 -143.035,296.965" /><path
         id="path24"
         style="fill:#c3ced0;fill-opacity:1;fill-rule:nonzero;stroke:none"
         d="M 172.965,169.77 C 103.703,238.188 60.5781,332.973 60.0039,437.887 v 0.008 c 0,0.05 0,0.105 0,0.156 0,0.012 0,0.023 0,0.035 0,0.043 0,0.09 0,0.133 0,0.011 0,0.027 0,0.039 0,0.047 0,0.09 0,0.133 0,0.011 0,0.023 0,0.039 0,0.043 0,0.105 0,0.148 v 0.016 c 0,0.117 -0.0039,0.226 -0.0039,0.344 0,0.011 0,0.031 0,0.042 0,0.04 0,0.083 0,0.122 0,0.011 0,0.046 0,0.058 0,0.035 0,0.074 0,0.113 0,0.024 0,0.032 0,0.059 0,0.027 0,0.074 0,0.102 0,0.027 0,0.043 0,0.066 0,0.039 0,0.066 0,0.102 0,0.015 0,0.054 0,0.07 0,0.035 0,0.066 0,0.101 0,0.028 0,0.036 0,0.063 0,0.059 0,0.105 0,0.164 v 0 c 0,209.867 170.133,380 380,380 0.059,0 0.105,0 0.168,0 0.023,0 0.031,0 0.059,0 0.035,0 0.066,0 0.101,0 0.016,0 0.055,0 0.07,0 0.036,0 0.063,0 0.102,0 0.023,0 0.043,0 0.066,0 0.032,0 0.075,0 0.102,0 0.027,0 0.035,0 0.059,0 0.039,0 0.082,0 0.117,0 0.011,0 0.039,0 0.054,0 0.043,0 0.086,0 0.129,0 0.012,0 0.024,0 0.036,0 0.117,0 0.226,0 0.343,-0.004 h 0.008 c 0.051,0 0.106,0 0.16,0 0.012,0 0.02,0 0.031,0 0.043,0 0.094,0 0.137,0 0.016,0 0.024,0 0.039,0 0.043,0 0.09,0 0.137,0 0.012,0 0.016,0 0.031,0 0.051,0 0.11,0 0.16,0 h 0.004 c 104.102,-0.57 198.235,-43.039 266.524,-111.359 -10.02,10.015 -20.594,19.472 -31.672,28.328 8.941,-11.195 17.269,-22.906 24.926,-35.074 C 643.398,738.68 574.207,760 500,760 c -2.793,0 -5.574,-0.031 -8.352,-0.09 -0.734,0.75 -1.71,1.278 -2.832,1.445 -6.558,0.993 -13.179,1.782 -19.859,2.372 -0.148,0.015 -0.301,0.019 -0.445,0.019 -2.563,0 -4.746,-1.957 -4.977,-4.558 -0.027,-0.309 -0.023,-0.618 0.004,-0.915 -0.187,-0.015 -0.383,-0.035 -0.57,-0.054 v 23.734 l 6.094,1.172 V 790 h -6.094 -17.461 v -6.875 l 6.094,-1.172 v -25.008 c -1.039,-0.129 -2.086,-0.269 -3.125,-0.41 L 428.398,790 h -11.406 -6.054 v -6.875 l 6.054,-1.172 v -17.754 c -2.664,-0.187 -5.316,-0.406 -7.965,-0.656 -2.746,-0.258 -4.765,-2.699 -4.504,-5.449 0.243,-2.586 2.422,-4.528 4.969,-4.528 0.16,0 0.317,0.008 0.477,0.024 2.336,0.219 4.676,0.414 7.023,0.582 v -3.266 C 276.168,719.527 164.801,610.012 130.77,470.203 h -7.606 l -1.715,-6.269 c -0.195,0.035 -0.398,0.058 -0.601,0.07 -0.098,0.008 -0.2,0.012 -0.297,0.012 -2.629,0 -4.832,-2.051 -4.988,-4.711 -0.368,-6.27 -0.555,-12.586 -0.563,-18.946 l -2.5,-9.136 -0.234,0.039 -6.524,31.172 5.196,0.894 v 6.875 H 90 v -6.875 l 4.6484,-0.586 11.6016,-49.414 h 10.586 l 6.098,21.949 c 0.492,0.356 0.918,0.801 1.25,1.313 -1.563,-10.481 -2.7,-21.11 -3.391,-31.852 -2.16,-0.765 -3.578,-2.957 -3.281,-5.328 0.691,-5.566 1.527,-11.09 2.5,-16.566 C 120.004,381.898 120,380.949 120,380 c 0,-74.207 21.32,-143.398 58.109,-201.891 -12.168,7.657 -23.879,15.985 -35.074,24.926 9.328,-11.668 19.32,-22.773 29.93,-33.265 M 129.41,522.359 c -2.246,0 -4.285,-1.519 -4.847,-3.793 -1.602,-6.445 -3.008,-12.968 -4.219,-19.558 -0.496,-2.715 1.301,-5.32 4.015,-5.82 0.305,-0.055 0.61,-0.083 0.911,-0.083 2.367,0 4.468,1.688 4.91,4.098 1.172,6.387 2.535,12.707 4.086,18.953 0.668,2.68 -0.969,5.391 -3.649,6.059 -0.402,0.098 -0.808,0.144 -1.207,0.144 m 19.512,55.762 c -1.899,0 -3.711,-1.082 -4.551,-2.918 -2.773,-6.058 -5.367,-12.215 -7.773,-18.469 -0.993,-2.574 0.289,-5.468 2.867,-6.461 0.59,-0.226 1.199,-0.335 1.797,-0.335 2.008,0 3.902,1.218 4.668,3.207 2.332,6.054 4.843,12.023 7.535,17.894 1.148,2.512 0.047,5.477 -2.465,6.629 -0.676,0.309 -1.383,0.453 -2.078,0.453 m 29.449,51.18 c -1.566,0 -3.113,-0.735 -4.086,-2.117 -3.844,-5.446 -7.527,-11.016 -11.035,-16.704 -1.453,-2.347 -0.723,-5.429 1.629,-6.882 0.816,-0.504 1.723,-0.746 2.621,-0.746 1.676,0 3.313,0.843 4.258,2.375 3.402,5.511 6.969,10.91 10.695,16.191 1.594,2.258 1.055,5.375 -1.199,6.969 -0.879,0.617 -1.887,0.914 -2.883,0.914 m 38.317,44.902 c -1.258,0 -2.516,-0.473 -3.489,-1.422 -4.777,-4.652 -9.41,-9.453 -13.894,-14.39 -1.856,-2.047 -1.703,-5.207 0.34,-7.067 0.96,-0.867 2.164,-1.297 3.363,-1.297 1.359,0 2.715,0.551 3.703,1.641 v 0 c 4.344,4.785 8.836,9.441 13.469,13.953 1.976,1.926 2.019,5.094 0.09,7.07 -0.981,1.004 -2.282,1.512 -3.582,1.512 m 45.855,37.133 c -0.953,0 -1.918,-0.273 -2.77,-0.844 -5.55,-3.707 -10.98,-7.574 -16.281,-11.605 -2.199,-1.672 -2.625,-4.809 -0.957,-7.008 0.985,-1.293 2.477,-1.973 3.985,-1.973 1.054,0 2.121,0.332 3.023,1.02 5.141,3.906 10.402,7.66 15.781,11.25 2.297,1.535 2.918,4.637 1.383,6.933 -0.965,1.446 -2.547,2.227 -4.164,2.227 m 51.863,28.082 c -0.656,0 -1.32,-0.133 -1.961,-0.406 -6.14,-2.621 -12.183,-5.426 -18.125,-8.41 -2.465,-1.239 -3.461,-4.247 -2.222,-6.711 0.879,-1.75 2.64,-2.758 4.472,-2.758 0.754,0 1.52,0.172 2.243,0.531 5.753,2.891 11.609,5.609 17.558,8.152 2.539,1.086 3.719,4.024 2.637,6.563 -0.813,1.898 -2.66,3.039 -4.602,3.039 m 56.199,18.039 c -0.355,0 -0.718,-0.039 -1.082,-0.121 -6.543,-1.445 -13.007,-3.09 -19.39,-4.922 -2.656,-0.762 -4.192,-3.531 -3.43,-6.184 0.633,-2.195 2.633,-3.625 4.805,-3.625 0.457,0 0.922,0.067 1.383,0.2 6.187,1.773 12.453,3.367 18.789,4.769 2.699,0.594 4.398,3.266 3.804,5.961 -0.515,2.332 -2.586,3.922 -4.879,3.922 M 125.004,441.832 c 0.004,0.309 0.004,0.617 0.008,0.926 l 0.371,1.332 c -0.129,-0.746 -0.254,-1.512 -0.379,-2.258 m 303.394,311.434 v 1.527 c 0.309,0.008 0.618,0.02 0.922,0.031 2.762,0.09 4.922,2.403 4.832,5.16 -0.089,2.707 -2.308,4.836 -4.996,4.836 -0.054,0 -0.109,0 -0.168,-0.004 -0.195,-0.003 -0.394,-0.011 -0.59,-0.019 v 6.57 l 0.235,0.039 9.82,-16.363 c -3.367,-0.551 -6.719,-1.141 -10.055,-1.777" /><path
         id="path26"
         style="fill:#b77d20;fill-opacity:1;fill-rule:nonzero;stroke:none"
         d="m 60.0039,437.887 v 0.008 -0.008 m 0,0.164 c 0,0.015 0,0.019 0,0.035 0,-0.012 0,-0.023 0,-0.035 m 0,0.168 c 0,0.011 0,0.023 0,0.039 0,-0.012 0,-0.028 0,-0.039 m 0,0.172 c 0,0.015 0,0.023 0,0.039 0,-0.016 0,-0.028 0,-0.039 m 0,0.187 c 0,0.008 0,0.012 0,0.016 v -0.016 M 60,438.938 c 0,0.011 0,0.031 0,0.042 0,-0.011 0,-0.031 0,-0.042 m 0,0.164 c 0,0.019 0,0.035 0,0.058 0,-0.012 0,-0.047 0,-0.058 m 0,0.171 c 0,0.024 0,0.036 0,0.059 0,-0.027 0,-0.035 0,-0.059 m 0,0.161 c 0,0.023 0,0.046 0,0.066 0,-0.023 0,-0.039 0,-0.066 m 0,0.168 c 0,0.023 0,0.046 0,0.07 0,-0.016 0,-0.055 0,-0.07 m 0,0.171 c 0,0.016 0,0.047 0,0.063 0,-0.027 0,-0.035 0,-0.063 M 60,440 v 0 0 0 m 382.113,379.996 h -0.004 0.004 m -0.164,0 c -0.015,0 -0.019,0 -0.031,0 0.016,0 0.016,0 0.031,0 m -0.168,0 c -0.015,0 -0.023,0 -0.039,0 0.016,0 0.024,0 0.039,0 m -0.176,0 c -0.011,0 -0.019,0 -0.031,0 0.012,0 0.016,0 0.031,0 m -0.191,0 h -0.008 0.008 M 441.063,820 c -0.012,0 -0.024,0 -0.036,0 0.008,0 0.028,0 0.036,0 m -0.165,0 c -0.015,0 -0.043,0 -0.054,0 0.023,0 0.031,0 0.054,0 m -0.171,0 c -0.024,0 -0.032,0 -0.059,0 0.023,0 0.035,0 0.059,0 m -0.161,0 c -0.023,0 -0.043,0 -0.066,0 0.02,0 0.047,0 0.066,0 m -0.168,0 c -0.015,0 -0.054,0 -0.07,0 0.024,0 0.047,0 0.07,0 m -0.171,0 c -0.028,0 -0.036,0 -0.059,0 0.012,0 0.043,0 0.059,0" /><path
         id="path28"
         style="fill:#d9d5d4;fill-opacity:1;fill-rule:nonzero;stroke:none"
         d="m 203.035,143.035 c -10.488,8.383 -20.527,17.313 -30.07,26.735 -10.61,10.492 -20.602,21.597 -29.93,33.265 11.195,-8.941 22.906,-17.269 35.074,-24.926 7.657,-12.168 15.985,-23.879 24.926,-35.074 m 533.93,533.93 c -11.195,8.941 -22.906,17.269 -35.074,24.926 -7.657,12.168 -15.985,23.879 -24.926,35.074 11.078,-8.856 21.652,-18.313 31.672,-28.328 10.011,-10.02 19.472,-20.594 28.328,-31.672" /><path
         id="path30"
         style="fill:#68c0d4;fill-opacity:1;fill-rule:nonzero;stroke:none"
         d="m 440,690 -4.863,1.168 L 374.859,440 440,168.574 505.141,440 440,711.426 435.137,691.168 440,690 435.137,688.836 494.859,440 440,211.426 385.141,440 444.863,688.836 440,690 435.137,688.836 440,690" /><path
         id="path32"
         style="fill:#68c0d4;fill-opacity:1;fill-rule:nonzero;stroke:none"
         d="m 574.348,574.352 -2.309,4.433 -178.176,-92.656 -99.957,-192.227 192.235,99.969 99.945,192.223 -14.047,-7.309 2.309,-4.433 -4.438,2.304 -91.187,-175.371 -161.332,-83.898 83.89,161.328 175.371,91.199 -2.304,4.438 -4.438,2.304 4.438,-2.304" /><path
         id="path34"
         style="fill:#68c0d4;fill-opacity:1;fill-rule:nonzero;stroke:none"
         d="m 305.648,574.352 -4.433,-2.309 92.648,-178.184 192.223,-99.957 -99.957,192.239 -192.219,99.949 7.305,-14.047 4.433,2.309 -2.304,-4.438 175.371,-91.191 83.89,-161.336 -161.324,83.89 -91.195,175.379 -4.438,-2.304 -2.304,-4.438 2.304,4.438" /><path
         id="path36"
         style="fill:#68c0d4;fill-opacity:1;fill-rule:nonzero;stroke:none"
         d="M 190,440 188.832,435.141 440,374.859 711.426,440 440,505.141 168.574,440 188.832,435.141 190,440 191.168,435.141 440,494.859 668.574,440 440,385.141 191.168,444.863 190,440 191.168,435.141 190,440" /><path
         id="path38"
         style="fill:#ade4e7;fill-opacity:1;fill-rule:nonzero;stroke:none"
         d="m 749.699,382.145 c -1.183,-6.383 -2.562,-12.7 -4.129,-18.946 -0.668,-2.676 0.957,-5.39 3.637,-6.062 2.68,-0.672 5.395,0.957 6.066,3.633 1.614,6.445 3.036,12.96 4.258,19.55 0.504,2.715 -1.289,5.325 -4.004,5.828 -2.714,0.504 -5.324,-1.289 -5.828,-4.003 m -15.867,-55.907 c -2.344,-6.05 -4.871,-12.011 -7.574,-17.879 -1.156,-2.507 -0.059,-5.476 2.449,-6.632 2.508,-1.157 5.481,-0.059 6.633,2.449 2.789,6.051 5.394,12.203 7.816,18.449 0.996,2.574 -0.281,5.473 -2.855,6.469 -2.574,1 -5.473,-0.281 -6.469,-2.856 m -25.941,-52.027 c -3.414,-5.508 -6.993,-10.898 -10.731,-16.168 -1.597,-2.254 -1.062,-5.375 1.188,-6.973 2.254,-1.597 5.375,-1.062 6.972,1.188 3.856,5.437 7.547,11.004 11.071,16.68 1.453,2.347 0.73,5.429 -1.618,6.886 -2.343,1.453 -5.425,0.735 -6.882,-1.613 m -35.047,-46.367 c -4.36,-4.778 -8.86,-9.422 -13.5,-13.926 -1.985,-1.922 -2.031,-5.09 -0.106,-7.07 1.922,-1.981 5.086,-2.028 7.071,-0.106 4.785,4.645 9.429,9.438 13.921,14.363 1.864,2.043 1.715,5.204 -0.324,7.067 -2.043,1.859 -5.203,1.715 -7.062,-0.328 m -42.918,-39.168 c -5.149,-3.895 -10.418,-7.637 -15.805,-11.215 -2.301,-1.531 -2.926,-4.633 -1.398,-6.934 1.531,-2.3 4.632,-2.925 6.933,-1.394 5.559,3.691 10.996,7.551 16.305,11.57 2.203,1.668 2.637,4.805 0.969,7.004 -1.664,2.203 -4.801,2.637 -7.004,0.969 m -49.332,-30.637 c -5.762,-2.879 -11.621,-5.586 -17.578,-8.113 -2.543,-1.078 -3.727,-4.016 -2.649,-6.559 1.078,-2.539 4.016,-3.726 6.559,-2.644 6.144,2.605 12.191,5.402 18.137,8.371 2.472,1.234 3.472,4.238 2.238,6.707 -1.235,2.472 -4.235,3.472 -6.707,2.238 v 0 m -54.121,-21.023 c -6.196,-1.762 -12.461,-3.34 -18.801,-4.731 -2.699,-0.59 -4.406,-3.254 -3.817,-5.953 0.59,-2.695 3.254,-4.406 5.954,-3.816 6.543,1.433 13.011,3.062 19.402,4.882 2.656,0.758 4.195,3.524 3.437,6.18 -0.753,2.656 -3.523,4.195 -6.175,3.438 m -57.106,-10.664 c -6.394,-0.59 -12.851,-0.993 -19.351,-1.196 -2.762,-0.086 -4.93,-2.394 -4.844,-5.152 0.086,-2.762 2.394,-4.93 5.152,-4.844 6.707,0.211 13.364,0.621 19.965,1.235 2.75,0.253 4.774,2.687 4.52,5.437 -0.254,2.75 -2.692,4.773 -5.442,4.52 m -58.105,-0.059 c -6.477,0.586 -12.895,1.367 -19.246,2.34 -2.731,0.418 -5.282,-1.457 -5.7,-4.188 -0.418,-2.73 1.457,-5.281 4.188,-5.699 6.559,-1.004 13.18,-1.808 19.855,-2.41 2.75,-0.25 5.184,1.777 5.434,4.527 0.246,2.75 -1.781,5.184 -4.531,5.43 m -57.125,10.551 c -6.242,1.765 -12.407,3.715 -18.485,5.847 -2.605,0.918 -5.461,-0.453 -6.375,-3.058 -0.914,-2.61 0.457,-5.461 3.063,-6.375 6.273,-2.203 12.633,-4.215 19.078,-6.039 2.656,-0.75 5.418,0.797 6.172,3.453 0.75,2.656 -0.797,5.422 -3.453,6.172 m -54.207,20.933 c -5.809,2.887 -11.508,5.95 -17.106,9.176 -2.39,1.383 -5.449,0.559 -6.828,-1.832 -1.383,-2.391 -0.562,-5.449 1.832,-6.828 5.774,-3.332 11.656,-6.488 17.649,-9.469 2.472,-1.23 5.472,-0.222 6.703,2.25 1.23,2.473 0.222,5.473 -2.25,6.703 m -49.438,30.582 c -5.168,3.899 -10.211,7.95 -15.121,12.153 -2.098,1.793 -5.254,1.547 -7.051,-0.551 -1.793,-2.098 -1.547,-5.254 0.551,-7.051 5.067,-4.332 10.27,-8.515 15.602,-12.535 2.203,-1.664 5.34,-1.223 7,0.98 1.664,2.204 1.226,5.34 -0.981,7.004 m -42.988,39.106 c -4.359,4.765 -8.578,9.668 -12.641,14.699 -1.734,2.149 -4.883,2.481 -7.031,0.746 -2.148,-1.734 -2.484,-4.883 -0.746,-7.031 4.191,-5.188 8.543,-10.246 13.039,-15.164 1.863,-2.039 5.027,-2.18 7.063,-0.317 2.039,1.864 2.179,5.028 0.316,7.067 v 0 m -35.106,46.277 c -3.41,5.477 -6.656,11.063 -9.726,16.754 -1.317,2.43 -4.348,3.332 -6.777,2.024 -2.43,-1.317 -3.336,-4.348 -2.024,-6.778 3.172,-5.875 6.52,-11.637 10.039,-17.285 1.457,-2.344 4.543,-3.062 6.887,-1.602 2.344,1.461 3.058,4.543 1.601,6.887 m -26,51.903 c -2.339,6.003 -4.5,12.097 -6.476,18.273 -0.844,2.629 -3.656,4.078 -6.285,3.238 -2.633,-0.84 -4.082,-3.656 -3.239,-6.285 2.04,-6.375 4.266,-12.66 6.684,-18.859 1.004,-2.571 3.902,-3.844 6.473,-2.84 2.574,1 3.847,3.898 2.843,6.473 m -15.976,55.847 c -1.188,6.321 -2.184,12.707 -2.988,19.156 -0.34,2.739 -2.84,4.684 -5.579,4.344 -2.742,-0.344 -4.687,-2.84 -4.343,-5.582 0.828,-6.652 1.855,-13.242 3.082,-19.762 0.511,-2.714 3.125,-4.503 5.836,-3.992 2.715,0.512 4.504,3.121 3.992,5.836 M 125,439.336 V 440 c 0,6.285 0.184,12.527 0.547,18.723 0.16,2.754 -1.942,5.121 -4.699,5.281 -2.758,0.16 -5.121,-1.941 -5.285,-4.699 C 115.191,452.918 115,446.48 115,440 v -0.684 c 0.008,-2.761 2.25,-4.996 5.012,-4.992 2.761,0.008 4.996,2.25 4.988,5.012 m 5.18,57.867 c 1.172,6.387 2.535,12.707 4.086,18.953 0.668,2.68 -0.969,5.391 -3.649,6.059 -2.679,0.664 -5.39,-0.969 -6.054,-3.649 -1.602,-6.445 -3.008,-12.968 -4.219,-19.558 -0.496,-2.715 1.301,-5.32 4.015,-5.82 2.715,-0.497 5.325,1.3 5.821,4.015 m 15.75,55.942 c 2.332,6.054 4.843,12.023 7.535,17.894 1.148,2.512 0.047,5.477 -2.465,6.629 -2.512,1.148 -5.48,0.047 -6.629,-2.465 -2.773,-6.058 -5.367,-12.215 -7.773,-18.469 -0.993,-2.574 0.289,-5.468 2.867,-6.461 2.578,-0.992 5.473,0.293 6.465,2.872 m 25.828,52.082 c 3.402,5.511 6.969,10.91 10.695,16.191 1.594,2.258 1.055,5.375 -1.199,6.969 -2.258,1.593 -5.379,1.054 -6.969,-1.203 -3.844,-5.446 -7.527,-11.016 -11.035,-16.704 -1.453,-2.347 -0.723,-5.429 1.629,-6.882 2.348,-1.45 5.43,-0.719 6.879,1.629 m 34.953,46.441 c 4.344,4.785 8.836,9.441 13.469,13.953 1.976,1.926 2.019,5.094 0.09,7.07 -1.926,1.977 -5.09,2.02 -7.071,0.09 -4.777,-4.652 -9.41,-9.453 -13.894,-14.39 -1.856,-2.047 -1.703,-5.207 0.34,-7.067 2.046,-1.855 5.207,-1.703 7.066,0.344 v 0 m 42.832,39.258 c 5.141,3.906 10.402,7.66 15.781,11.25 2.297,1.535 2.918,4.637 1.383,6.933 -1.531,2.297 -4.637,2.918 -6.934,1.383 -5.55,-3.707 -10.98,-7.574 -16.281,-11.605 -2.199,-1.672 -2.625,-4.809 -0.957,-7.008 1.672,-2.199 4.809,-2.625 7.008,-0.953 m 49.27,30.738 c 5.753,2.891 11.609,5.609 17.558,8.152 2.539,1.086 3.719,4.024 2.637,6.563 -1.086,2.539 -4.024,3.719 -6.563,2.633 -6.14,-2.621 -12.183,-5.426 -18.125,-8.41 -2.465,-1.239 -3.461,-4.247 -2.222,-6.711 1.242,-2.469 4.246,-3.465 6.715,-2.227 m 54.078,21.141 c 6.187,1.773 12.453,3.367 18.789,4.769 2.699,0.594 4.398,3.266 3.804,5.961 -0.597,2.695 -3.265,4.399 -5.961,3.801 -6.543,-1.445 -13.007,-3.09 -19.39,-4.922 -2.656,-0.762 -4.192,-3.531 -3.43,-6.184 0.766,-2.656 3.535,-4.187 6.188,-3.425 m 57.078,10.785 c 6.398,0.601 12.851,1.015 19.351,1.234 2.762,0.09 4.922,2.403 4.832,5.16 -0.093,2.762 -2.402,4.926 -5.164,4.832 -6.707,-0.222 -13.359,-0.648 -19.961,-1.273 -2.746,-0.258 -4.765,-2.699 -4.504,-5.449 0.258,-2.746 2.7,-4.766 5.446,-4.504 m 58.105,0.176 c 6.477,-0.571 12.899,-1.34 19.254,-2.297 2.731,-0.41 5.277,1.469 5.692,4.199 0.41,2.73 -1.469,5.277 -4.204,5.687 -6.558,0.993 -13.179,1.782 -19.859,2.372 -2.754,0.246 -5.18,-1.789 -5.422,-4.539 -0.242,-2.75 1.789,-5.18 4.539,-5.422 m 57.149,-10.43 c 6.246,-1.75 12.414,-3.688 18.496,-5.809 2.609,-0.91 5.461,0.469 6.367,3.075 0.91,2.609 -0.469,5.461 -3.074,6.367 -6.278,2.187 -12.645,4.191 -19.09,5.996 -2.656,0.746 -5.418,-0.805 -6.164,-3.465 -0.742,-2.656 0.808,-5.418 3.465,-6.164 m 54.254,-20.816 c 5.812,-2.875 11.519,-5.926 17.125,-9.141 2.394,-1.375 5.449,-0.551 6.824,1.848 1.375,2.394 0.547,5.449 -1.848,6.824 -5.777,3.316 -11.672,6.465 -17.668,9.429 -2.476,1.227 -5.472,0.211 -6.699,-2.265 -1.223,-2.473 -0.211,-5.473 2.266,-6.695 m 49.5,-30.477 c 5.175,-3.887 10.226,-7.93 15.148,-12.121 2.102,-1.789 5.258,-1.539 7.047,0.562 1.793,2.106 1.539,5.258 -0.563,7.051 -5.078,4.324 -10.289,8.492 -15.629,12.5 -2.207,1.66 -5.339,1.215 -7,-0.992 -1.656,-2.207 -1.21,-5.344 0.997,-7 m 43.07,-39.016 c 4.371,-4.757 8.598,-9.652 12.672,-14.675 1.742,-2.141 4.89,-2.469 7.035,-0.731 2.144,1.738 2.473,4.891 0.73,7.031 -4.203,5.184 -8.562,10.231 -13.074,15.141 -1.867,2.031 -5.027,2.168 -7.062,0.297 -2.035,-1.867 -2.168,-5.031 -0.301,-7.063 M 707.25,606.82 c 3.422,-5.468 6.68,-11.047 9.766,-16.73 1.316,-2.43 4.351,-3.328 6.777,-2.012 2.43,1.32 3.328,4.356 2.012,6.781 -3.188,5.868 -6.547,11.625 -10.075,17.266 -1.464,2.34 -4.55,3.051 -6.89,1.586 -2.344,-1.465 -3.055,-4.551 -1.59,-6.891 v 0 m 26.109,-51.847 c 2.356,-5.996 4.528,-12.086 6.516,-18.258 0.848,-2.629 3.664,-4.074 6.293,-3.227 2.629,0.848 4.074,3.664 3.227,6.293 -2.055,6.371 -4.297,12.653 -6.723,18.844 -1.012,2.57 -3.91,3.836 -6.484,2.828 -2.571,-1.008 -3.836,-3.91 -2.829,-6.48 v 0 m 16.094,-55.813 c 1.203,-6.32 2.215,-12.703 3.031,-19.148 0.348,-2.742 2.848,-4.68 5.59,-4.332 2.739,0.347 4.676,2.847 4.328,5.59 -0.839,6.648 -1.886,13.238 -3.125,19.757 -0.515,2.711 -3.132,4.493 -5.843,3.977 -2.715,-0.516 -4.496,-3.133 -3.981,-5.844 M 754.996,441.328 755,440 c 0,-6.508 -0.195,-12.973 -0.586,-19.383 -0.168,-2.758 1.93,-5.125 4.688,-5.293 2.757,-0.168 5.125,1.93 5.293,4.688 0.402,6.613 0.605,13.277 0.605,19.988 l -0.004,1.371 c -0.012,2.762 -2.258,4.988 -5.019,4.981 -2.762,-0.012 -4.993,-2.262 -4.981,-5.024 v 0" /><path
         id="path40"
         style="fill:#ade4e7;fill-opacity:1;fill-rule:nonzero;stroke:none"
         d="m 667.684,381.586 c -1.633,-6.387 -3.528,-12.668 -5.672,-18.832 -0.91,-2.609 0.468,-5.457 3.078,-6.367 2.609,-0.907 5.457,0.472 6.363,3.082 2.238,6.426 4.215,12.976 5.918,19.636 0.684,2.676 -0.93,5.399 -3.605,6.083 -2.676,0.687 -5.399,-0.926 -6.082,-3.602 M 646.012,326.84 c -3.172,-5.762 -6.578,-11.375 -10.203,-16.828 -1.532,-2.297 -0.907,-5.403 1.39,-6.934 2.301,-1.527 5.403,-0.902 6.934,1.395 3.781,5.683 7.332,11.539 10.637,17.543 1.332,2.418 0.453,5.461 -1.969,6.793 -2.418,1.332 -5.457,0.449 -6.789,-1.969 m -34.633,-47.637 c -4.492,-4.781 -9.18,-9.379 -14.055,-13.773 -2.047,-1.848 -2.211,-5.008 -0.363,-7.063 1.852,-2.047 5.012,-2.211 7.062,-0.363 5.079,4.582 9.965,9.371 14.645,14.355 1.891,2.016 1.789,5.18 -0.223,7.071 -2.015,1.886 -5.179,1.789 -7.066,-0.227 m -45.332,-37.574 c -5.52,-3.516 -11.195,-6.809 -17.016,-9.859 -2.445,-1.286 -3.386,-4.305 -2.105,-6.75 1.285,-2.446 4.304,-3.387 6.75,-2.106 6.07,3.184 11.988,6.613 17.742,10.277 2.328,1.485 3.016,4.575 1.531,6.903 -1.484,2.332 -4.574,3.015 -6.902,1.535 v 0 M 512.816,216.5 c -6.203,-2.023 -12.519,-3.789 -18.941,-5.297 -2.687,-0.629 -4.355,-3.32 -3.727,-6.008 0.633,-2.687 3.325,-4.355 6.012,-3.726 6.692,1.57 13.281,3.414 19.75,5.519 2.629,0.856 4.063,3.676 3.207,6.305 -0.851,2.625 -3.676,4.059 -6.301,3.207 M 454.992,205.473 C 450.035,205.16 445.035,205 440,205 c -1.562,0 -3.125,0.016 -4.68,0.047 -2.761,0.055 -5.043,-2.141 -5.097,-4.902 -0.055,-2.762 2.14,-5.043 4.898,-5.098 1.625,-0.031 3.25,-0.047 4.879,-0.047 5.246,0 10.457,0.164 15.621,0.492 2.758,0.172 4.852,2.547 4.676,5.305 -0.172,2.754 -2.547,4.848 -5.305,4.676 m -58.773,3.597 c -6.485,1.223 -12.871,2.711 -19.156,4.453 -2.661,0.739 -5.418,-0.824 -6.157,-3.484 -0.734,-2.66 0.824,-5.414 3.485,-6.152 6.55,-1.817 13.214,-3.371 19.976,-4.645 2.715,-0.512 5.328,1.274 5.84,3.988 0.512,2.715 -1.273,5.329 -3.988,5.84 m -56.028,18.114 c -5.953,2.8 -11.773,5.839 -17.441,9.109 -2.391,1.383 -5.449,0.559 -6.828,-1.832 -1.383,-2.391 -0.563,-5.449 1.832,-6.828 5.91,-3.41 11.976,-6.582 18.187,-9.5 2.5,-1.172 5.477,-0.098 6.653,2.398 1.172,2.5 0.097,5.481 -2.403,6.653 v 0 m -49.738,31.535 c -5.062,4.179 -9.945,8.566 -14.637,13.148 -1.976,1.93 -5.14,1.895 -7.07,-0.082 -1.93,-1.976 -1.894,-5.14 0.082,-7.07 4.891,-4.777 9.981,-9.352 15.258,-13.707 2.129,-1.762 5.277,-1.457 7.035,0.672 1.762,2.129 1.461,5.281 -0.668,7.039 m -40.383,42.859 c -3.859,5.289 -7.504,10.746 -10.922,16.356 -1.437,2.359 -4.511,3.105 -6.871,1.671 -2.359,-1.437 -3.105,-4.515 -1.672,-6.871 3.567,-5.851 7.368,-11.539 11.391,-17.05 1.629,-2.231 4.758,-2.719 6.988,-1.09 2.231,1.629 2.715,4.754 1.09,6.984 h -0.004 m -28.476,51.504 c -2.414,6.066 -4.586,12.258 -6.5,18.563 -0.801,2.64 -3.594,4.132 -6.235,3.332 -2.644,-0.801 -4.136,-3.594 -3.332,-6.239 1.993,-6.57 4.258,-13.027 6.778,-19.355 1.023,-2.567 3.929,-3.817 6.496,-2.793 2.566,1.019 3.816,3.93 2.793,6.492 m -14.707,56.996 c -0.821,6.453 -1.379,12.988 -1.664,19.598 -0.121,2.758 -2.453,4.898 -5.211,4.781 -2.758,-0.121 -4.899,-2.453 -4.782,-5.211 0.297,-6.887 0.879,-13.699 1.735,-20.43 0.348,-2.738 2.851,-4.679 5.594,-4.328 2.738,0.348 4.675,2.852 4.328,5.59 v 0 m -0.121,58.887 c 0.804,6.555 1.882,13.027 3.214,19.402 0.567,2.703 -1.167,5.352 -3.871,5.918 -2.703,0.567 -5.351,-1.168 -5.918,-3.871 -1.39,-6.648 -2.511,-13.394 -3.351,-20.23 -0.336,-2.743 1.613,-5.235 4.355,-5.575 2.739,-0.336 5.235,1.614 5.571,4.356 m 14.48,57.078 c 2.414,6.125 5.074,12.125 7.977,17.988 1.222,2.477 0.211,5.477 -2.266,6.699 -2.477,1.223 -5.477,0.211 -6.699,-2.265 -3.024,-6.113 -5.801,-12.371 -8.317,-18.762 -1.007,-2.57 0.254,-5.473 2.825,-6.484 2.57,-1.012 5.472,0.254 6.48,2.824 m 28.297,51.648 c 3.852,5.321 7.922,10.473 12.195,15.442 1.801,2.094 1.563,5.254 -0.531,7.051 -2.094,1.8 -5.25,1.566 -7.051,-0.532 -4.457,-5.179 -8.695,-10.55 -12.715,-16.093 -1.617,-2.239 -1.117,-5.364 1.118,-6.985 2.238,-1.617 5.363,-1.117 6.984,1.117 m 40.219,43.02 c 5.035,4.191 10.25,8.176 15.629,11.941 2.261,1.586 2.812,4.703 1.23,6.965 -1.586,2.262 -4.703,2.813 -6.965,1.231 -5.605,-3.926 -11.043,-8.082 -16.293,-12.45 -2.121,-1.769 -2.41,-4.921 -0.644,-7.043 1.765,-2.121 4.918,-2.41 7.043,-0.644 v 0 m 49.593,31.707 c 5.899,2.805 11.938,5.363 18.094,7.676 2.586,0.969 3.899,3.851 2.926,6.437 -0.969,2.586 -3.852,3.895 -6.437,2.926 -6.422,-2.41 -12.719,-5.082 -18.872,-8.004 -2.496,-1.183 -3.558,-4.168 -2.375,-6.66 1.188,-2.496 4.168,-3.559 6.664,-2.375 m 55.922,18.332 c 6.395,1.234 12.883,2.207 19.45,2.906 2.746,0.293 4.734,2.758 4.441,5.504 -0.293,2.746 -2.758,4.735 -5.5,4.442 -6.852,-0.735 -13.613,-1.747 -20.281,-3.032 -2.711,-0.523 -4.489,-3.144 -3.965,-5.855 0.523,-2.711 3.144,-4.485 5.855,-3.965 m 58.754,3.84 c 6.602,-0.391 13.129,-1.051 19.571,-1.973 2.734,-0.39 5.265,1.508 5.66,4.242 0.39,2.731 -1.508,5.266 -4.242,5.657 -6.719,0.961 -13.52,1.652 -20.403,2.054 -2.754,0.164 -5.121,-1.941 -5.281,-4.695 -0.164,-2.758 1.937,-5.125 4.695,-5.285 m 57.867,-10.789 c 6.278,-2.016 12.438,-4.289 18.469,-6.805 2.551,-1.062 5.477,0.145 6.539,2.692 1.063,2.55 -0.14,5.476 -2.687,6.539 -6.293,2.625 -12.719,4.992 -19.262,7.093 -2.629,0.844 -5.445,-0.601 -6.289,-3.23 -0.844,-2.629 0.602,-5.445 3.23,-6.289 m 53.36,-24.93 c 5.558,-3.508 10.957,-7.242 16.187,-11.187 2.203,-1.664 5.34,-1.227 7.004,0.976 1.664,2.203 1.227,5.34 -0.98,7.004 -5.449,4.113 -11.078,8.008 -16.871,11.664 -2.336,1.477 -5.426,0.777 -6.899,-1.558 -1.472,-2.336 -0.773,-5.422 1.559,-6.899 m 45.488,-37.406 c 4.508,-4.762 8.817,-9.715 12.914,-14.844 1.723,-2.156 4.871,-2.504 7.028,-0.781 2.156,1.723 2.507,4.871 0.785,7.027 -4.274,5.344 -8.766,10.504 -13.461,15.473 -1.899,2.004 -5.063,2.094 -7.071,0.195 -2.003,-1.898 -2.093,-5.062 -0.195,-7.07 m 34.809,-47.481 c 3.175,-5.714 6.121,-11.574 8.824,-17.57 1.133,-2.519 4.094,-3.641 6.609,-2.504 2.52,1.133 3.641,4.094 2.504,6.61 -2.812,6.253 -5.883,12.363 -9.195,18.324 -1.344,2.414 -4.387,3.281 -6.801,1.941 -2.414,-1.344 -3.281,-4.387 -1.941,-6.801 v 0 m 21.886,-54.636 c 1.645,-6.305 3.028,-12.719 4.149,-19.223 0.469,-2.723 3.055,-4.547 5.773,-4.078 2.723,0.465 4.547,3.051 4.082,5.773 -1.168,6.782 -2.613,13.469 -4.324,20.047 -0.695,2.672 -3.426,4.278 -6.098,3.578 -2.671,-0.691 -4.277,-3.422 -3.582,-6.097 v 0 M 675,440.961 V 440 c 0,-6.621 -0.273,-13.176 -0.809,-19.656 -0.23,-2.75 1.817,-5.168 4.571,-5.395 2.75,-0.226 5.168,1.817 5.394,4.571 0.559,6.753 0.844,13.585 0.844,20.48 v 1 c -0.012,2.762 -2.262,4.992 -5.023,4.98 -2.758,-0.011 -4.989,-2.257 -4.977,-5.019" /><path
         id="path42"
         style="fill:#b1e5ea;fill-opacity:1;fill-rule:nonzero;stroke:none"
         d="m 473.242,530.07 h -0.211 L 445,632.715 v 15.027 L 473.242,530.07 m -66.273,0.004 h -0.211 L 435,647.742 V 632.715 L 406.969,530.074" /><path
         id="path44"
         style="fill:#74cad8;fill-opacity:1;fill-rule:nonzero;stroke:none"
         d="m 478.355,530.07 h -5.113 L 445,647.742 V 670 H 435 V 647.742 L 406.758,530.074 h -5.117 l -4.411,2.293 42.77,156.613 42.773,-156.617 -4.418,-2.293" /><path
         id="path46"
         style="fill:#74cad8;fill-opacity:1;fill-rule:nonzero;stroke:none"
         d="m 478.359,530.07 h -0.004 l 4.418,2.293 v 0 l -4.414,-2.293" /><path
         id="path48"
         style="fill:#74cad8;fill-opacity:1;fill-rule:nonzero;stroke:none"
         d="m 401.641,530.074 h -0.008 l -4.406,2.289 0.003,0.004 4.411,-2.293" /><path
         id="path50"
         style="fill:#74cad8;fill-opacity:1;fill-rule:nonzero;stroke:none"
         d="m 440,191.02 -1.086,3.984 C 439.273,195 439.637,195 440,195 c 0.363,0 0.727,0 1.09,0.004 L 440,191.02" /><path
         id="path52"
         style="fill:#b1e5ea;fill-opacity:1;fill-rule:nonzero;stroke:none"
         d="m 435,232.258 -21.621,90.082 0.957,0.609 L 435,247.285 v -15.027 m 10,0 v 15.035 l 28.027,102.641 h 0.215 L 445,232.258" /><path
         id="path54"
         style="fill:#74cad8;fill-opacity:1;fill-rule:nonzero;stroke:none"
         d="m 440,205 c -1.277,0 -2.555,0.012 -3.824,0.031 l -30.672,112.297 7.875,5.012 L 435,232.258 V 210 h 10 v 22.258 l 28.242,117.676 h 5.102 l 4.422,-2.301 -38.942,-142.602 C 442.555,205.012 441.277,205 440,205" /><path
         id="path56"
         style="fill:#74cad8;fill-opacity:1;fill-rule:nonzero;stroke:none"
         d="m 482.766,347.633 -4.422,2.301 h 0.011 l 4.415,-2.297 -0.004,-0.004" /><path
         id="path58"
         style="fill:#95dce2;fill-opacity:1;fill-rule:nonzero;stroke:none"
         d="m 440,195 c -0.363,0 -0.727,0 -1.086,0.004 l -2.738,10.027 C 437.445,205.012 438.723,205 440,205 c 1.277,0 2.555,0.012 3.824,0.031 L 441.09,195.004 C 440.727,195 440.363,195 440,195" /><path
         id="path60"
         style="fill:#b1e5ea;fill-opacity:1;fill-rule:nonzero;stroke:none"
         d="m 487.938,523.781 v 0 l 59.937,31.168 v 0 l -59.937,-31.168 m 89.027,44.77 9.121,17.543 v 0 l -9.121,-17.543 v 0" /><path
         id="path62"
         style="fill:#74cad8;fill-opacity:1;fill-rule:nonzero;stroke:none"
         d="m 487.938,523.781 -6.286,6.289 h -3.293 l 4.414,2.293 103.313,53.731 -9.121,-17.543 -3.934,-2.582 4.852,4.847 -7.074,7.071 -22.934,-22.938 -59.937,-31.168" /><path
         id="path64"
         style="fill:#b1e5ea;fill-opacity:1;fill-rule:nonzero;stroke:none"
         d="m 293.91,293.902 v 0 l 13.035,6.782 -13.035,-6.782 m 8.586,16.52 45.043,86.629 0.004,-0.004 -45.047,-86.625" /><path
         id="path66"
         style="fill:#74cad8;fill-opacity:1;fill-rule:nonzero;stroke:none"
         d="m 293.91,293.902 8.586,16.52 45.047,86.625 4.848,-1.164 3.824,-3.82 -31.164,-59.942 -22.938,-22.941 7.071,-7.071 18.867,18.868 -8.863,-13.926 -12.243,-6.367 -13.039,-6.782" /><path
         id="path68"
         style="fill:#74cad8;fill-opacity:1;fill-rule:nonzero;stroke:none"
         d="m 352.391,395.883 -4.848,1.164 -0.004,0.004 0.094,0.179 4.695,-1.285 0.063,-0.062" /><path
         id="path70"
         style="fill:#b1e5ea;fill-opacity:1;fill-rule:nonzero;stroke:none"
         d="m 356.215,487.941 -31.164,59.938 v 0 l 31.168,-59.938 h -0.004 m 35.84,35.844 -59.934,31.164 v 0 l 59.934,-31.164 v 0 m -79.731,52.731 -18.414,9.574 4.547,-8.742 -4.551,8.746 18.418,-9.578" /><path
         id="path72"
         style="fill:#74cad8;fill-opacity:1;fill-rule:nonzero;stroke:none"
         d="m 347.543,482.953 -49.086,94.395 -4.547,8.742 18.414,-9.574 84.903,-44.153 4.406,-2.289 h -3.289 l -6.289,-6.289 -59.934,31.164 -22.937,22.938 -7.071,-7.071 22.938,-22.937 31.164,-59.938 -3.824,-3.824 -4.848,-1.164" /><path
         id="path74"
         style="fill:#74cad8;fill-opacity:1;fill-rule:nonzero;stroke:none"
         d="m 347.637,482.773 -0.094,0.18 4.848,1.164 -0.059,-0.062 -4.695,-1.282" /><path
         id="path76"
         style="fill:#b1e5ea;fill-opacity:1;fill-rule:nonzero;stroke:none"
         d="m 586.086,293.902 -13.863,7.211 13.863,-7.211 v 0 m -8.137,15.653 -45.496,87.492 h 0.004 l 45.492,-87.492 m -30.07,15.488 -59.945,31.172 0.004,0.004 59.937,-31.172 0.004,-0.004" /><path
         id="path78"
         style="fill:#74cad8;fill-opacity:1;fill-rule:nonzero;stroke:none"
         d="m 586.086,293.902 -13.863,7.211 -89.453,46.524 -4.415,2.297 h 3.297 l 6.282,6.281 59.945,-31.172 22.93,-22.934 7.074,7.071 -22.938,22.941 -31.164,59.942 3.821,3.82 4.851,1.164 45.496,-87.492 8.137,-15.653" /><path
         id="path80"
         style="fill:#74cad8;fill-opacity:1;fill-rule:nonzero;stroke:none"
         d="m 527.602,395.883 0.058,0.058 4.703,1.286 0.094,-0.18 h -0.004 l -4.851,-1.164" /><path
         id="path82"
         style="fill:#b1e5ea;fill-opacity:1;fill-rule:nonzero;stroke:none"
         d="M 349.926,406.762 232.258,435 h 15.027 l 102.641,-28.031 v -0.207 M 247.285,445 h -15.027 l 117.668,28.242 v -0.211 L 247.285,445" /><path
         id="path84"
         style="fill:#74cad8;fill-opacity:1;fill-rule:nonzero;stroke:none"
         d="m 352.328,395.945 -4.695,1.285 -156.61,42.77 156.614,42.773 4.695,1.282 -2.406,-2.403 v -2.074 -6.336 L 232.258,445 H 210 v -10 h 22.258 l 117.668,-28.238 v -8.414 l 2.402,-2.403" /><path
         id="path86"
         style="fill:#b1e5ea;fill-opacity:1;fill-rule:nonzero;stroke:none"
         d="m 530.066,406.758 v 0.207 L 632.715,435 h 15.027 L 530.066,406.758 M 647.742,445 h -15.027 l -72.531,19.809 0.683,1.043 L 647.742,445" /><path
         id="path88"
         style="fill:#74cad8;fill-opacity:1;fill-rule:nonzero;stroke:none"
         d="m 527.66,395.941 2.406,2.407 v 8.41 L 647.742,435 H 670 v 10 h -22.258 l -86.875,20.852 5.09,7.746 109.789,-29.985 c -0.476,-0.769 -0.754,-1.679 -0.746,-2.652 V 440 c 0,-1.277 -0.012,-2.555 -0.031,-3.824 L 532.363,397.227 527.66,395.941 M 685,438.914 c 0,0.359 0,0.723 0,1.086 v 1 c 0,0.031 -0.004,0.059 -0.004,0.09 L 688.977,440 685,438.914" /><path
         id="path90"
         style="fill:#95dce2;fill-opacity:1;fill-rule:nonzero;stroke:none"
         d="m 674.969,436.176 c 0.019,1.269 0.031,2.547 0.031,3.824 v 0.961 c -0.008,0.973 0.27,1.883 0.746,2.652 l 9.25,-2.523 c 0,-0.031 0.004,-0.059 0.004,-0.09 v -1 c 0,-0.363 0,-0.727 0,-1.086 l -10.031,-2.738" /><path
         id="path92"
         style="fill:#b1e5ea;fill-opacity:1;fill-rule:nonzero;stroke:none"
         d="M 349.926,435 H 232.258 l -20.832,5 20.832,5 h 15.027 102.641 v -10" /><path
         id="path94"
         style="fill:#74cad8;fill-opacity:1;fill-rule:nonzero;stroke:none"
         d="M 232.258,435 H 210 v 10 h 22.258 l -20.832,-5 20.832,-5" /><path
         id="path96"
         style="fill:#b1e5ea;fill-opacity:1;fill-rule:nonzero;stroke:none"
         d="M 647.742,435 H 540.594 l 6.57,10 h 100.578 l 20.832,-5 -20.832,-5" /><path
         id="path98"
         style="fill:#74cad8;fill-opacity:1;fill-rule:nonzero;stroke:none"
         d="m 670,435 h -22.258 l 20.832,5 -20.832,5 H 670 v -10" /><path
         id="path100"
         style="fill:#b1e5ea;fill-opacity:1;fill-rule:nonzero;stroke:none"
         d="m 445,530.07 h -10 v 117.672 l 5,20.832 5,-20.832 V 632.715 530.07" /><path
         id="path102"
         style="fill:#74cad8;fill-opacity:1;fill-rule:nonzero;stroke:none"
         d="m 445,647.742 -5,20.832 -5,-20.832 V 670 h 10 v -22.258" /><path
         id="path104"
         style="fill:#b1e5ea;fill-opacity:1;fill-rule:nonzero;stroke:none"
         d="m 440,211.426 -5,20.832 v 103.84 l 10,6.367 v -95.172 -15.035 l -5,-20.832" /><path
         id="path106"
         style="fill:#74cad8;fill-opacity:1;fill-rule:nonzero;stroke:none"
         d="m 445,210 h -10 v 22.258 l 5,-20.832 5,20.832 V 210" /><path
         id="path108"
         style="fill:#b1e5ea;fill-opacity:1;fill-rule:nonzero;stroke:none"
         d="m 473.242,349.934 h -16.504 l 9.715,6.179 7.356,-3.824 -0.567,-2.355 m 14.692,6.281 -2.579,1.344 3,12.492 16.43,10.457 7.723,11.754 9.926,2.383 1.343,-2.586 -14.382,-14.383 -3.516,3.515 -7.07,-7.07 3.515,-3.516 -14.386,-14.386 -0.004,-0.004 m 39.765,49.976 -2.668,5.129 5.035,7.664 v -12.019 -0.207 l -2.367,-0.567" /><path
         id="path110"
         style="fill:#74cad8;fill-opacity:1;fill-rule:nonzero;stroke:none"
         d="m 478.344,349.934 h -5.102 l 0.567,2.355 4.535,-2.355 m 7.011,7.625 -1.953,1.015 -2.304,4.949 5.261,5.258 1.996,1.27 -3,-12.492" /><path
         id="path112"
         style="fill:#74cad8;fill-opacity:1;fill-rule:nonzero;stroke:none"
         d="m 481.652,349.934 h -3.308 l -4.535,2.355 -7.356,3.824 5.449,3.469 3.145,-6.758 9.066,4.219 -0.711,1.531 1.953,-1.015 2.579,-1.344 -6.282,-6.281 m 42.125,42.125 -1.343,2.586 5.168,1.238 -3.821,-3.82 -0.004,-0.004 m 1.848,13.632 -3.285,1.528 2.691,4.101 2.668,-5.129 -2.074,-0.5" /><path
         id="path114"
         style="fill:#74cad8;fill-opacity:1;fill-rule:nonzero;stroke:none"
         d="m 512.508,392.262 4.277,6.511 6.164,-2.867 4.219,9.067 -1.543,0.718 2.074,0.5 2.367,0.567 v -8.41 l -2.406,-2.407 -0.058,-0.058 -5.168,-1.238 -9.926,-2.383" /><path
         id="path116"
         style="fill:#b1e5ea;fill-opacity:1;fill-rule:nonzero;stroke:none"
         d="m 366.648,381.629 -10.429,10.43 1.344,2.586 13.437,-3.227 1.148,-1.148 -5.5,-8.641 m -14.351,24.562 -2.371,0.571 v 0.207 28.031 10 28.031 0.211 l 2.367,0.567 7.633,-14.68 v -38.266 l -7.629,-14.672 m 5.262,79.164 -1.344,2.586 h 0.004 l 14.383,14.387 3.5,-3.5 7.07,7.07 -3.5,3.5 14.383,14.387 v 0 l 2.59,-1.344 -3.227,-13.437 -20.422,-20.422 -13.437,-3.227 m 130.718,24.915 -2.922,12.168 2.583,1.343 v 0 l 8.289,-8.289 -7.95,-5.222 m -29.148,9.8 h -38.258 l -14.68,7.637 0.567,2.367 h 0.211 L 435,530.07 h 10 28.031 0.211 l 0.567,-2.367 -14.68,-7.633" /><path
         id="path118"
         style="fill:#74cad8;fill-opacity:1;fill-rule:nonzero;stroke:none"
         d="m 391.418,509.004 3.227,13.437 1.976,-1.031 2.289,-4.914 -7.492,-7.492 m 96.273,0.883 -6.593,6.593 2.297,4.938 1.96,1.02 2.922,-12.168 -0.586,-0.383 m -13.882,17.816 -0.567,2.367 h 5.113 l -4.546,-2.367 m -67.618,0.004 -4.55,2.367 h 5.117 l -0.567,-2.367" /><path
         id="path120"
         style="fill:#74cad8;fill-opacity:1;fill-rule:nonzero;stroke:none"
         d="m 356.219,392.059 -0.004,0.004 -3.824,3.82 5.172,-1.238 -1.344,-2.586 m -1.824,13.629 -2.098,0.503 7.629,14.672 v -12.601 l -5.531,-2.574 M 471.738,520.07 h -12.609 l 14.68,7.633 4.546,2.367 h 0.004 3.293 l 6.286,-6.289 -2.583,-1.343 -1.96,-1.02 0.718,1.543 -9.066,4.219 -3.309,-7.11" /><path
         id="path122"
         style="fill:#74cad8;fill-opacity:1;fill-rule:nonzero;stroke:none"
         d="m 359.926,459.129 -7.633,14.68 2.086,0.5 5.547,-2.582 v -12.598 m -7.535,24.988 3.824,3.824 1.344,-2.586 -5.168,-1.238 m 68.48,35.953 -12.598,0.004 -3.3,7.094 -9.067,-4.219 0.715,-1.539 -1.976,1.031 -2.59,1.344 6.289,6.289 h 3.289 0.008 l 4.55,-2.367 14.68,-7.637" /><path
         id="path124"
         style="fill:#74cad8;fill-opacity:1;fill-rule:nonzero;stroke:none"
         d="m 371,391.418 -13.437,3.227 -5.172,1.238 -0.063,0.062 -2.402,2.403 v 8.414 l 2.371,-0.571 2.098,-0.503 -1.579,-0.735 4.219,-9.066 v 0 l 6.481,3.015 7.484,-7.484 m -21.074,81.824 v 6.336 2.074 l 2.406,2.403 0.059,0.062 5.168,1.238 13.437,3.227 -7.488,-7.492 -6.457,3.004 -4.219,-9.067 1.547,-0.718 -2.086,-0.5 -2.367,-0.567" /><path
         id="path126"
         style="fill:#b1e5ea;fill-opacity:1;fill-rule:nonzero;stroke:none"
         d="m 531.789,538.863 16.086,16.086 v 0 l 14.73,7.66 -2.761,-5.308 -28.055,-18.438" /><path
         id="path128"
         style="fill:#74cad8;fill-opacity:1;fill-rule:nonzero;stroke:none"
         d="m 547.875,554.949 22.934,22.938 7.074,-7.071 -4.852,-4.847 -13.187,-8.668 2.761,5.308 -14.73,-7.66 m 26.473,19.403 v 0" /><path
         id="path130"
         style="fill:#b1e5ea;fill-opacity:1;fill-rule:nonzero;stroke:none"
         d="m 317.391,317.387 7.664,14.738 27.754,27.758 -22.903,-35.988 -12.515,-6.508" /><path
         id="path132"
         style="fill:#74cad8;fill-opacity:1;fill-rule:nonzero;stroke:none"
         d="m 309.184,302.109 -7.071,7.071 22.938,22.941 0.004,0.004 -7.664,-14.738 12.515,6.508 -1.855,-2.918 -18.867,-18.868" /><path
         id="path134"
         style="fill:#b1e5ea;fill-opacity:1;fill-rule:nonzero;stroke:none"
         d="m 562.605,317.387 -14.726,7.656 -0.004,0.004 -45.551,45.558 -3.515,3.516 7.07,7.07 3.516,-3.515 45.546,-45.555 7.664,-14.734" /><path
         id="path136"
         style="fill:#74cad8;fill-opacity:1;fill-rule:nonzero;stroke:none"
         d="m 570.809,302.109 -22.93,22.934 14.726,-7.656 -7.664,14.734 h 0.004 l 22.938,-22.941 -7.074,-7.071" /><path
         id="path138"
         style="fill:#b1e5ea;fill-opacity:1;fill-rule:nonzero;stroke:none"
         d="m 374.102,498.828 -3.5,3.5 -45.551,45.551 v 0 l -7.66,14.73 14.73,-7.66 v 0 l 45.551,-45.551 3.5,-3.5 -7.07,-7.07" /><path
         id="path140"
         style="fill:#74cad8;fill-opacity:1;fill-rule:nonzero;stroke:none"
         d="m 325.051,547.879 -22.938,22.937 7.071,7.071 22.937,-22.938 -14.73,7.66 7.66,-14.73 m -19.403,26.473 -2.304,-4.438 2.304,4.438" /><path
         id="path142"
         style="fill:#b1e5ea;fill-opacity:1;fill-rule:nonzero;stroke:none"
         d="m 370.035,401.934 -7.719,1.851 3.836,7.371 14.059,6.543 2.383,-9.922 -12.559,-5.843 m 21.293,18.48 -1.027,1.981 3.25,1.511 -2.223,-3.492" /><path
         id="path144"
         style="fill:#74cad8;fill-opacity:1;fill-rule:nonzero;stroke:none"
         d="m 382.594,407.777 -2.383,9.922 1.016,0.473 3.902,-7.504 -1.551,-2.43 -0.984,-0.461" /><path
         id="path146"
         style="fill:#74cad8;fill-opacity:1;fill-rule:nonzero;stroke:none"
         d="m 362.316,403.785 -7.921,1.903 5.531,2.574 6.226,2.894 -3.836,-7.371" /><path
         id="path148"
         style="fill:#74cad8;fill-opacity:1;fill-rule:nonzero;stroke:none"
         d="m 385.129,410.668 -3.902,7.504 9.074,4.223 1.027,-1.981 -6.199,-9.746" /><path
         id="path150"
         style="fill:#74cad8;fill-opacity:1;fill-rule:nonzero;stroke:none"
         d="m 357.035,395.887 -4.219,9.066 1.579,0.735 7.921,-1.903 7.719,-1.851 -6.519,-3.032 -6.481,-3.015 v 0" /><path
         id="path152"
         style="fill:#b1e5ea;fill-opacity:1;fill-rule:nonzero;stroke:none"
         d="m 409.355,448.738 -19.054,8.864 4.621,8.878 19.848,-9.23 -5.415,-8.512 m -29.144,13.559 -14.059,6.535 -3.836,7.383 7.704,1.848 12.57,-5.848 -2.379,-9.918" /><path
         id="path154"
         style="fill:#74cad8;fill-opacity:1;fill-rule:nonzero;stroke:none"
         d="m 381.227,461.82 -1.016,0.477 2.379,9.918 3.254,-1.512 -4.617,-8.883" /><path
         id="path156"
         style="fill:#74cad8;fill-opacity:1;fill-rule:nonzero;stroke:none"
         d="m 390.301,457.602 -9.074,4.218 4.617,8.883 9.078,-4.223 -4.621,-8.878" /><path
         id="path158"
         style="fill:#74cad8;fill-opacity:1;fill-rule:nonzero;stroke:none"
         d="m 366.152,468.832 -6.226,2.895 -5.547,2.582 7.937,1.906 3.836,-7.383" /><path
         id="path160"
         style="fill:#74cad8;fill-opacity:1;fill-rule:nonzero;stroke:none"
         d="m 354.379,474.309 -1.547,0.718 4.219,9.067 6.457,-3.004 6.512,-3.027 -7.704,-1.848 -7.937,-1.906" /><path
         id="path162"
         style="fill:#74cad8;fill-opacity:1;fill-rule:nonzero;stroke:none"
         d="m 520.531,404.469 1.809,2.75 3.285,-1.528 -5.094,-1.222" /><path
         id="path164"
         style="fill:#74cad8;fill-opacity:1;fill-rule:nonzero;stroke:none"
         d="m 522.949,395.906 -6.164,2.867 3.746,5.696 5.094,1.222 1.543,-0.718 -4.219,-9.067" /><path
         id="path166"
         style="fill:#b1e5ea;fill-opacity:1;fill-rule:nonzero;stroke:none"
         d="m 469.648,498.027 -7.343,1.762 6.543,14.063 7.367,3.832 1.851,-7.719 -4.293,-9.227 -4.125,-2.711" /><path
         id="path168"
         style="fill:#74cad8;fill-opacity:1;fill-rule:nonzero;stroke:none"
         d="m 478.066,509.965 -1.851,7.719 7.18,3.734 -2.297,-4.938 -3.032,-6.515" /><path
         id="path170"
         style="fill:#74cad8;fill-opacity:1;fill-rule:nonzero;stroke:none"
         d="m 468.848,513.852 2.89,6.218 3.309,7.11 9.066,-4.219 -0.718,-1.543 -7.18,-3.734 -7.367,-3.832" /><path
         id="path172"
         style="fill:#74cad8;fill-opacity:1;fill-rule:nonzero;stroke:none"
         d="m 457.891,490.301 0.109,0.238 0.188,-0.047 -0.297,-0.191" /><path
         id="path174"
         style="fill:#74cad8;fill-opacity:1;fill-rule:nonzero;stroke:none"
         d="m 458.188,490.492 -0.188,0.047 4.305,9.25 7.343,-1.762 -11.46,-7.535" /><path
         id="path176"
         style="fill:#b1e5ea;fill-opacity:1;fill-rule:nonzero;stroke:none"
         d="m 476.215,362.313 -0.016,0.003 0.02,0.012 -0.004,-0.015" /><path
         id="path178"
         style="fill:#74cad8;fill-opacity:1;fill-rule:nonzero;stroke:none"
         d="m 483.402,358.574 -7.187,3.739 0.004,0.015 4.191,2.672 0.688,-1.477 2.304,-4.949" /><path
         id="path180"
         style="fill:#74cad8;fill-opacity:1;fill-rule:nonzero;stroke:none"
         d="m 475.047,352.824 -3.145,6.758 4.297,2.734 0.016,-0.003 7.187,-3.739 0.711,-1.531 -9.066,-4.219" /><path
         id="path182"
         style="fill:#b1e5ea;fill-opacity:1;fill-rule:nonzero;stroke:none"
         d="m 422.051,466.746 -8.528,18.336 8.879,4.617 8.094,-17.402 -8.445,-5.551 m -14.266,30.664 -5.847,12.574 1.847,7.704 7.387,-3.84 6.535,-14.055 -9.922,-2.383" /><path
         id="path184"
         style="fill:#74cad8;fill-opacity:1;fill-rule:nonzero;stroke:none"
         d="m 401.938,509.984 -3.028,6.512 -2.289,4.914 7.164,-3.722 -1.847,-7.704" /><path
         id="path186"
         style="fill:#74cad8;fill-opacity:1;fill-rule:nonzero;stroke:none"
         d="m 413.523,485.082 -1.433,3.078 9.922,2.383 0.39,-0.844 -8.879,-4.617" /><path
         id="path188"
         style="fill:#74cad8;fill-opacity:1;fill-rule:nonzero;stroke:none"
         d="m 411.172,513.848 -7.387,3.84 -7.164,3.722 -0.715,1.539 9.067,4.219 3.3,-7.094 2.899,-6.226" /><path
         id="path190"
         style="fill:#74cad8;fill-opacity:1;fill-rule:nonzero;stroke:none"
         d="m 412.09,488.16 -4.305,9.25 9.922,2.383 4.305,-9.25 -9.922,-2.383" /><path
         id="path192"
         style="fill:#211d1d;fill-opacity:1;fill-rule:nonzero;stroke:none"
         d="m 164.727,463.328 -4.688,-0.586 -11.523,-49.414 H 137.93 l -10.43,37.539 h -0.234 l -10.43,-37.539 H 106.25 L 94.6484,462.742 90,463.328 v 6.875 h 20.938 v -6.875 l -5.196,-0.894 6.524,-31.172 0.234,-0.039 10.664,38.98 h 8.399 l 10.742,-38.98 0.234,0.039 6.484,31.172 -5.195,0.894 v 6.875 h 20.899 v -6.875 m 606.992,-25 h -19.258 v -16.25 h 18.359 l 0.508,6.801 H 780 v -15.551 h -45 v 6.84 l 6.055,1.172 v 40.82 L 735,463.328 v 6.875 h 6.055 38.867 v -15.582 h -8.75 l -0.508,6.797 h -18.203 v -14.301 h 19.258 v -8.789 M 461.66,129.531 h -8.555 l -1.484,7.813 c -0.996,0.625 -2.441,1.172 -4.336,1.64 -1.914,0.469 -3.926,0.704 -6.055,0.704 -3.125,0 -5.546,-0.653 -7.246,-1.973 -1.718,-1.317 -2.558,-3.016 -2.558,-5.098 0,-1.922 0.879,-3.504 2.676,-4.746 1.777,-1.238 4.863,-2.547 9.238,-3.926 6.269,-1.746 11.035,-4.05 14.277,-6.914 3.242,-2.859 4.863,-6.629 4.863,-11.289 0,-4.875 -1.933,-8.7107 -5.781,-11.5232 C 452.832,91.4063 447.754,90 441.465,90 c -4.512,0 -8.574,0.7148 -12.207,2.1484 -3.633,1.4375 -6.66,3.4102 -9.082,5.9375 v 11.8751 h 8.828 l 1.211,-8.086 c 1.133,-0.937 2.695,-1.707 4.668,-2.3242 1.953,-0.6133 4.16,-0.918 6.582,-0.918 3.125,0 5.488,0.6367 7.129,1.9142 1.621,1.277 2.441,2.98 2.441,5.117 0,2.188 -0.781,3.945 -2.324,5.274 -1.563,1.328 -4.277,2.578 -8.145,3.75 -6.757,1.953 -11.855,4.265 -15.312,6.953 -3.477,2.683 -5.195,6.355 -5.195,11.015 0,4.61 1.953,8.379 5.859,11.309 3.906,2.93 8.809,4.433 14.727,4.512 4.375,0 8.359,-0.664 11.953,-1.993 3.593,-1.328 6.601,-3.093 9.062,-5.312 V 129.531 M 469.063,790 v -6.875 l -6.094,-1.172 v -48.828 h -11.367 l -22.969,38.281 -0.235,-0.039 v -30.234 l 6.094,-1.172 v -6.836 h -23.554 v 6.836 l 6.054,1.172 v 40.82 l -6.054,1.172 V 790 h 6.054 11.406 l 22.969,-38.281 0.235,0.039 v 30.195 l -6.094,1.172 V 790 h 17.461 6.094" /><path
         id="path194"
         style="fill:#898d8d;fill-opacity:1;fill-rule:nonzero;stroke:none"
         d="m 271.434,232.012 12.285,19.301 c 0.121,-0.102 0.242,-0.204 0.367,-0.305 0.93,-0.77 2.059,-1.145 3.18,-1.145 1.437,0 2.867,0.617 3.855,1.817 1.762,2.129 1.461,5.281 -0.668,7.039 -0.441,0.363 -0.883,0.73 -1.324,1.097 l 30.059,47.235 77.859,40.488 7.414,-30.875 -133.027,-84.652" /><path
         id="path196"
         style="fill:#4b7780;fill-opacity:1;fill-rule:nonzero;stroke:none"
         d="m 404.461,316.664 -7.414,30.875 0.18,0.094 8.277,-30.305 -1.043,-0.664" /><path
         id="path198"
         style="fill:#4b7780;fill-opacity:1;fill-rule:nonzero;stroke:none"
         d="m 319.188,307.051 v 0 l 78.039,40.586 v -0.004 l -0.18,-0.094 -77.859,-40.488" /><path
         id="path200"
         style="fill:#898d8d;fill-opacity:1;fill-rule:nonzero;stroke:none"
         d="m 414.336,322.949 -7.371,26.985 H 435 v -13.836 l -20.664,-13.149 m -82.219,2.098 45.555,45.558 14.387,-14.386 -59.942,-31.172 M 445,342.465 v 7.469 h 11.738 L 445,342.465 m -92.191,17.418 13.839,21.746 3.954,-3.953 -17.793,-17.793 m 106.304,0.051 h -38.234 l 19.113,9.941 19.121,-9.941 m 9.739,6.203 -18.02,9.375 6.957,3.617 4.516,1.082 6.547,-14.074 m -57.696,0.011 6.543,14.063 4.489,-1.078 6.968,-3.625 -18,-9.36 m 28.844,18.993 -14.285,3.429 -3.32,1.727 17.609,37.855 17.605,-37.847 -3.347,-1.739 L 440,385.141" /><path
         id="path202"
         style="fill:#4b7780;fill-opacity:1;fill-rule:nonzero;stroke:none"
         d="m 420.879,359.934 h -12.613 l 2.89,6.214 18,9.36 10.836,-5.633 -19.113,-9.941 m 29.953,15.578 -2.562,1.332 9.519,2.285 -6.957,-3.617 m 3.43,13.054 3.347,1.739 0.395,-0.84 -3.742,-0.899" /><path
         id="path204"
         style="fill:#4b7780;fill-opacity:1;fill-rule:nonzero;stroke:none"
         d="m 471.738,359.934 h -12.625 l -19.121,9.941 -10.836,5.633 -6.968,3.625 17.812,-4.274 8.27,1.985 2.562,-1.332 18.02,-9.375 2.886,-6.203 m -46.023,28.636 -3.711,0.891 0.391,0.836 3.32,-1.727" /><path
         id="path206"
         style="fill:#4b7780;fill-opacity:1;fill-rule:nonzero;stroke:none"
         d="m 440,374.859 -17.812,4.274 -4.489,1.078 4.305,9.25 3.711,-0.891 14.285,-3.429 14.262,3.425 3.742,0.899 4.301,-9.254 -4.516,-1.082 -9.519,-2.285 -8.27,-1.985" /><path
         id="path208"
         style="fill:#898d8d;fill-opacity:1;fill-rule:nonzero;stroke:none"
         d="m 401.934,370.031 -3.555,14.817 9.398,-2.254 -5.843,-12.563 m -10.516,0.969 -19.27,19.27 0.481,0.757 14.836,-3.558 3.953,-16.469 m 22.094,23.918 -12.231,6.359 -6.363,12.235 34.773,16.176 -16.179,-34.77 m -28.664,3.461 -6.543,1.57 4.476,7.035 2.067,-8.605" /><path
         id="path210"
         style="fill:#4b7780;fill-opacity:1;fill-rule:nonzero;stroke:none"
         d="m 398.902,363.516 -7.484,7.484 -3.953,16.469 10.914,-2.621 3.555,-14.817 -3.032,-6.515 m -6.433,33.035 -7.621,1.828 -2.067,8.605 0.797,1.254 2.266,1.051 6.625,-12.738" /><path
         id="path212"
         style="fill:#4b7780;fill-opacity:1;fill-rule:nonzero;stroke:none"
         d="m 412.082,391.844 -19.613,4.707 -6.625,12.738 9.074,4.223 6.363,-12.235 12.231,-6.359 -1.43,-3.074" /><path
         id="path214"
         style="fill:#4b7780;fill-opacity:1;fill-rule:nonzero;stroke:none"
         d="m 407.777,382.594 -9.398,2.254 -10.914,2.621 -14.836,3.558 5.676,8.922 6.543,-1.57 7.621,-1.828 19.613,-4.707 -4.305,-9.25" /><path
         id="path216"
         style="fill:#898d8d;fill-opacity:1;fill-rule:nonzero;stroke:none"
         d="m 478.066,370.039 -5.839,12.555 9.394,2.254 -3.555,-14.809 m 10.516,0.969 3.953,16.457 16.457,3.953 -20.41,-20.41 m -22.09,23.918 -16.172,34.762 34.766,-16.168 -6.363,-12.235 -12.231,-6.359 m 28.66,3.453 2.258,9.406 12.57,-5.847 -14.828,-3.559" /><path
         id="path218"
         style="fill:#4b7780;fill-opacity:1;fill-rule:nonzero;stroke:none"
         d="m 480.41,365 -2.344,5.039 3.555,14.809 10.914,2.617 -3.953,-16.457 -2.223,-2.227 L 480.41,365 m 7.121,31.551 6.629,12.746 3.25,-1.512 -2.258,-9.406 -7.621,-1.828" /><path
         id="path220"
         style="fill:#4b7780;fill-opacity:1;fill-rule:nonzero;stroke:none"
         d="m 467.926,391.844 -1.434,3.082 12.231,6.359 6.363,12.235 9.074,-4.223 -6.629,-12.746 -19.605,-4.707" /><path
         id="path222"
         style="fill:#4b7780;fill-opacity:1;fill-rule:nonzero;stroke:none"
         d="m 472.227,382.594 -4.301,9.25 19.605,4.707 7.621,1.828 14.828,3.559 6.508,-3.028 -7.496,-7.492 -16.457,-3.953 -10.914,-2.617 -9.394,-2.254" /><path
         id="path224"
         style="fill:#898d8d;fill-opacity:1;fill-rule:nonzero;stroke:none"
         d="m 513.84,411.172 -14.051,6.535 1.082,4.496 3.617,6.953 9.352,-17.984 m 6.226,9.695 -9.945,19.129 9.945,19.129 V 420.867 M 489.699,422.398 451.855,440 v 0 l 37.84,17.605 1.743,-3.347 3.421,-14.258 -3.425,-14.273 -1.735,-3.329 m 14.789,28.438 -3.613,6.945 -1.086,4.524 14.063,6.543 -9.364,-18.012" /><path
         id="path226"
         style="fill:#4b7780;fill-opacity:1;fill-rule:nonzero;stroke:none"
         d="m 499.789,417.707 -1.012,0.469 2.094,4.027 -1.082,-4.496 m -8.355,8.02 3.425,14.273 -3.421,14.258 7.414,-14.262 -7.418,-14.269 m 9.441,32.054 -2.105,4.047 1.019,0.477 1.086,-4.524" /><path
         id="path228"
         style="fill:#4b7780;fill-opacity:1;fill-rule:nonzero;stroke:none"
         d="m 498.777,418.176 -9.078,4.222 1.735,3.329 7.418,14.269 5.636,-10.84 -3.617,-6.953 -2.094,-4.027 m 11.344,21.82 -5.633,10.84 9.364,18.012 6.214,2.89 v -12.613 l -9.945,-19.129" /><path
         id="path230"
         style="fill:#4b7780;fill-opacity:1;fill-rule:nonzero;stroke:none"
         d="m 520.066,408.273 -6.226,2.899 -9.352,17.984 -5.636,10.84 -7.414,14.262 -1.743,3.347 9.075,4.223 2.105,-4.047 3.613,-6.945 5.633,-10.84 9.945,-19.129 v -12.594" /><path
         id="path232"
         style="fill:#898d8d;fill-opacity:1;fill-rule:nonzero;stroke:none"
         d="M 530.066,418.984 V 435 h 10.528 l -10.528,-16.016 m -136.515,4.922 15.804,24.832 18.79,-8.738 -34.594,-16.094 M 547.164,445 h -17.098 v 28.035 L 560.184,464.809 547.164,445 m -117.465,5.305 -14.929,6.945 5.156,8.102 2.125,1.394 7.648,-16.441 m 20.617,0.011 16.172,34.766 12.227,-6.359 6.363,-12.235 -34.762,-16.172 m 47.09,21.911 -2.254,9.394 14.813,-3.555 -12.559,-5.839 m 11.586,16.359 -16.457,3.949 -3.953,16.457 20.41,-20.406 m -27.371,6.566 -9.394,2.254 1.546,3.332 5.622,3.696 2.226,-9.282" /><path
         id="path234"
         style="fill:#4b7780;fill-opacity:1;fill-rule:nonzero;stroke:none"
         d="m 494.152,470.711 -6.625,12.742 7.625,-1.832 2.254,-9.394 -3.254,-1.516 m -1.617,21.824 -10.914,2.617 -2.226,9.282 8.296,5.453 0.891,-0.895 3.953,-16.457" /><path
         id="path236"
         style="fill:#4b7780;fill-opacity:1;fill-rule:nonzero;stroke:none"
         d="m 485.078,466.488 -6.363,12.235 -12.227,6.359 1.434,3.074 19.605,-4.703 6.625,-12.742 -9.074,-4.223" /><path
         id="path238"
         style="fill:#4b7780;fill-opacity:1;fill-rule:nonzero;stroke:none"
         d="m 509.965,478.066 -14.813,3.555 -7.625,1.832 -19.605,4.703 4.305,9.25 9.394,-2.254 10.914,-2.617 16.457,-3.949 7.488,-7.488 -6.515,-3.032" /><path
         id="path240"
         style="fill:#898d8d;fill-opacity:1;fill-rule:nonzero;stroke:none"
         d="m 440.004,451.859 -9.508,20.438 26.758,17.586 0.355,-0.184 -17.605,-37.84" /><path
         id="path242"
         style="fill:#4b7780;fill-opacity:1;fill-rule:nonzero;stroke:none"
         d="m 457.609,489.699 -0.355,0.184 0.637,0.418 -0.282,-0.602" /><path
         id="path244"
         style="fill:#898d8d;fill-opacity:1;fill-rule:nonzero;stroke:none"
         d="m 566.703,474.734 -34.246,8.219 38.777,74.574 5.731,11.024 39.887,26.211 c 2.328,-2.66 4.597,-5.375 6.808,-8.141 0.988,-1.234 2.442,-1.875 3.91,-1.875 1.094,0 2.196,0.356 3.118,1.094 2.156,1.723 2.507,4.871 0.785,7.027 -2.016,2.52 -4.078,5 -6.192,7.438 L 667.41,627.988 566.703,474.734" /><path
         id="path246"
         style="fill:#4b7780;fill-opacity:1;fill-rule:nonzero;stroke:none"
         d="m 532.457,482.953 v 0 l 38.777,74.574 -38.777,-74.574" /><path
         id="path248"
         style="fill:#4b7780;fill-opacity:1;fill-rule:nonzero;stroke:none"
         d="m 565.957,473.598 -33.594,9.175 0.094,0.18 v 0 l 34.246,-8.219 -0.746,-1.136" /><path
         id="path250"
         style="fill:#898d8d;fill-opacity:1;fill-rule:nonzero;stroke:none"
         d="m 523.781,487.941 -14.386,14.383 45.55,45.555 -31.164,-59.938 m -21.457,21.454 -6.097,6.097 35.562,23.371 -29.465,-29.468" /><path
         id="path252"
         style="fill:#6d8686;fill-opacity:1;fill-rule:nonzero;stroke:none"
         d="m 287.266,249.863 c -1.121,0 -2.25,0.375 -3.18,1.145 -0.125,0.101 -0.246,0.203 -0.367,0.305 l 5.41,8.503 c 0.441,-0.367 0.883,-0.734 1.324,-1.097 2.129,-1.758 2.43,-4.91 0.668,-7.039 -0.988,-1.2 -2.418,-1.817 -3.855,-1.817 M 627.57,584.746 c -1.468,0 -2.922,0.641 -3.91,1.875 -2.211,2.766 -4.48,5.481 -6.808,8.141 l 8.429,5.543 c 2.114,-2.438 4.176,-4.918 6.192,-7.438 1.722,-2.156 1.371,-5.304 -0.785,-7.027 -0.922,-0.738 -2.024,-1.094 -3.118,-1.094" /><path
         id="path254"
         style="fill:#6f8788;fill-opacity:1;fill-rule:nonzero;stroke:none"
         d="m 413.379,322.34 -6.621,27.594 h 0.207 l 7.371,-26.985 -0.957,-0.609" /><path
         id="path256"
         style="fill:#507c82;fill-opacity:1;fill-rule:nonzero;stroke:none"
         d="m 405.504,317.328 -8.277,30.305 4.421,2.301 h 5.11 l 6.621,-27.594 -7.875,-5.012" /><path
         id="path258"
         style="fill:#507c82;fill-opacity:1;fill-rule:nonzero;stroke:none"
         d="m 397.227,347.633 v 0.004 l 4.414,2.297 h 0.007 l -4.421,-2.301" /><path
         id="path260"
         style="fill:#6f8788;fill-opacity:1;fill-rule:nonzero;stroke:none"
         d="m 523.781,487.941 v 0 l 31.164,59.938 v 0 l -31.164,-59.938 m 47.453,69.586 5.731,11.024 v 0 l -5.731,-11.024" /><path
         id="path262"
         style="fill:#507c82;fill-opacity:1;fill-rule:nonzero;stroke:none"
         d="m 532.457,482.953 -4.855,1.164 -3.821,3.824 31.164,59.938 18.086,18.09 3.934,2.582 -5.731,-11.024 -38.777,-74.574" /><path
         id="path264"
         style="fill:#507c82;fill-opacity:1;fill-rule:nonzero;stroke:none"
         d="m 532.363,482.773 -4.703,1.286 -0.058,0.058 4.855,-1.164 -0.094,-0.18" /><path
         id="path266"
         style="fill:#6f8788;fill-opacity:1;fill-rule:nonzero;stroke:none"
         d="m 332.117,325.047 v 0 l 59.942,31.172 v 0 l -59.942,-31.172" /><path
         id="path268"
         style="fill:#507c82;fill-opacity:1;fill-rule:nonzero;stroke:none"
         d="m 319.188,307.051 8.863,13.926 4.066,4.07 59.942,31.172 6.285,-6.285 h 3.297 l -4.414,-2.297 -78.039,-40.586" /><path
         id="path270"
         style="fill:#6f8788;fill-opacity:1;fill-rule:nonzero;stroke:none"
         d="m 560.184,464.809 -30.118,8.226 v 0.207 l 30.801,-7.39 -0.683,-1.043" /><path
         id="path272"
         style="fill:#507c82;fill-opacity:1;fill-rule:nonzero;stroke:none"
         d="m 560.867,465.852 -30.801,7.39 v 8.41 l -2.406,2.407 4.703,-1.286 33.594,-9.175 -5.09,-7.746" /><path
         id="path274"
         style="fill:#6f8788;fill-opacity:1;fill-rule:nonzero;stroke:none"
         d="m 540.594,435 h -10.528 v 10 h 17.098 l -6.57,-10" /><path
         id="path276"
         style="fill:#6f8788;fill-opacity:1;fill-rule:nonzero;stroke:none"
         d="m 435,336.098 v 13.836 h 10 v -7.469 l -10,-6.367" /><path
         id="path278"
         style="fill:#6f8788;fill-opacity:1;fill-rule:nonzero;stroke:none"
         d="m 456.738,349.934 h -49.98 l -0.567,2.363 14.688,7.637 h 38.234 l 7.34,-3.821 -9.715,-6.179 m -64.679,6.285 v 0 l -14.387,14.386 3.535,3.536 -7.07,7.07 -3.535,-3.535 -3.954,3.953 5.5,8.641 19.27,-19.27 3.227,-13.437 -2.586,-1.344" /><path
         id="path280"
         style="fill:#507c82;fill-opacity:1;fill-rule:nonzero;stroke:none"
         d="m 406.758,349.934 h -5.11 l 4.543,2.363 0.567,-2.363 m -12.113,7.629 -3.227,13.437 7.484,-7.484 -2.293,-4.934 -1.964,-1.019" /><path
         id="path282"
         style="fill:#507c82;fill-opacity:1;fill-rule:nonzero;stroke:none"
         d="m 401.648,349.934 h -3.304 l -6.285,6.285 2.586,1.344 1.964,1.019 -0.722,-1.551 9.066,-4.218 3.313,7.121 h 12.613 l -14.688,-7.637 -4.543,-2.363" /><path
         id="path284"
         style="fill:#507c82;fill-opacity:1;fill-rule:nonzero;stroke:none"
         d="m 466.453,356.113 -7.34,3.821 h 12.625 l 0.164,-0.352 -5.449,-3.469" /><path
         id="path286"
         style="fill:#6f8788;fill-opacity:1;fill-rule:nonzero;stroke:none"
         d="m 488.355,370.051 0.227,0.957 20.41,20.41 3.516,0.844 -7.723,-11.754 -16.43,-10.457" /><path
         id="path288"
         style="fill:#507c82;fill-opacity:1;fill-rule:nonzero;stroke:none"
         d="m 486.359,368.781 2.223,2.227 -0.227,-0.957 -1.996,-1.27" /><path
         id="path290"
         style="fill:#507c82;fill-opacity:1;fill-rule:nonzero;stroke:none"
         d="m 508.992,391.418 7.496,7.492 0.297,-0.137 -4.277,-6.511 -3.516,-0.844" /><path
         id="path292"
         style="fill:#6f8788;fill-opacity:1;fill-rule:nonzero;stroke:none"
         d="m 525.031,411.32 -4.965,9.547 v 38.258 l 7.637,14.684 2.363,-0.567 V 473.035 445 435 418.984 l -5.035,-7.664 m -2.593,74.035 -13.446,3.231 -20.41,20.406 -0.305,1.278 7.95,5.222 6.097,-6.097 -3.535,-3.536 7.07,-7.07 3.536,3.535 14.386,-14.383 v 0 l -1.343,-2.586" /><path
         id="path294"
         style="fill:#507c82;fill-opacity:1;fill-rule:nonzero;stroke:none"
         d="m 488.582,508.992 -0.891,0.895 0.586,0.383 0.305,-1.278" /><path
         id="path296"
         style="fill:#507c82;fill-opacity:1;fill-rule:nonzero;stroke:none"
         d="m 520.066,459.125 v 12.613 l 5.536,2.575 2.101,-0.504 -7.637,-14.684 m 7.536,24.992 -5.164,1.238 1.343,2.586 3.821,-3.824" /><path
         id="path298"
         style="fill:#507c82;fill-opacity:1;fill-rule:nonzero;stroke:none"
         d="m 522.34,407.219 -2.274,1.054 v 12.594 l 4.965,-9.547 -2.691,-4.101" /><path
         id="path300"
         style="fill:#507c82;fill-opacity:1;fill-rule:nonzero;stroke:none"
         d="m 530.066,473.242 -2.363,0.567 -2.101,0.504 1.574,0.734 -4.215,9.066 -6.481,-3.015 -7.488,7.488 13.446,-3.231 5.164,-1.238 0.058,-0.058 2.406,-2.407 v -8.41" /><path
         id="path302"
         style="fill:#6f8788;fill-opacity:1;fill-rule:nonzero;stroke:none"
         d="m 505.859,498.789 -7.07,7.07 3.535,3.536 29.465,29.468 28.055,18.438 -4.899,-9.422 v 0 l -45.55,-45.555 -3.536,-3.535" /><path
         id="path304"
         style="fill:#507c82;fill-opacity:1;fill-rule:nonzero;stroke:none"
         d="m 554.945,547.879 4.899,9.422 13.187,8.668 -18.086,-18.09" /><path
         id="path306"
         style="fill:#6f8788;fill-opacity:1;fill-rule:nonzero;stroke:none"
         d="m 329.906,323.895 22.903,35.988 17.793,17.793 3.535,3.535 7.07,-7.07 -3.535,-3.536 -45.555,-45.558 v 0 l -2.211,-1.152" /><path
         id="path308"
         style="fill:#507c82;fill-opacity:1;fill-rule:nonzero;stroke:none"
         d="m 328.051,320.977 1.855,2.918 2.211,1.152 -4.066,-4.07" /><path
         id="path310"
         style="fill:#6f8788;fill-opacity:1;fill-rule:nonzero;stroke:none"
         d="m 394.918,413.512 -3.59,6.902 2.223,3.492 34.594,16.094 -18.79,8.738 5.415,8.512 14.929,-6.945 3.664,-7.875 -5.218,-2.43 5.214,-2.426 -3.668,-7.886 -34.773,-16.176" /><path
         id="path312"
         style="fill:#507c82;fill-opacity:1;fill-rule:nonzero;stroke:none"
         d="m 383.578,408.238 1.551,2.43 0.715,-1.379 -2.266,-1.051" /><path
         id="path314"
         style="fill:#507c82;fill-opacity:1;fill-rule:nonzero;stroke:none"
         d="m 385.844,409.289 -0.715,1.379 6.199,9.746 3.59,-6.902 -9.074,-4.223" /><path
         id="path316"
         style="fill:#6f8788;fill-opacity:1;fill-rule:nonzero;stroke:none"
         d="m 509.98,401.938 -12.57,5.847 2.379,9.922 14.051,-6.535 3.84,-7.387 -7.7,-1.847 m -24.894,11.582 -34.766,16.168 -4.8,10.32 4.796,10.308 34.762,16.172 4.617,-8.883 -37.84,-17.605 37.844,-17.602 -4.613,-8.878 m 14.703,48.785 -2.383,9.922 12.559,5.839 7.719,-1.851 -3.832,-7.367 -14.063,-6.543" /><path
         id="path318"
         style="fill:#507c82;fill-opacity:1;fill-rule:nonzero;stroke:none"
         d="m 497.41,407.785 -3.25,1.512 4.617,8.879 1.012,-0.469 -2.379,-9.922 m 1.36,54.043 -4.618,8.883 3.254,1.516 2.383,-9.922 -1.019,-0.477" /><path
         id="path320"
         style="fill:#507c82;fill-opacity:1;fill-rule:nonzero;stroke:none"
         d="m 494.16,409.297 -9.074,4.223 4.613,8.878 9.078,-4.222 -4.617,-8.879 m 19.692,59.551 3.832,7.367 7.918,-1.902 -5.536,-2.575 -6.214,-2.89" /><path
         id="path322"
         style="fill:#507c82;fill-opacity:1;fill-rule:nonzero;stroke:none"
         d="m 517.68,403.785 -3.84,7.387 6.226,-2.899 2.274,-1.054 -1.809,-2.75 -2.851,-0.684 m -27.985,53.82 -4.617,8.883 9.074,4.223 4.618,-8.883 -9.075,-4.223" /><path
         id="path324"
         style="fill:#507c82;fill-opacity:1;fill-rule:nonzero;stroke:none"
         d="m 516.785,398.773 -0.297,0.137 -6.508,3.028 7.7,1.847 2.851,0.684 -3.746,-5.696 m 8.817,75.54 -7.918,1.902 -7.719,1.851 6.515,3.032 6.481,3.015 4.215,-9.066 -1.574,-0.734" /><path
         id="path326"
         style="fill:#6f8788;fill-opacity:1;fill-rule:nonzero;stroke:none"
         d="m 433.359,437.574 -5.214,2.426 5.218,2.43 1.125,-2.422 -1.129,-2.434" /><path
         id="path328"
         style="fill:#6f8788;fill-opacity:1;fill-rule:nonzero;stroke:none"
         d="m 403.785,362.316 -1.851,7.715 5.843,12.563 9.922,-2.383 -6.543,-14.063 -7.371,-3.832 m 18.61,27.981 -8.883,4.621 16.179,34.77 3.668,7.886 1.129,2.434 5.516,-11.856 -17.609,-37.855" /><path
         id="path330"
         style="fill:#507c82;fill-opacity:1;fill-rule:nonzero;stroke:none"
         d="m 396.609,358.582 2.293,4.934 3.032,6.515 1.851,-7.715 -7.176,-3.734" /><path
         id="path332"
         style="fill:#507c82;fill-opacity:1;fill-rule:nonzero;stroke:none"
         d="m 404.953,352.813 -9.066,4.218 0.722,1.551 7.176,3.734 7.371,3.832 -2.89,-6.214 -3.313,-7.121" /><path
         id="path334"
         style="fill:#507c82;fill-opacity:1;fill-rule:nonzero;stroke:none"
         d="m 422.004,389.461 -9.922,2.383 1.43,3.074 8.883,-4.621 -0.391,-0.836" /><path
         id="path336"
         style="fill:#507c82;fill-opacity:1;fill-rule:nonzero;stroke:none"
         d="m 417.699,380.211 -9.922,2.383 4.305,9.25 9.922,-2.383 -4.305,-9.25" /><path
         id="path338"
         style="fill:#6f8788;fill-opacity:1;fill-rule:nonzero;stroke:none"
         d="m 445.52,440.008 -5.516,11.851 17.605,37.84 8.879,-4.617 -16.172,-34.766 -4.796,-10.308 m 26.707,57.398 -2.579,0.621 4.125,2.711 -1.546,-3.332" /><path
         id="path340"
         style="fill:#507c82;fill-opacity:1;fill-rule:nonzero;stroke:none"
         d="m 466.488,485.082 -8.879,4.617 0.282,0.602 0.297,0.191 9.734,-2.336 -1.434,-3.074" /><path
         id="path342"
         style="fill:#507c82;fill-opacity:1;fill-rule:nonzero;stroke:none"
         d="m 467.922,488.156 -9.734,2.336 11.46,7.535 2.579,-0.621 -4.305,-9.25" /><path
         id="path344"
         style="fill:#6f8788;fill-opacity:1;fill-rule:nonzero;stroke:none"
         d="m 476.199,362.316 -7.347,3.821 -6.547,14.074 9.922,2.383 5.839,-12.555 -1.847,-7.711 -0.02,-0.012 m -18.59,27.989 -17.605,37.847 -5.516,11.856 -1.125,2.422 -3.664,7.875 -7.648,16.441 8.445,5.551 9.508,-20.438 5.516,-11.851 4.8,-10.32 16.172,-34.762 -8.883,-4.621" /><path
         id="path346"
         style="fill:#507c82;fill-opacity:1;fill-rule:nonzero;stroke:none"
         d="m 476.219,362.328 1.847,7.711 2.344,-5.039 -4.191,-2.672" /><path
         id="path348"
         style="fill:#507c82;fill-opacity:1;fill-rule:nonzero;stroke:none"
         d="m 458.004,389.465 -0.395,0.84 8.883,4.621 1.434,-3.082 -9.922,-2.379" /><path
         id="path350"
         style="fill:#507c82;fill-opacity:1;fill-rule:nonzero;stroke:none"
         d="m 471.902,359.582 -0.164,0.352 -2.886,6.203 7.347,-3.821 -4.297,-2.734" /><path
         id="path352"
         style="fill:#507c82;fill-opacity:1;fill-rule:nonzero;stroke:none"
         d="m 462.305,380.211 -4.301,9.254 9.922,2.379 4.301,-9.25 -9.922,-2.383" /><path
         id="path354"
         style="fill:#ffffff;fill-opacity:1;fill-rule:nonzero;stroke:none"
         d="M 647.41,647.988 399.926,485.352 251.438,252.012 484.785,400.508 647.41,647.988" /><path
         id="path356"
         style="fill:#ee2731;fill-opacity:1;fill-rule:nonzero;stroke:none"
         d="M 647.41,647.988 251.438,252.012 484.785,400.508 Z" /><path
         id="path358"
         style="fill:#211d1d;fill-opacity:1;fill-rule:nonzero;stroke:none"
         d="M 403.563,481.758 267.734,268.313 481.191,404.152 629.961,630.535 Z M 235.137,235.715 397.18,489.531 664.863,665.441 487.473,396.289 235.137,235.715" /><path
         id="path360"
         style="fill:#ffffff;fill-opacity:1;fill-rule:nonzero;stroke:none"
         d="m 440,405 c -19.297,0 -35,15.703 -35,35 0,19.297 15.703,35 35,35 19.297,0 35,-15.703 35,-35 0,-19.297 -15.703,-35 -35,-35" /><path
         id="path362"
         style="fill:#d3d2d1;fill-opacity:1;fill-rule:nonzero;stroke:none"
         d="m 440,480 c -22.055,0 -40,-17.937 -40,-40 0,-22.059 17.945,-40 40,-40 22.063,0 40,17.941 40,40 0,22.063 -17.937,40 -40,40 z m 0,-10 c 16.57,0 30,-13.426 30,-30 0,-16.57 -13.43,-30 -30,-30 -16.566,0 -30,13.43 -30,30 0,16.574 13.434,30 30,30" /></g></g></svg>