<svg id="Layer_1" data-name="Layer 1" xmlns="http://www.w3.org/2000/svg" viewBox="0 0 452.97 113.43"><defs><style>.cls-1{fill:#79d1ee;}.cls-2{fill:#3bb8ea;}.cls-3,.cls-9{opacity:0.2;}.cls-21,.cls-4,.cls-9{fill:#010101;}.cls-5,.cls-8{fill:#fff;}.cls-6{fill:#231f20;}.cls-7{fill:#25b3e4;}.cls-15,.cls-8{opacity:0.1;}.cls-10{fill:#18ab4b;}.cls-11{fill:#84d5f6;opacity:0.6;}.cls-12{fill:#eeb650;}.cls-13{fill:#e2f3f8;}.cls-14{fill:#d7962b;}.cls-16,.cls-17,.cls-18,.cls-20{fill:none;stroke-miterlimit:10;}.cls-16{stroke:#5bbad2;}.cls-17,.cls-18{stroke:#a9dee7;stroke-linecap:round;}.cls-17{stroke-dasharray:1.97 3.94;}.cls-18{stroke-dasharray:2.01 4.02;}.cls-19{opacity:0.5;}.cls-20{stroke:#72cddd;}.cls-21{opacity:0.3;}.cls-22{fill:#ef3734;}.cls-23{fill:#d2d2d2;}.cls-24{font-size:77px;fill:#21252a;font-family:Barlow-SemiBold, Barlow;font-weight:700;letter-spacing:-0.04em;}</style></defs><title>nelson-with-background-and-text</title><path class="cls-1" d="M204.63,113.43H4.63a100,100,0,0,1,200,0Z"/><path class="cls-2" d="M187.13,113.43h-165a82.5,82.5,0,0,1,165,0Z"/><g class="cls-3"><path class="cls-4" d="M169.45,37.29l-27.82,8.14-37-12-37,12L39.81,37.29A100.63,100.63,0,0,0,26.63,50.86v62.57h156V50.86A100.63,100.63,0,0,0,169.45,37.29Z"/></g><polygon class="cls-5" points="30.13 112.93 30.13 32.74 67.63 44.76 104.63 32.91 141.63 44.76 179.13 32.74 179.13 112.93 30.13 112.93"/><path class="cls-6" d="M178.63,33.43v79h-148v-79l37,11.85,37-11.85,37,11.85,37-11.85m1-1.37-1.3.42-36.7,11.75L104.94,32.48l-.31-.1-.3.1L67.63,44.23,30.94,32.48l-1.31-.42v81.37h150V32.06Z"/><rect class="cls-5" x="30.63" y="111.43" width="148" height="2"/><polygon class="cls-7" points="34.63 113.43 174.63 113.43 174.63 38.93 141.63 49.64 104.63 37.64 67.63 49.64 34.63 38.93 34.63 113.43"/><path class="cls-8" d="M34.79,108.46l-.31,1,10.65,3.45v.56h1v-.23l.75.24h3.24l-4-1.29v-9l11,3.57v6.66h1v-6.34l9,2.92v3.43h1V110l11-3.57v7h1v-7.31l11-3.57v8.95l-6,1.94h3.25l2.74-.89v.88h1v-1.2l12-3.9v5.1h1v-5.1l12,3.9v1.2h1v-.88l2.75.89h3.24l-6-1.94v-8.95l11,3.57v7.31h1v-7l11,3.57v3.42h1V110l10-3.24v6.66h1v-7l11-3.57v9l-5,1.62h3.25l1.74-.57v.56h1v-.88l9.66-3.13-.31-1-9.35,3v-8.95l9.66-3.13-.31-1-9.35,3V92.54l9.66-3.13-.31-1-9.35,3V82.54l9.66-3.13-.31-1-9.35,3V72.54l9.66-3.13-.31-1-9.35,3V62.54l9.66-3.13-.31-.95-9.35,3v-9l9.66-3.13-.31-.95-9.35,3V42h-1v9.82l-11,3.57V45.74h-1v10l-10,3.25V49.64h-1V59l-11-3.57V45.74h-1v9.32l-11-3.57V42h-1v9.17l-12-3.89V37.64h-1v9.63l-12,3.89V42h-1v9.5l-11,3.57V45.74h-1v9.64L68.13,59V49.64h-1V59l-9-2.92V45.74h-1v10l-11-3.56V42h-1v9.82L34.79,48.46l-.31.95,10.65,3.45v9L34.79,58.46l-.31.95,10.65,3.45v9L34.79,68.46l-.31,1,10.65,3.45v9L34.79,78.46l-.31,1,10.65,3.45v9L34.79,88.46l-.31,1,10.65,3.45v9L34.79,98.46l-.31,1,10.65,3.45v9Zm118.34-52,11-3.57v9l-11,3.57Zm0,10,11-3.57v9l-11,3.57Zm0,10,11-3.57v9l-11,3.57Zm0,10,11-3.57v9l-11,3.57Zm0,10,11-3.57v9l-11,3.57ZM142.13,60l10-3.24V65.7l-10,3.25Zm0,10,10-3.24V75.7l-10,3.25Zm0,10,10-3.24V85.7l-10,3.25Zm0,10,10-3.24V95.7l-10,3.25Zm0,10,10-3.24v8.94l-10,3.25Zm-12-43.57,11,3.57v9l-11-3.57Zm0,10,11,3.57v9l-11-3.57Zm0,10,11,3.57v9l-11-3.57Zm0,10,11,3.57v9l-11-3.57Zm0,10,11,3.57v9l-11-3.57Zm-12-43.89,11,3.57v9l-11-3.57Zm0,10,11,3.57v9l-11-3.57Zm0,10,11,3.57v9l-11-3.57Zm0,10,11,3.57v9l-11-3.57Zm0,10,11,3.57v9l-11-3.57Zm-13-44.22,12,3.9v8.94l-12-3.89Zm0,10,12,3.9v8.94l-12-3.89Zm0,10,12,3.9v8.94l-12-3.89Zm0,10,12,3.9v8.94l-12-3.89Zm0,10,12,3.9v8.94l-12-3.89Zm0,10,12,3.9v8.94l-12-3.89Zm-13-46.1,12-3.9v9l-12,3.89Zm0,10,12-3.9v8.95l-12,3.89Zm0,10,12-3.9v9l-12,3.89Zm0,10,12-3.9v9l-12,3.89Zm0,10,12-3.9v9l-12,3.89Zm0,10,12-3.9v9l-12,3.89Zm-12-46.11,11-3.57v9l-11,3.57Zm0,10,11-3.57v8.95l-11,3.57Zm0,10,11-3.57v8.95l-11,3.57Zm0,10,11-3.57v8.95l-11,3.57Zm0,10,11-3.57v8.95l-11,3.57ZM68.13,60l11-3.57v8.95L68.13,69Zm0,10,11-3.57v8.95L68.13,79Zm0,10,11-3.57v8.95L68.13,89Zm0,10,11-3.57v8.95L68.13,99Zm0,10,11-3.57v8.95l-11,3.57Zm-10-42.92,9,2.92v9l-9-2.92Zm0,10,9,2.92v9l-9-2.92Zm0,10,9,2.92v9l-9-2.92Zm0,10,9,2.92v9l-9-2.92Zm0,10,9,2.92v9l-9-2.92Zm-12-43.89,11,3.57V65.7l-11-3.56Zm0,10,11,3.57V75.7l-11-3.56Zm0,10,11,3.57V85.7l-11-3.56Zm0,10,11,3.57V95.7l-11-3.56Zm0,10,11,3.57v8.94l-11-3.56Z"/><path class="cls-7" d="M164.61,113.43a60,60,0,0,0-120,0Z"/><path class="cls-9" d="M170.71,113.43a66.08,66.08,0,0,0-132.15,0Z"/><path class="cls-6" d="M115.71,95.32a7.59,7.59,0,0,0,3.6,4.09,8.64,8.64,0,0,0,3.17.85c2.5.79,6.53,2.49,6.4,5.11-.08,1.62-1.45,2.89-3.19,4.49a28.82,28.82,0,0,0-3.44,3.57h2.61c.72-.76,1.45-1.44,2.18-2.1,1.91-1.76,3.72-3.42,3.84-5.86.15-3-2.58-5.48-7.91-7.15a.87.87,0,0,0-.22,0,6.86,6.86,0,0,1-2.54-.64,5.7,5.7,0,0,1-2.66-3.09c-1.31-3.11-3.54-5.6-5.7-8-3.8-4.22-6.8-7.55-4-12.9,4.22-8.07,23.86-9.94,26.53-10.16a59.22,59.22,0,0,1,27.7,37.46c.13.7.27,1.33.4,1.8l.12.65.06.37a.84.84,0,0,1-.08.53,1,1,0,0,1-.57.12c-1.76,0-5.26-1.63-8.35-3.06-3.37-1.57-6.28-2.92-8.09-2.92h-.13a8.11,8.11,0,0,0-3.5.87,3.14,3.14,0,0,1-1.45.42,7.77,7.77,0,0,1-2.55-.63,1,1,0,0,0-1.23.44c-1.66,2.91-2,5-1.09,6.44a2,2,0,0,0,1.72.94,5.65,5.65,0,0,0,2.14-.63,7.9,7.9,0,0,1,3.15-.86c2.4,0,4.8,2,7.33,6a15.9,15.9,0,0,1,1,2h2.14a18.49,18.49,0,0,0-1.47-3c-2.92-4.7-5.88-7-9-7a9.53,9.53,0,0,0-4,1,3.41,3.41,0,0,1-1.38.42c-.4-.59-.11-1.92.75-3.62a7.85,7.85,0,0,0,2.44.47,5,5,0,0,0,2.29-.6,6.17,6.17,0,0,1,2.79-.69c1.37,0,4.49,1.45,7.25,2.73,3.59,1.67,7,3.25,9.19,3.25a2.66,2.66,0,0,0,2-.76,2.61,2.61,0,0,0,.61-2.08.41.41,0,0,0,0-.11l-.07-.41c0-.23-.08-.47-.14-.76-.14-.5-.27-1.07-.4-1.76A61.23,61.23,0,0,0,135.1,61.6a1.08,1.08,0,0,0-.56-.14c-1,.07-23.46,1.65-28.47,11.26-3.43,6.58.5,10.94,4.29,15.16C112.41,90.16,114.53,92.51,115.71,95.32Z"/><path class="cls-6" d="M45.64,113.43a59.19,59.19,0,0,1,18.65-42c2,.09,2.58.88,3.5,2.13a9.2,9.2,0,0,0,5.75,4,18.58,18.58,0,0,0,4.77.5c1.57,0,3.18-.1,4.61-.19,1.16-.08,2.26-.15,3.13-.15a4.82,4.82,0,0,1,1.47.14c3.87,1.5,3.14,9.33,2.9,11.9l0,.33c-.21,2.28-5.48,9.61-9.56,9.84l-2.19.09c-3.94.11-8,.23-11.44,3.43-2.48,2.32-1.84,5.43-1.17,8.72.09.41.17.83.25,1.26h2c-.11-.56-.21-1.13-.32-1.66-.69-3.39-1-5.38.57-6.86,2.88-2.68,6.41-2.79,10.14-2.9.74,0,1.49,0,2.24-.08,5.36-.3,11.16-8.64,11.44-11.66l0-.33c.3-3.25,1.11-11.9-4.17-13.94a6,6,0,0,0-2.19-.28c-.93,0-2.06.07-3.26.15-1.39.09-3,.19-4.48.19a16.89,16.89,0,0,1-4.25-.43,7.33,7.33,0,0,1-4.66-3.29,5.85,5.85,0,0,0-5.49-3h0a1,1,0,0,0-.68.27,61.15,61.15,0,0,0-19.57,43.78Z"/><path class="cls-10" d="M119.76,98.52a7.63,7.63,0,0,0,2.91.75c3,1,7.37,2.89,7.21,6.15-.15,3-3.53,4.72-6.35,8H152a17.63,17.63,0,0,0-1.24-2.5c-7.67-12.33-12.61-2.85-14.35-5.51-.83-1.27,0-3.46,1.12-5.39,4.69,1.79,3.93-.45,7.9-.6s18.58,10,18.18,4.21c-.07-.36-.13-.73-.2-1.09-.14-.54-.28-1.14-.4-1.8A60.11,60.11,0,0,0,134.6,62.46c-.59,0-22.88,1.59-27.64,10.72s6.17,13.42,9.67,21.75A6.66,6.66,0,0,0,119.76,98.52Z"/><path class="cls-10" d="M67.3,113.43c-.72-3.83-1.8-7,.58-9.25,3.75-3.5,8.37-3,13-3.25s10.25-8,10.5-10.75,1.25-11.42-3.5-13.25c-2-.76-9.5.88-14.08-.33-6.39-1.7-4.34-6.21-9.89-6.22a59.84,59.84,0,0,0-19.25,43.05Z"/><path class="cls-11" d="M104.63,65.43A69.86,69.86,0,0,1,160.27,93,60,60,0,0,0,49,93,69.84,69.84,0,0,1,104.63,65.43Z"/><path class="cls-6" d="M45.64,113.43a59,59,0,0,1,118,0h2a61,61,0,0,0-122,0Z"/><g class="cls-3"><circle class="cls-4" cx="104.63" cy="64.43" r="48"/></g><circle class="cls-12" cx="104.63" cy="64.43" r="43.5"/><path class="cls-6" d="M104.63,21.43a43,43,0,1,1-43,43,43,43,0,0,1,43-43m0-1a44,44,0,1,0,44,44,44.05,44.05,0,0,0-44-44Z"/><circle class="cls-13" cx="104.63" cy="64.43" r="38.5"/><path class="cls-14" d="M104.63,26.43a38,38,0,1,1-38,38,38,38,0,0,1,38-38m0-1a39,39,0,1,0,39,39,39.05,39.05,0,0,0-39-39Z"/><path class="cls-5" d="M128.33,34.73a38,38,0,0,1-53.39,53.4,38,38,0,1,0,53.39-53.4Z"/><g class="cls-15"><path class="cls-4" d="M72.63,70.43a38,38,0,0,1,61.7-29.7,38,38,0,1,0-53.39,53.4A37.79,37.79,0,0,1,72.63,70.43Z"/></g><polygon class="cls-16" points="104.63 39.43 98.63 64.43 104.63 89.43 110.63 64.43 104.63 39.43"/><polygon class="cls-16" points="118.07 51 100.39 60.19 91.2 77.87 108.88 68.67 118.07 51"/><polygon class="cls-16" points="91.2 51 100.39 68.67 118.07 77.87 108.87 60.19 91.2 51"/><polygon class="cls-16" points="79.63 64.43 104.63 70.43 129.63 64.43 104.63 58.43 79.63 64.43"/><circle class="cls-17" cx="104.63" cy="64.43" r="32"/><circle class="cls-18" cx="104.63" cy="64.43" r="24"/><g class="cls-19"><polyline class="cls-20" points="108.59 55.92 104.63 41.43 100.67 55.92"/><polyline class="cls-20" points="100.67 72.94 104.63 87.43 108.59 72.94"/><polyline class="cls-20" points="113.14 60.47 118.07 51 108.59 55.92"/><polyline class="cls-20" points="96.13 68.39 91.2 77.87 100.67 72.94"/><polyline class="cls-20" points="100.68 55.92 91.2 51 96.13 60.48"/><polyline class="cls-20" points="108.59 72.94 118.07 77.87 113.14 68.39"/><polyline class="cls-20" points="96.12 60.47 81.63 64.43 96.13 68.39"/><polyline class="cls-20" points="113.14 68.39 127.63 64.43 113.14 60.47"/><line class="cls-20" x1="81.63" y1="64.43" x2="96.12" y2="64.43"/><line class="cls-20" x1="113.14" y1="64.43" x2="127.63" y2="64.43"/><line class="cls-20" x1="104.63" y1="41.43" x2="104.63" y2="55.92"/><line class="cls-20" x1="104.63" y1="72.94" x2="104.63" y2="87.43"/><polygon class="cls-20" points="96.13 60.47 100.67 55.92 108.59 55.92 113.14 60.47 113.14 68.39 108.59 72.94 100.67 72.94 96.13 68.39 96.13 60.47"/><line class="cls-20" x1="110.86" y1="58.2" x2="118.07" y2="51"/><line class="cls-20" x1="91.2" y1="77.87" x2="98.4" y2="70.66"/><line class="cls-20" x1="110.87" y1="70.66" x2="118.07" y2="77.87"/><line class="cls-20" x1="91.2" y1="51" x2="98.4" y2="58.19"/><polyline class="cls-20" points="96.13 68.39 104.63 64.43 96.13 60.48"/><polyline class="cls-20" points="113.14 60.47 104.63 64.43 113.14 68.39"/><line class="cls-20" x1="108.59" y1="55.92" x2="100.67" y2="72.94"/><line class="cls-20" x1="108.59" y1="72.94" x2="100.68" y2="55.92"/></g><path class="cls-6" d="M107.54,29.43v.69l-.61.12v4.88h-1.14l-2.29-3.83h0v3l.61.11v.69h-2.35v-.69l.6-.11V30.24l-.6-.12v-.69h1.74l2.3,3.83h0v-3l-.61-.12v-.69h2.36Zm-.74,66.05h-.86l-.15-.78a1.37,1.37,0,0,0-.43-.17,2.92,2.92,0,0,0-.61-.07,1.16,1.16,0,0,0-.72.2.62.62,0,0,0-.26.51.55.55,0,0,0,.27.47,3.55,3.55,0,0,0,.93.4,3.48,3.48,0,0,1,1.42.69,1.41,1.41,0,0,1,.49,1.13A1.34,1.34,0,0,1,106.3,99a2.51,2.51,0,0,1-1.52.42,3.36,3.36,0,0,1-1.22-.21,2.58,2.58,0,0,1-.91-.6V97.43h.88l.12.81a1.47,1.47,0,0,0,.47.24,2.29,2.29,0,0,0,.66.09,1.18,1.18,0,0,0,.71-.19.67.67,0,0,0,0-1,2.18,2.18,0,0,0-.81-.38,4.39,4.39,0,0,1-1.53-.69,1.32,1.32,0,0,1-.52-1.11,1.36,1.36,0,0,1,.58-1.13,2.48,2.48,0,0,1,1.48-.45,3.5,3.5,0,0,1,1.19.2,2.8,2.8,0,0,1,.91.53Zm31-30.88h-1.92v1.62h1.83l0-.68h.87V67.1h-4.5v-.69l.61-.11V62.21l-.61-.11v-.69h4.49V63h-.87l-.05-.68h-1.82v1.43h1.92ZM77.1,62.1l-.46.06L75.48,67.1H74.42l-1-3.76h0l-1,3.76H71.26L70.1,62.16l-.47-.06v-.69h2.1v.69l-.52.09.65,3.11h0L73,61.41h.84l1.07,3.9h0l.64-3.11L75,62.1v-.69H77.1Z"/><g id="needle"><polygon class="cls-21" points="127.37 45.63 102.62 61.9 87.78 85.23 111.11 70.38 127.37 45.63"/><polygon class="cls-5" points="125.37 43.63 100.62 59.9 85.78 83.23 109.11 68.38 125.37 43.63"/><polygon class="cls-22" points="125.37 43.63 85.78 83.23 109.11 68.38 125.37 43.63"/><path class="cls-6" d="M84.15,84.86l16.2-25.38,26.77-17.59L109.38,68.8ZM101,60.25,87.41,81.6,108.75,68l14.88-22.64Z"/><circle class="cls-5" cx="104.63" cy="64.43" r="3.5"/><path class="cls-23" d="M104.63,61.43a3,3,0,1,1-3,3,3,3,0,0,1,3-3m0-1a4,4,0,1,0,4,4,4,4,0,0,0-4-4Z"/></g><text></text><text class="cls-24" transform="translate(228.43 91.8)">Nelson</text></svg>