<?xml version="1.0" encoding="utf-8"?>
<!-- Generator: Adobe Illustrator 22.1.0, SVG Export Plug-In . SVG Version: 6.00 Build 0)  -->
<svg version="1.1" id="Layer_1" xmlns="http://www.w3.org/2000/svg" xmlns:xlink="http://www.w3.org/1999/xlink" x="0px" y="0px"
	 viewBox="0 0 445.3 113.4" style="enable-background:new 0 0 445.3 113.4;" xml:space="preserve">
<style type="text/css">
	.st0{fill:#79D1EE;}
	.st1{fill:#3BB8EA;}
	.st2{opacity:0.2;}
	.st3{fill:#010101;}
	.st4{fill:#FFFFFF;}
	.st5{fill:#231F20;}
	.st6{fill:#25B3E4;}
	.st7{opacity:0.1;fill:#FFFFFF;}
	.st8{opacity:0.2;fill:#010101;}
	.st9{fill:#18AB4B;}
	.st10{opacity:0.6;fill:#84D5F6;}
	.st11{fill:#EEB650;}
	.st12{fill:#E2F3F8;}
	.st13{fill:#D7962B;}
	.st14{opacity:0.1;}
	.st15{fill:none;stroke:#5BBAD2;stroke-miterlimit:10;}
	.st16{fill:none;stroke:#A9DEE7;stroke-linecap:round;stroke-miterlimit:10;stroke-dasharray:1.9707,3.9414;}
	.st17{fill:none;stroke:#A9DEE7;stroke-linecap:round;stroke-miterlimit:10;stroke-dasharray:2.0101,4.0202;}
	.st18{opacity:0.5;}
	.st19{fill:none;stroke:#72CDDD;stroke-miterlimit:10;}
	.st20{opacity:0.3;fill:#010101;}
	.st21{fill:#EF3734;}
	.st22{fill:#D2D2D2;}
	.st23{fill:none;}
	.st24{fill:#21252A;}
</style>
<g>
	<path class="st0" d="M204.6,113.4H4.6c0-55.2,44.8-100,100-100S204.6,58.2,204.6,113.4z"/>
	<path class="st1" d="M187.1,113.4h-165c0-45.6,36.9-82.5,82.5-82.5S187.1,67.9,187.1,113.4z"/>
	<g>
		<g class="st2">
			<path class="st3" d="M169.5,37.3l-27.8,8.1l-37-12l-37,12l-27.8-8.1c-4.8,4.1-9.2,8.6-13.2,13.6v62.6h156V50.9
				C178.7,45.9,174.3,41.4,169.5,37.3z"/>
		</g>
		<g>
			<polygon class="st4" points="30.1,112.9 30.1,32.7 67.6,44.8 104.6,32.9 141.6,44.8 179.1,32.7 179.1,112.9 			"/>
			<path class="st5" d="M178.6,33.4v79h-148v-79l37,11.9l37-11.9l37,11.9L178.6,33.4 M179.6,32.1l-1.3,0.4l-36.7,11.8l-36.7-11.8
				l-0.3-0.1l-0.3,0.1L67.6,44.2L30.9,32.5l-1.3-0.4v1.4v79v1h1h148h1v-1v-79V32.1L179.6,32.1z"/>
		</g>
		<g>
			<rect x="30.6" y="111.4" class="st4" width="148" height="2"/>
		</g>
		<polygon class="st6" points="34.6,113.4 174.6,113.4 174.6,38.9 141.6,49.6 104.6,37.6 67.6,49.6 34.6,38.9 		"/>
		<path class="st7" d="M34.8,108.5l-0.3,1l10.7,3.5v0.6h1v-0.2l0.7,0.2h3.2l-4-1.3v-8.9l11,3.6v6.7h1v-6.3l9,2.9v3.4h1V110l11-3.6v7
			h1v-7.3l11-3.6v8.9l-6,1.9h3.2l2.7-0.9v0.9h1v-1.2l12-3.9v5.1h1v-5.1l12,3.9v1.2h1v-0.9l2.7,0.9h3.2l-6-1.9v-8.9l11,3.6v7.3h1v-7
			l11,3.6v3.4h1V110l10-3.2v6.7h1v-7l11-3.6v8.9l-5,1.6h3.2l1.7-0.6v0.6h1v-0.9l9.7-3.1l-0.3-1l-9.3,3v-8.9l9.7-3.1l-0.3-1l-9.3,3
			v-8.9l9.7-3.1l-0.3-1l-9.3,3v-8.9l9.7-3.1l-0.3-1l-9.3,3v-8.9l9.7-3.1l-0.3-1l-9.3,3v-8.9l9.7-3.1l-0.3-1l-9.3,3v-8.9l9.7-3.1
			l-0.3-1l-9.3,3V42h-1v9.8l-11,3.6v-9.6h-1v10l-10,3.2v-9.3h-1v9.3l-11-3.6v-9.6h-1v9.3l-11-3.6V42h-1v9.2l-12-3.9v-9.6h-1v9.6
			l-12,3.9V42h-1v9.5l-11,3.6v-9.3h-1v9.6l-11,3.6v-9.3h-1v9.3l-9-2.9V45.7h-1v10l-11-3.6V42h-1v9.8l-10.3-3.4l-0.3,1l10.7,3.5v8.9
			l-10.3-3.4l-0.3,1l10.7,3.5v8.9l-10.3-3.4l-0.3,1l10.7,3.5v8.9l-10.3-3.4l-0.3,1l10.7,3.5v8.9l-10.3-3.4l-0.3,1l10.7,3.5v8.9
			l-10.3-3.4l-0.3,1l10.7,3.5v8.9L34.8,108.5z M153.1,56.4l11-3.6v8.9l-11,3.6V56.4z M153.1,66.4l11-3.6v8.9l-11,3.6V66.4z
			 M153.1,76.4l11-3.6v8.9l-11,3.6V76.4z M153.1,86.4l11-3.6v8.9l-11,3.6V86.4z M153.1,96.4l11-3.6v8.9l-11,3.6V96.4z M142.1,60
			l10-3.2v8.9l-10,3.2V60z M142.1,70l10-3.2v8.9l-10,3.2V70z M142.1,80l10-3.2v8.9l-10,3.2V80z M142.1,90l10-3.2v8.9l-10,3.2V90z
			 M142.1,100l10-3.2v8.9l-10,3.2V100z M130.1,56.4l11,3.6v8.9l-11-3.6V56.4z M130.1,66.4l11,3.6v8.9l-11-3.6V66.4z M130.1,76.4
			l11,3.6v8.9l-11-3.6V76.4z M130.1,86.4l11,3.6v8.9l-11-3.6V86.4z M130.1,96.4l11,3.6v8.9l-11-3.6V96.4z M118.1,52.5l11,3.6v8.9
			l-11-3.6V52.5z M118.1,62.5l11,3.6v8.9l-11-3.6V62.5z M118.1,72.5l11,3.6v8.9l-11-3.6V72.5z M118.1,82.5l11,3.6v8.9l-11-3.6V82.5z
			 M118.1,92.5l11,3.6v8.9l-11-3.6V92.5z M105.1,48.3l12,3.9v8.9l-12-3.9V48.3z M105.1,58.3l12,3.9v8.9l-12-3.9V58.3z M105.1,68.3
			l12,3.9v8.9l-12-3.9V68.3z M105.1,78.3l12,3.9v8.9l-12-3.9V78.3z M105.1,88.3l12,3.9v8.9l-12-3.9V88.3z M105.1,98.3l12,3.9v8.9
			l-12-3.9V98.3z M92.1,52.2l12-3.9v8.9l-12,3.9V52.2z M92.1,62.2l12-3.9v8.9l-12,3.9V62.2z M92.1,72.2l12-3.9v8.9l-12,3.9V72.2z
			 M92.1,82.2l12-3.9v8.9l-12,3.9V82.2z M92.1,92.2l12-3.9v8.9l-12,3.9V92.2z M92.1,102.2l12-3.9v8.9l-12,3.9V102.2z M80.1,56.1
			l11-3.6v8.9l-11,3.6V56.1z M80.1,66.1l11-3.6v8.9l-11,3.6V66.1z M80.1,76.1l11-3.6v8.9l-11,3.6V76.1z M80.1,86.1l11-3.6v8.9
			l-11,3.6V86.1z M80.1,96.1l11-3.6v8.9l-11,3.6V96.1z M68.1,60l11-3.6v8.9l-11,3.6V60z M68.1,70l11-3.6v8.9l-11,3.6V70z M68.1,80
			l11-3.6v8.9l-11,3.6V80z M68.1,90l11-3.6v8.9l-11,3.6V90z M68.1,100l11-3.6v8.9l-11,3.6V100z M58.1,57.1l9,2.9v8.9l-9-2.9V57.1z
			 M58.1,67.1l9,2.9v8.9l-9-2.9V67.1z M58.1,77.1l9,2.9v8.9l-9-2.9V77.1z M58.1,87.1l9,2.9v8.9l-9-2.9V87.1z M58.1,97.1l9,2.9v8.9
			l-9-2.9V97.1z M46.1,53.2l11,3.6v8.9l-11-3.6V53.2z M46.1,63.2l11,3.6v8.9l-11-3.6V63.2z M46.1,73.2l11,3.6v8.9l-11-3.6V73.2z
			 M46.1,83.2l11,3.6v8.9l-11-3.6V83.2z M46.1,93.2l11,3.6v8.9l-11-3.6V93.2z"/>
	</g>
	<g>
		<g>
			<path class="st6" d="M164.6,113.4c-0.5-32.7-27.2-59-60-59s-59.4,26.3-60,59H164.6z"/>
			<path class="st8" d="M170.7,113.4c-0.6-36-29.9-65-66.1-65s-65.5,29-66.1,65H170.7z"/>
		</g>
		<g>
			<g>
				<path class="st5" d="M115.7,95.3c0.8,2,2,3.3,3.6,4.1c0.9,0.5,2,0.7,3.2,0.8c2.5,0.8,6.5,2.5,6.4,5.1c-0.1,1.6-1.5,2.9-3.2,4.5
					c-1.1,1-2.3,2.2-3.4,3.6h2.6c0.7-0.8,1.5-1.4,2.2-2.1c1.9-1.8,3.7-3.4,3.8-5.9c0.1-3-2.6-5.5-7.9-7.2c-0.1,0-0.1,0-0.2,0
					c-1-0.1-1.8-0.3-2.5-0.6c-1.2-0.6-2-1.6-2.7-3.1c-1.3-3.1-3.5-5.6-5.7-8c-3.8-4.2-6.8-7.5-4-12.9c4.2-8.1,23.9-9.9,26.5-10.2
					c14,8.2,24,21.8,27.7,37.5c0.1,0.7,0.3,1.3,0.4,1.8c0,0.2,0.1,0.4,0.1,0.6l0.1,0.4c0,0.3,0,0.5-0.1,0.5
					c-0.1,0.1-0.2,0.1-0.6,0.1c-1.8,0-5.3-1.6-8.3-3.1c-3.4-1.6-6.3-2.9-8.1-2.9c0,0-0.1,0-0.1,0c-1.8,0.1-2.7,0.5-3.5,0.9
					c-0.5,0.3-0.9,0.4-1.5,0.4c-0.6,0-1.4-0.2-2.5-0.6c-0.5-0.2-1,0-1.2,0.4c-1.7,2.9-2,5-1.1,6.4c0.4,0.6,1,0.9,1.7,0.9
					c0.7,0,1.4-0.3,2.1-0.6c0.9-0.4,2-0.9,3.1-0.9c2.4,0,4.8,2,7.3,6c0.4,0.6,0.7,1.3,1,2h2.1c-0.4-1.1-0.9-2.1-1.5-3
					c-2.9-4.7-5.9-7-9-7c-1.6,0-2.9,0.6-4,1c-0.5,0.2-1.1,0.5-1.4,0.4c-0.4-0.6-0.1-1.9,0.8-3.6c1,0.3,1.7,0.5,2.4,0.5
					c1,0,1.7-0.3,2.3-0.6c0.7-0.3,1.4-0.6,2.8-0.7c1.4,0,4.5,1.5,7.2,2.7c3.6,1.7,7,3.2,9.2,3.2c0.9,0,1.6-0.3,2-0.8
					c0.5-0.5,0.7-1.2,0.6-2.1c0,0,0-0.1,0-0.1l-0.1-0.4c0-0.2-0.1-0.5-0.1-0.8c-0.1-0.5-0.3-1.1-0.4-1.8
					c-3.8-16.3-14.3-30.5-28.9-38.9c-0.2-0.1-0.4-0.1-0.6-0.1c-1,0.1-23.5,1.6-28.5,11.3c-3.4,6.6,0.5,10.9,4.3,15.2
					C112.4,90.2,114.5,92.5,115.7,95.3z"/>
				<path class="st5" d="M45.6,113.4c0.3-15.9,7-31.1,18.6-42c2,0.1,2.6,0.9,3.5,2.1c1,1.4,2.3,3.1,5.8,4c1.3,0.3,2.8,0.5,4.8,0.5
					c1.6,0,3.2-0.1,4.6-0.2c1.2-0.1,2.3-0.1,3.1-0.1c1,0,1.3,0.1,1.5,0.1c3.9,1.5,3.1,9.3,2.9,11.9l0,0.3c-0.2,2.3-5.5,9.6-9.6,9.8
					c-0.7,0-1.5,0.1-2.2,0.1c-3.9,0.1-8,0.2-11.4,3.4c-2.5,2.3-1.8,5.4-1.2,8.7c0.1,0.4,0.2,0.8,0.3,1.3h2c-0.1-0.6-0.2-1.1-0.3-1.7
					c-0.7-3.4-1-5.4,0.6-6.9c2.9-2.7,6.4-2.8,10.1-2.9c0.7,0,1.5,0,2.2-0.1c5.4-0.3,11.2-8.6,11.4-11.7l0-0.3
					c0.3-3.3,1.1-11.9-4.2-13.9c-0.5-0.2-1.2-0.3-2.2-0.3c-0.9,0-2.1,0.1-3.3,0.2c-1.4,0.1-3,0.2-4.5,0.2c-1.8,0-3.2-0.1-4.3-0.4
					c-2.8-0.7-3.7-2-4.7-3.3c-1.1-1.5-2.2-3-5.5-3h0c-0.3,0-0.5,0.1-0.7,0.3C51,80.9,43.9,96.9,43.7,113.4H45.6z"/>
			</g>
			<g>
				<path class="st9" d="M119.8,98.5c0.9,0.4,1.9,0.7,2.9,0.7c3,1,7.4,2.9,7.2,6.1c-0.2,3-3.5,4.7-6.4,8H152
					c-0.4-0.9-0.8-1.7-1.2-2.5c-7.7-12.3-12.6-2.9-14.4-5.5c-0.8-1.3,0-3.5,1.1-5.4c4.7,1.8,3.9-0.4,7.9-0.6
					c4.1-0.2,18.6,10,18.2,4.2c-0.1-0.4-0.1-0.7-0.2-1.1c-0.1-0.5-0.3-1.1-0.4-1.8c-3.8-16.3-14.3-30.1-28.4-38.3
					c-0.6,0-22.9,1.6-27.6,10.7c-4.8,9.2,6.2,13.4,9.7,21.8C117.4,96.8,118.5,97.9,119.8,98.5z"/>
				<path class="st9" d="M67.3,113.4c-0.7-3.8-1.8-7,0.6-9.2c3.8-3.5,8.4-3,13-3.2c4.6-0.3,10.2-8,10.5-10.8s1.2-11.4-3.5-13.2
					c-2-0.8-9.5,0.9-14.1-0.3c-6.4-1.7-4.3-6.2-9.9-6.2c-11.6,10.7-19,26-19.2,43H67.3z"/>
			</g>
		</g>
		<path class="st10" d="M104.6,65.4c22.7,0,42.8,10.8,55.6,27.5c-8.9-22-30.4-37.5-55.6-37.5S57.9,71,49,93
			C61.8,76.2,81.9,65.4,104.6,65.4z"/>
		<path class="st5" d="M45.6,113.4c0.5-32.1,26.8-58,59-58s58.5,25.9,59,58h2c-0.5-33.2-27.7-60-61-60s-60.4,26.8-61,60H45.6z"/>
	</g>
	<g>
		<g class="st2">
			<circle class="st3" cx="104.6" cy="64.4" r="48"/>
		</g>
		<g>
			<circle class="st11" cx="104.6" cy="64.4" r="43.5"/>
			<path class="st5" d="M104.6,21.4c23.7,0,43,19.3,43,43c0,23.7-19.3,43-43,43s-43-19.3-43-43C61.6,40.7,80.9,21.4,104.6,21.4
				 M104.6,20.4c-24.3,0-44,19.7-44,44s19.7,44,44,44s44-19.7,44-44S128.9,20.4,104.6,20.4L104.6,20.4z"/>
		</g>
		<g>
			<circle class="st12" cx="104.6" cy="64.4" r="38.5"/>
			<path class="st13" d="M104.6,26.4c21,0,38,17,38,38s-17,38-38,38s-38-17-38-38S83.6,26.4,104.6,26.4 M104.6,25.4
				c-21.5,0-39,17.5-39,39s17.5,39,39,39s39-17.5,39-39S126.1,25.4,104.6,25.4L104.6,25.4z"/>
		</g>
		<g>
			<path class="st4" d="M128.3,34.7c5.2,6.5,8.3,14.7,8.3,23.7c0,21-17,38-38,38c-9,0-17.2-3.1-23.7-8.3c7,8.7,17.7,14.3,29.7,14.3
				c21,0,38-17,38-38C142.6,52.4,137,41.7,128.3,34.7z"/>
		</g>
		<g class="st14">
			<path class="st3" d="M72.6,70.4c0-21,17-38,38-38c9,0,17.2,3.1,23.7,8.3c-7-8.7-17.7-14.3-29.7-14.3c-21,0-38,17-38,38
				c0,12,5.6,22.7,14.3,29.7C75.7,87.6,72.6,79.4,72.6,70.4z"/>
		</g>
		<g>
			<polygon class="st15" points="104.6,39.4 98.6,64.4 104.6,89.4 110.6,64.4 			"/>
			<polygon class="st15" points="118.1,51 100.4,60.2 91.2,77.9 108.9,68.7 			"/>
			<polygon class="st15" points="91.2,51 100.4,68.7 118.1,77.9 108.9,60.2 			"/>
			<polygon class="st15" points="79.6,64.4 104.6,70.4 129.6,64.4 104.6,58.4 			"/>
			<g>
				<g>
					<g>
						<circle class="st16" cx="104.6" cy="64.4" r="32"/>
					</g>
					<g>
						<circle class="st17" cx="104.6" cy="64.4" r="24"/>
					</g>
				</g>
				<g class="st18">
					<polyline class="st19" points="108.6,55.9 104.6,41.4 100.7,55.9 					"/>
					<polyline class="st19" points="100.7,72.9 104.6,87.4 108.6,72.9 					"/>
					<polyline class="st19" points="113.1,60.5 118.1,51 108.6,55.9 					"/>
					<polyline class="st19" points="96.1,68.4 91.2,77.9 100.7,72.9 					"/>
					<polyline class="st19" points="100.7,55.9 91.2,51 96.1,60.5 					"/>
					<polyline class="st19" points="108.6,72.9 118.1,77.9 113.1,68.4 					"/>
					<polyline class="st19" points="96.1,60.5 81.6,64.4 96.1,68.4 					"/>
					<polyline class="st19" points="113.1,68.4 127.6,64.4 113.1,60.5 					"/>
					<line class="st19" x1="81.6" y1="64.4" x2="96.1" y2="64.4"/>
					<line class="st19" x1="113.1" y1="64.4" x2="127.6" y2="64.4"/>
					<line class="st19" x1="104.6" y1="41.4" x2="104.6" y2="55.9"/>
					<line class="st19" x1="104.6" y1="72.9" x2="104.6" y2="87.4"/>
					<polygon class="st19" points="96.1,60.5 100.7,55.9 108.6,55.9 113.1,60.5 113.1,68.4 108.6,72.9 100.7,72.9 96.1,68.4 					
						"/>
					<line class="st19" x1="110.9" y1="58.2" x2="118.1" y2="51"/>
					<line class="st19" x1="91.2" y1="77.9" x2="98.4" y2="70.7"/>
					<line class="st19" x1="110.9" y1="70.7" x2="118.1" y2="77.9"/>
					<line class="st19" x1="91.2" y1="51" x2="98.4" y2="58.2"/>
					<polyline class="st19" points="96.1,68.4 104.6,64.4 96.1,60.5 					"/>
					<polyline class="st19" points="113.1,60.5 104.6,64.4 113.1,68.4 					"/>
					<line class="st19" x1="108.6" y1="55.9" x2="100.7" y2="72.9"/>
					<line class="st19" x1="108.6" y1="72.9" x2="100.7" y2="55.9"/>
				</g>
			</g>
			<path class="st5" d="M107.5,29.4v0.7l-0.6,0.1v4.9h-1.1l-2.3-3.8l0,0v3l0.6,0.1v0.7h-2.4v-0.7l0.6-0.1v-4.1l-0.6-0.1v-0.7h0.6
				h1.1l2.3,3.8l0,0v-3l-0.6-0.1v-0.7h1.7H107.5z M106.8,95.5h-0.9l-0.1-0.8c-0.1-0.1-0.2-0.1-0.4-0.2c-0.2,0-0.4-0.1-0.6-0.1
				c-0.3,0-0.6,0.1-0.7,0.2c-0.2,0.1-0.3,0.3-0.3,0.5c0,0.2,0.1,0.4,0.3,0.5c0.2,0.1,0.5,0.3,0.9,0.4c0.6,0.2,1.1,0.4,1.4,0.7
				c0.3,0.3,0.5,0.7,0.5,1.1c0,0.5-0.2,0.9-0.6,1.2c-0.4,0.3-0.9,0.4-1.5,0.4c-0.5,0-0.9-0.1-1.2-0.2c-0.4-0.1-0.7-0.3-0.9-0.6v-1.2
				h0.9l0.1,0.8c0.1,0.1,0.3,0.2,0.5,0.2c0.2,0.1,0.4,0.1,0.7,0.1c0.3,0,0.5-0.1,0.7-0.2c0.2-0.1,0.2-0.3,0.2-0.5
				c0-0.2-0.1-0.4-0.2-0.5c-0.2-0.1-0.4-0.3-0.8-0.4c-0.7-0.2-1.2-0.4-1.5-0.7c-0.3-0.3-0.5-0.6-0.5-1.1c0-0.5,0.2-0.8,0.6-1.1
				s0.9-0.4,1.5-0.5c0.4,0,0.8,0.1,1.2,0.2s0.7,0.3,0.9,0.5V95.5z M137.8,64.6h-1.9v1.6h1.8l0.1-0.7h0.9v1.6h-4.5v-0.7l0.6-0.1v-4.1
				l-0.6-0.1v-0.7h0.6h3.9V63h-0.9l-0.1-0.7h-1.8v1.4h1.9V64.6z M77.1,62.1l-0.5,0.1l-1.2,4.9h-1.1l-1-3.8h0l-1,3.8h-1.1l-1.2-4.9
				l-0.5-0.1v-0.7h2.1v0.7l-0.5,0.1l0.7,3.1l0,0l1.1-3.9h0.8l1.1,3.9l0,0l0.6-3.1L75,62.1v-0.7h2.1V62.1z"/>
		</g>
		<g id="needle">
			<g>
				<polygon class="st20" points="127.4,45.6 102.6,61.9 87.8,85.2 111.1,70.4 				"/>
				<polygon class="st4" points="125.4,43.6 100.6,59.9 85.8,83.2 109.1,68.4 				"/>
				<polygon class="st21" points="125.4,43.6 85.8,83.2 109.1,68.4 				"/>
				<path class="st5" d="M84.1,84.9l16.2-25.4l26.8-17.6l-17.7,26.9L84.1,84.9z M101,60.3L87.4,81.6L108.8,68l14.9-22.6L101,60.3z"
					/>
			</g>
			<g>
				<circle class="st4" cx="104.6" cy="64.4" r="3.5"/>
				<path class="st22" d="M104.6,61.4c1.7,0,3,1.3,3,3c0,1.7-1.3,3-3,3s-3-1.3-3-3C101.6,62.8,103,61.4,104.6,61.4 M104.6,60.4
					c-2.2,0-4,1.8-4,4c0,2.2,1.8,4,4,4s4-1.8,4-4C108.6,62.2,106.8,60.4,104.6,60.4L104.6,60.4z"/>
			</g>
		</g>
	</g>
	<polygon class="st23" points="4.9,0 0,0 0,0 4.9,0 	"/>
</g>
<g>
	<path class="st24" d="M234,90.6V39.1c0-0.8,0.4-1.2,1.2-1.2h6.2c0.7,0,1.2,0.3,1.5,0.8L264.5,74c0.1,0.2,0.2,0.3,0.3,0.2
		c0.1-0.1,0.2-0.2,0.2-0.4V39.1c0-0.8,0.4-1.2,1.2-1.2h6.5c0.8,0,1.2,0.4,1.2,1.2v51.4c0,0.8-0.4,1.2-1.2,1.2h-6.3
		c-0.7,0-1.2-0.3-1.5-0.8l-21.6-35.5c-0.1-0.2-0.2-0.3-0.3-0.2c-0.1,0.1-0.2,0.2-0.2,0.4l0.1,35c0,0.8-0.4,1.2-1.2,1.2h-6.4
		C234.5,91.8,234,91.4,234,90.6z"/>
	<path class="st24" d="M304.2,83.7c1.4-0.7,2.6-1.8,3.4-3c0.3-0.4,0.6-0.6,1-0.6c0.3,0,0.5,0.1,0.7,0.2l3.7,2.9
		c0.4,0.4,0.5,0.7,0.5,1c0,0.2-0.1,0.4-0.2,0.7c-1.5,2.4-3.5,4.2-6.1,5.5c-2.6,1.3-5.5,2-8.9,2c-4.1,0-7.5-1-10.2-2.9
		c-2.7-1.9-4.7-4.6-6-8c-1-2.8-1.5-6-1.5-9.5s0.3-6.3,0.8-8.2c1-3.6,2.9-6.5,5.8-8.7c2.9-2.2,6.4-3.2,10.5-3.2
		c9.6,0,15.2,5.3,16.9,15.8c0.3,1.7,0.4,3.8,0.5,6.3c0,0.8-0.4,1.2-1.2,1.2H290c-0.3,0-0.5,0.2-0.5,0.5c0,1.4,0.2,2.5,0.5,3.4
		c0.6,1.8,1.6,3.3,3.2,4.3c1.6,1,3.6,1.5,5.9,1.5C301.1,84.8,302.7,84.4,304.2,83.7z M292.8,61c-1.3,1-2.1,2.3-2.6,4
		c-0.4,1-0.6,2.1-0.6,3.2c-0.1,0.3,0.1,0.5,0.4,0.5h15.5c0.3,0,0.5-0.2,0.5-0.5c-0.2-1.5-0.4-2.5-0.5-2.8c-0.5-1.8-1.4-3.2-2.7-4.3
		c-1.4-1.1-3.1-1.6-5.1-1.6C295.7,59.5,294.1,60,292.8,61z"/>
	<path class="st24" d="M320.6,90.6V39.1c0-0.8,0.4-1.2,1.2-1.2h6.5c0.8,0,1.2,0.4,1.2,1.2v51.4c0,0.8-0.4,1.2-1.2,1.2h-6.5
		C321,91.8,320.6,91.4,320.6,90.6z"/>
	<path class="st24" d="M342.7,90.8c-2.4-0.9-4.3-2.3-5.7-3.9c-1.3-1.7-2-3.5-2-5.6v-0.4c0-0.8,0.4-1.2,1.2-1.2h6.2
		c0.8,0,1.2,0.2,1.2,0.5v0.5c0,1.3,0.7,2.4,2.1,3.3c1.4,1,3.2,1.4,5.4,1.4c2.1,0,3.7-0.4,5-1.3c1.3-0.8,1.9-1.9,1.9-3.2
		c0-1.2-0.5-2.1-1.6-2.7c-1.1-0.6-2.8-1.2-5.1-1.9l-2.9-0.9c-2.6-0.8-4.8-1.6-6.6-2.5c-1.8-0.9-3.3-2.1-4.5-3.6
		c-1.2-1.5-1.8-3.5-1.8-5.8c0-3.6,1.4-6.5,4.2-8.6c2.8-2.1,6.5-3.2,11.1-3.2c3.1,0,5.9,0.5,8.2,1.5c2.4,1,4.2,2.4,5.5,4.2
		c1.3,1.8,2,3.8,2,6c0,0.3-0.1,0.5-0.3,0.7c-0.2,0.2-0.5,0.3-0.9,0.3h-5.9c-0.8,0-1.2-0.2-1.2-0.5v-0.5c0-1.3-0.7-2.5-2-3.4
		c-1.3-0.9-3.1-1.3-5.4-1.3c-2,0-3.6,0.4-4.9,1.1c-1.3,0.7-1.9,1.8-1.9,3.1c0,1.2,0.6,2.2,1.8,2.8c1.2,0.6,3.2,1.3,5.9,2.1l1.8,0.5
		c2.8,0.8,5.1,1.6,6.9,2.5c1.8,0.8,3.4,2,4.7,3.5c1.3,1.5,1.9,3.5,1.9,5.9c0,3.6-1.4,6.5-4.3,8.6c-2.9,2.1-6.7,3.1-11.5,3.1
		C347.9,92.3,345.1,91.8,342.7,90.8z"/>
	<path class="st24" d="M378,89.3c-2.9-2.1-5-4.9-6.1-8.5c-0.9-2.5-1.3-5.4-1.3-8.8c0-3.3,0.4-6.2,1.2-8.8c1.2-3.6,3.2-6.4,6.2-8.4
		c2.9-2,6.4-3,10.5-3c3.9,0,7.3,1,10.1,3s4.9,4.8,6,8.3c0.9,2.5,1.4,5.4,1.4,8.8c0,3.2-0.4,6.2-1.3,8.8c-1.2,3.6-3.2,6.5-6.1,8.6
		s-6.3,3.1-10.2,3.1C384.5,92.4,381,91.4,378,89.3z M393.4,83.1c1.4-1.1,2.3-2.6,2.9-4.5c0.6-1.6,0.8-3.8,0.8-6.5
		c0-2.5-0.3-4.7-0.8-6.5c-0.6-2-1.6-3.5-3-4.5c-1.4-1.1-3.1-1.6-5-1.6c-2,0-3.6,0.5-5,1.6c-1.4,1.1-2.4,2.6-2.9,4.5
		c-0.5,1.8-0.8,4-0.8,6.5c0,2.5,0.3,4.7,0.8,6.5c0.6,2,1.6,3.5,3,4.5c1.4,1.1,3.1,1.6,5.1,1.6C390.4,84.7,392,84.2,393.4,83.1z"/>
	<path class="st24" d="M440.8,55.5c2.5,2.5,3.7,5.8,3.7,10.1v24.9c0,0.8-0.4,1.2-1.2,1.2h-6.5c-0.8,0-1.2-0.4-1.2-1.2V67.5
		c0-2.4-0.7-4.3-2-5.7c-1.4-1.5-3.1-2.2-5.4-2.2c-2.2,0-4,0.7-5.4,2.2c-1.4,1.4-2,3.3-2,5.7v23.2c0,0.8-0.4,1.2-1.2,1.2h-6.5
		c-0.8,0-1.2-0.4-1.2-1.2V53.7c0-0.8,0.4-1.2,1.2-1.2h6.5c0.8,0,1.2,0.4,1.2,1.2v2.1c0,0.2,0.1,0.3,0.2,0.4c0.1,0.1,0.2,0,0.3-0.2
		c2.2-2.8,5.3-4.2,9.5-4.2C434.9,51.8,438.3,53.1,440.8,55.5z"/>
</g>
</svg>
